# MagicaVoxel @ Ephtracy

# group
o 

# material
mtllib carro 1.mtl
usemtl palette

# normals
vn -1 0 0
vn 1 0 0
vn 0 0 1
vn 0 0 -1
vn 0 -1 0
vn 0 1 0

# texcoords
vt 0.380859 0.5
vt 0.455078 0.5
vt 0.548828 0.5
vt 0.552734 0.5
vt 0.650391 0.5
vt 0.708984 0.5
vt 0.775391 0.5
vt 0.798828 0.5
vt 0.900391 0.5
vt 0.990234 0.5

# verts
v 0.2 2 -0.6
v 0.2 2 -0.8
v 0.2 2 -1.7
v 0.2 2 -1.9
v 0.2 2.1 -0.5
v 0.2 2.1 -0.6
v 0.2 2.1 -0.8
v 0.2 2.1 -0.9
v 0.2 2.1 -1.6
v 0.2 2.1 -1.7
v 0.2 2.1 -1.9
v 0.2 2.1 -2
v 0.2 2.3 -0.5
v 0.2 2.3 -0.6
v 0.2 2.3 -0.8
v 0.2 2.3 -0.9
v 0.2 2.3 -1.6
v 0.2 2.3 -1.7
v 0.2 2.3 -1.9
v 0.2 2.3 -2
v 0.2 2.4 -0.6
v 0.2 2.4 -0.8
v 0.2 2.4 -1.7
v 0.2 2.4 -1.9
v 0.2 2.5 -0.7
v 0.2 2.5 -0.8
v 0.2 2.6 -0.7
v 0.2 2.6 -0.8
v 0.3 2.1 -0.2
v 0.3 2.1 -0.3
v 0.3 2.1 -0.5
v 0.3 2.1 -0.9
v 0.3 2.1 -1.6
v 0.3 2.1 -2
v 0.3 2.1 -2.1
v 0.3 2.2 -0.2
v 0.3 2.2 -0.3
v 0.3 2.2 -2
v 0.3 2.2 -2.1
v 0.3 2.3 -0.2
v 0.3 2.3 -0.3
v 0.3 2.3 -0.5
v 0.3 2.3 -0.6
v 0.3 2.3 -0.8
v 0.3 2.3 -0.9
v 0.3 2.3 -1.6
v 0.3 2.3 -1.7
v 0.3 2.3 -1.9
v 0.3 2.3 -2
v 0.3 2.3 -2.1
v 0.3 2.4 -0.2
v 0.3 2.4 -0.3
v 0.3 2.4 -0.4
v 0.3 2.4 -0.6
v 0.3 2.4 -0.8
v 0.3 2.4 -1.7
v 0.3 2.4 -1.9
v 0.3 2.5 -0.3
v 0.3 2.5 -0.4
v 0.3 2.5 -0.7
v 0.3 2.5 -0.8
v 0.3 2.5 -1.9
v 0.3 2.5 -2
v 0.3 2.5 -2.1
v 0.3 2.6 -0.8
v 0.3 2.6 -0.9
v 0.3 2.6 -1.8
v 0.3 2.6 -1.9
v 0.3 2.6 -2
v 0.3 2.7 -0.8
v 0.3 2.7 -0.9
v 0.3 2.7 -1.8
v 0.3 2.7 -1.9
v 0.3 2.8 -0.9
v 0.3 2.8 -1.8
v 1.3 2 -0.6
v 1.3 2 -0.8
v 1.3 2 -1.7
v 1.3 2 -1.9
v 1.3 2.1 -0.6
v 1.3 2.1 -0.8
v 1.3 2.1 -1.7
v 1.3 2.1 -1.9
v 0.3 2 -0.6
v 0.3 2 -0.8
v 0.3 2 -1.7
v 0.3 2 -1.9
v 0.3 2.1 -0.6
v 0.3 2.1 -0.8
v 0.3 2.1 -1.7
v 0.3 2.1 -1.9
v 1.3 2.1 -0.2
v 1.3 2.1 -0.3
v 1.3 2.1 -0.5
v 1.3 2.1 -0.9
v 1.3 2.1 -1.6
v 1.3 2.1 -2
v 1.3 2.1 -2.1
v 1.3 2.2 -0.2
v 1.3 2.2 -0.3
v 1.3 2.2 -2
v 1.3 2.2 -2.1
v 1.3 2.3 -0.2
v 1.3 2.3 -0.3
v 1.3 2.3 -0.5
v 1.3 2.3 -0.6
v 1.3 2.3 -0.8
v 1.3 2.3 -0.9
v 1.3 2.3 -1.6
v 1.3 2.3 -1.7
v 1.3 2.3 -1.9
v 1.3 2.3 -2
v 1.3 2.3 -2.1
v 1.3 2.4 -0.2
v 1.3 2.4 -0.3
v 1.3 2.4 -0.4
v 1.3 2.4 -0.6
v 1.3 2.4 -0.8
v 1.3 2.4 -1.7
v 1.3 2.4 -1.9
v 1.3 2.5 -0.3
v 1.3 2.5 -0.4
v 1.3 2.5 -0.7
v 1.3 2.5 -0.8
v 1.3 2.5 -1.9
v 1.3 2.5 -2
v 1.3 2.5 -2.1
v 1.3 2.6 -0.8
v 1.3 2.6 -0.9
v 1.3 2.6 -1.8
v 1.3 2.6 -1.9
v 1.3 2.6 -2
v 1.3 2.7 -0.8
v 1.3 2.7 -0.9
v 1.3 2.7 -1.8
v 1.3 2.7 -1.9
v 1.3 2.8 -0.9
v 1.3 2.8 -1.8
v 1.4 2 -0.6
v 1.4 2 -0.8
v 1.4 2 -1.7
v 1.4 2 -1.9
v 1.4 2.1 -0.5
v 1.4 2.1 -0.6
v 1.4 2.1 -0.8
v 1.4 2.1 -0.9
v 1.4 2.1 -1.6
v 1.4 2.1 -1.7
v 1.4 2.1 -1.9
v 1.4 2.1 -2
v 1.4 2.3 -0.5
v 1.4 2.3 -0.6
v 1.4 2.3 -0.8
v 1.4 2.3 -0.9
v 1.4 2.3 -1.6
v 1.4 2.3 -1.7
v 1.4 2.3 -1.9
v 1.4 2.3 -2
v 1.4 2.4 -0.6
v 1.4 2.4 -0.8
v 1.4 2.4 -1.7
v 1.4 2.4 -1.9
v 1.4 2.5 -0.7
v 1.4 2.5 -0.8
v 1.4 2.6 -0.7
v 1.4 2.6 -0.8
v 0.3 2.1 -0.2
v 0.3 2.2 -0.2
v 0.3 2.3 -0.2
v 0.3 2.4 -0.2
v 0.4 2.1 -0.2
v 0.4 2.2 -0.2
v 0.5 2.1 -0.2
v 0.5 2.2 -0.2
v 0.5 2.3 -0.2
v 0.5 2.4 -0.2
v 0.6 2.3 -0.2
v 0.6 2.4 -0.2
v 1 2.3 -0.2
v 1 2.4 -0.2
v 1.1 2.1 -0.2
v 1.1 2.2 -0.2
v 1.1 2.3 -0.2
v 1.1 2.4 -0.2
v 1.2 2.1 -0.2
v 1.2 2.2 -0.2
v 1.3 2.1 -0.2
v 1.3 2.2 -0.2
v 1.3 2.3 -0.2
v 1.3 2.4 -0.2
v 0.3 2.4 -0.3
v 0.3 2.5 -0.3
v 0.4 2.4 -0.3
v 0.4 2.5 -0.3
v 0.5 2.4 -0.3
v 0.6 2.4 -0.3
v 1 2.4 -0.3
v 1.1 2.4 -0.3
v 1.2 2.4 -0.3
v 1.2 2.5 -0.3
v 1.3 2.4 -0.3
v 1.3 2.5 -0.3
v 0.2 2.1 -0.5
v 0.2 2.3 -0.5
v 0.3 2.1 -0.5
v 0.3 2.3 -0.5
v 1.3 2.1 -0.5
v 1.3 2.3 -0.5
v 1.4 2.1 -0.5
v 1.4 2.3 -0.5
v 0.2 2 -0.6
v 0.2 2.1 -0.6
v 0.2 2.3 -0.6
v 0.2 2.4 -0.6
v 0.3 2 -0.6
v 0.3 2.1 -0.6
v 0.3 2.3 -0.6
v 0.3 2.4 -0.6
v 1.3 2 -0.6
v 1.3 2.1 -0.6
v 1.3 2.3 -0.6
v 1.3 2.4 -0.6
v 1.4 2 -0.6
v 1.4 2.1 -0.6
v 1.4 2.3 -0.6
v 1.4 2.4 -0.6
v 0.2 2.5 -0.7
v 0.2 2.6 -0.7
v 0.3 2.5 -0.7
v 0.4 2.5 -0.7
v 0.4 2.6 -0.7
v 1.2 2.5 -0.7
v 1.2 2.6 -0.7
v 1.3 2.5 -0.7
v 1.4 2.5 -0.7
v 1.4 2.6 -0.7
v 0.3 2.6 -0.8
v 0.3 2.7 -0.8
v 0.4 2.6 -0.8
v 0.4 2.7 -0.8
v 1.2 2.6 -0.8
v 1.2 2.7 -0.8
v 1.3 2.6 -0.8
v 1.3 2.7 -0.8
v 0.3 2.7 -0.9
v 0.3 2.8 -0.9
v 0.4 2.7 -0.9
v 1.2 2.7 -0.9
v 1.3 2.7 -0.9
v 1.3 2.8 -0.9
v 0.2 2.1 -1.6
v 0.2 2.3 -1.6
v 0.3 2.1 -1.6
v 0.3 2.3 -1.6
v 1.3 2.1 -1.6
v 1.3 2.3 -1.6
v 1.4 2.1 -1.6
v 1.4 2.3 -1.6
v 0.2 2 -1.7
v 0.2 2.1 -1.7
v 0.2 2.3 -1.7
v 0.2 2.4 -1.7
v 0.3 2 -1.7
v 0.3 2.1 -1.7
v 0.3 2.3 -1.7
v 0.3 2.4 -1.7
v 1.3 2 -1.7
v 1.3 2.1 -1.7
v 1.3 2.3 -1.7
v 1.3 2.4 -1.7
v 1.4 2 -1.7
v 1.4 2.1 -1.7
v 1.4 2.3 -1.7
v 1.4 2.4 -1.7
v 0.2 2 -0.8
v 0.2 2.1 -0.8
v 0.2 2.3 -0.8
v 0.2 2.4 -0.8
v 0.2 2.5 -0.8
v 0.2 2.6 -0.8
v 0.3 2 -0.8
v 0.3 2.1 -0.8
v 0.3 2.3 -0.8
v 0.3 2.4 -0.8
v 0.3 2.5 -0.8
v 0.3 2.6 -0.8
v 1.3 2 -0.8
v 1.3 2.1 -0.8
v 1.3 2.3 -0.8
v 1.3 2.4 -0.8
v 1.3 2.5 -0.8
v 1.3 2.6 -0.8
v 1.4 2 -0.8
v 1.4 2.1 -0.8
v 1.4 2.3 -0.8
v 1.4 2.4 -0.8
v 1.4 2.5 -0.8
v 1.4 2.6 -0.8
v 0.2 2.1 -0.9
v 0.2 2.3 -0.9
v 0.3 2.1 -0.9
v 0.3 2.3 -0.9
v 1.3 2.1 -0.9
v 1.3 2.3 -0.9
v 1.4 2.1 -0.9
v 1.4 2.3 -0.9
v 0.3 2.7 -1.8
v 0.3 2.8 -1.8
v 0.4 2.7 -1.8
v 1.2 2.7 -1.8
v 1.3 2.7 -1.8
v 1.3 2.8 -1.8
v 0.2 2 -1.9
v 0.2 2.1 -1.9
v 0.2 2.3 -1.9
v 0.2 2.4 -1.9
v 0.3 2 -1.9
v 0.3 2.1 -1.9
v 0.3 2.3 -1.9
v 0.3 2.4 -1.9
v 0.3 2.6 -1.9
v 0.3 2.7 -1.9
v 0.4 2.6 -1.9
v 0.4 2.7 -1.9
v 1.2 2.6 -1.9
v 1.2 2.7 -1.9
v 1.3 2 -1.9
v 1.3 2.1 -1.9
v 1.3 2.3 -1.9
v 1.3 2.4 -1.9
v 1.3 2.6 -1.9
v 1.3 2.7 -1.9
v 1.4 2 -1.9
v 1.4 2.1 -1.9
v 1.4 2.3 -1.9
v 1.4 2.4 -1.9
v 0.2 2.1 -2
v 0.2 2.3 -2
v 0.3 2.1 -2
v 0.3 2.2 -2
v 0.3 2.3 -2
v 0.3 2.5 -2
v 0.3 2.6 -2
v 0.4 2.5 -2
v 0.4 2.6 -2
v 1.2 2.5 -2
v 1.2 2.6 -2
v 1.3 2.1 -2
v 1.3 2.2 -2
v 1.3 2.3 -2
v 1.3 2.5 -2
v 1.3 2.6 -2
v 1.4 2.1 -2
v 1.4 2.3 -2
v 0.3 2.1 -2.1
v 0.3 2.2 -2.1
v 0.3 2.3 -2.1
v 0.3 2.5 -2.1
v 0.4 2.2 -2.1
v 0.4 2.3 -2.1
v 0.4 2.5 -2.1
v 0.6 2.2 -2.1
v 0.6 2.4 -2.1
v 0.7 2.2 -2.1
v 0.7 2.4 -2.1
v 0.9 2.2 -2.1
v 0.9 2.4 -2.1
v 1 2.2 -2.1
v 1 2.4 -2.1
v 1.2 2.2 -2.1
v 1.2 2.3 -2.1
v 1.2 2.5 -2.1
v 1.3 2.1 -2.1
v 1.3 2.2 -2.1
v 1.3 2.3 -2.1
v 1.3 2.5 -2.1
v 0.2 2 -0.6
v 0.3 2 -0.6
v 1.3 2 -0.6
v 1.4 2 -0.6
v 0.2 2 -0.8
v 0.3 2 -0.8
v 1.3 2 -0.8
v 1.4 2 -0.8
v 0.2 2 -1.7
v 0.3 2 -1.7
v 1.3 2 -1.7
v 1.4 2 -1.7
v 0.2 2 -1.9
v 0.3 2 -1.9
v 1.3 2 -1.9
v 1.4 2 -1.9
v 0.3 2.1 -0.2
v 0.4 2.1 -0.2
v 0.5 2.1 -0.2
v 1.1 2.1 -0.2
v 1.2 2.1 -0.2
v 1.3 2.1 -0.2
v 0.3 2.1 -0.3
v 0.4 2.1 -0.3
v 0.5 2.1 -0.3
v 1.1 2.1 -0.3
v 1.2 2.1 -0.3
v 1.3 2.1 -0.3
v 0.2 2.1 -0.5
v 0.3 2.1 -0.5
v 0.4 2.1 -0.5
v 1.2 2.1 -0.5
v 1.3 2.1 -0.5
v 1.4 2.1 -0.5
v 0.2 2.1 -0.6
v 0.3 2.1 -0.6
v 1.3 2.1 -0.6
v 1.4 2.1 -0.6
v 0.2 2.1 -0.8
v 0.3 2.1 -0.8
v 1.3 2.1 -0.8
v 1.4 2.1 -0.8
v 0.2 2.1 -0.9
v 0.3 2.1 -0.9
v 0.4 2.1 -0.9
v 1.2 2.1 -0.9
v 1.3 2.1 -0.9
v 1.4 2.1 -0.9
v 0.2 2.1 -1.6
v 0.3 2.1 -1.6
v 0.4 2.1 -1.6
v 1.2 2.1 -1.6
v 1.3 2.1 -1.6
v 1.4 2.1 -1.6
v 0.2 2.1 -1.7
v 0.3 2.1 -1.7
v 1.3 2.1 -1.7
v 1.4 2.1 -1.7
v 0.2 2.1 -1.9
v 0.3 2.1 -1.9
v 1.3 2.1 -1.9
v 1.4 2.1 -1.9
v 0.2 2.1 -2
v 0.3 2.1 -2
v 1.3 2.1 -2
v 1.4 2.1 -2
v 0.3 2.1 -2.1
v 1.3 2.1 -2.1
v 0.2 2.5 -0.7
v 0.3 2.5 -0.7
v 1.3 2.5 -0.7
v 1.4 2.5 -0.7
v 0.2 2.5 -0.8
v 0.3 2.5 -0.8
v 1.3 2.5 -0.8
v 1.4 2.5 -0.8
v 0.2 2.3 -0.5
v 0.3 2.3 -0.5
v 1.3 2.3 -0.5
v 1.4 2.3 -0.5
v 0.2 2.3 -0.6
v 0.3 2.3 -0.6
v 1.3 2.3 -0.6
v 1.4 2.3 -0.6
v 0.2 2.3 -0.8
v 0.3 2.3 -0.8
v 1.3 2.3 -0.8
v 1.4 2.3 -0.8
v 0.2 2.3 -0.9
v 0.3 2.3 -0.9
v 1.3 2.3 -0.9
v 1.4 2.3 -0.9
v 0.2 2.3 -1.6
v 0.3 2.3 -1.6
v 1.3 2.3 -1.6
v 1.4 2.3 -1.6
v 0.2 2.3 -1.7
v 0.3 2.3 -1.7
v 1.3 2.3 -1.7
v 1.4 2.3 -1.7
v 0.2 2.3 -1.9
v 0.3 2.3 -1.9
v 1.3 2.3 -1.9
v 1.4 2.3 -1.9
v 0.2 2.3 -2
v 0.3 2.3 -2
v 1.3 2.3 -2
v 1.4 2.3 -2
v 0.3 2.4 -0.2
v 0.5 2.4 -0.2
v 0.6 2.4 -0.2
v 1 2.4 -0.2
v 1.1 2.4 -0.2
v 1.3 2.4 -0.2
v 0.3 2.4 -0.3
v 0.4 2.4 -0.3
v 0.5 2.4 -0.3
v 0.6 2.4 -0.3
v 1 2.4 -0.3
v 1.1 2.4 -0.3
v 1.2 2.4 -0.3
v 1.3 2.4 -0.3
v 0.2 2.4 -0.6
v 0.3 2.4 -0.6
v 1.3 2.4 -0.6
v 1.4 2.4 -0.6
v 0.2 2.4 -0.8
v 0.3 2.4 -0.8
v 1.3 2.4 -0.8
v 1.4 2.4 -0.8
v 0.2 2.4 -1.7
v 0.3 2.4 -1.7
v 1.3 2.4 -1.7
v 1.4 2.4 -1.7
v 0.2 2.4 -1.9
v 0.3 2.4 -1.9
v 1.3 2.4 -1.9
v 1.4 2.4 -1.9
v 0.3 2.5 -0.3
v 0.4 2.5 -0.3
v 1.2 2.5 -0.3
v 1.3 2.5 -0.3
v 0.3 2.5 -0.4
v 0.4 2.5 -0.4
v 1.2 2.5 -0.4
v 1.3 2.5 -0.4
v 0.3 2.5 -0.7
v 0.4 2.5 -0.7
v 1.2 2.5 -0.7
v 1.3 2.5 -0.7
v 0.3 2.5 -2
v 0.4 2.5 -2
v 1.2 2.5 -2
v 1.3 2.5 -2
v 0.3 2.5 -2.1
v 0.4 2.5 -2.1
v 1.2 2.5 -2.1
v 1.3 2.5 -2.1
v 0.2 2.6 -0.7
v 0.4 2.6 -0.7
v 1.2 2.6 -0.7
v 1.4 2.6 -0.7
v 0.2 2.6 -0.8
v 0.3 2.6 -0.8
v 0.4 2.6 -0.8
v 1.2 2.6 -0.8
v 1.3 2.6 -0.8
v 1.4 2.6 -0.8
v 0.3 2.6 -1.9
v 0.4 2.6 -1.9
v 1.2 2.6 -1.9
v 1.3 2.6 -1.9
v 0.3 2.6 -2
v 0.4 2.6 -2
v 1.2 2.6 -2
v 1.3 2.6 -2
v 0.3 2.7 -0.8
v 0.4 2.7 -0.8
v 1.2 2.7 -0.8
v 1.3 2.7 -0.8
v 0.3 2.7 -0.9
v 0.4 2.7 -0.9
v 1.2 2.7 -0.9
v 1.3 2.7 -0.9
v 0.3 2.7 -1.8
v 0.4 2.7 -1.8
v 1.2 2.7 -1.8
v 1.3 2.7 -1.8
v 0.3 2.7 -1.9
v 0.4 2.7 -1.9
v 1.2 2.7 -1.9
v 1.3 2.7 -1.9
v 0.3 2.8 -0.9
v 1.3 2.8 -0.9
v 0.3 2.8 -1.8
v 1.3 2.8 -1.8

# faces
f 6/7/1 2/7/1 1/7/1
f 7/7/1 2/7/1 6/7/1
f 10/7/1 4/7/1 3/7/1
f 11/7/1 4/7/1 10/7/1
f 13/7/1 6/7/1 5/7/1
f 14/4/1 7/4/1 6/4/1
f 14/7/1 6/7/1 13/7/1
f 15/7/1 8/7/1 7/7/1
f 15/4/1 7/4/1 14/4/1
f 16/7/1 8/7/1 15/7/1
f 17/7/1 10/7/1 9/7/1
f 18/4/1 11/4/1 10/4/1
f 18/7/1 10/7/1 17/7/1
f 19/7/1 12/7/1 11/7/1
f 19/4/1 11/4/1 18/4/1
f 20/7/1 12/7/1 19/7/1
f 21/7/1 15/7/1 14/7/1
f 22/7/1 15/7/1 21/7/1
f 23/7/1 19/7/1 18/7/1
f 24/7/1 19/7/1 23/7/1
f 27/8/1 26/8/1 25/8/1
f 28/8/1 26/8/1 27/8/1
f 36/9/1 30/9/1 29/9/1
f 37/8/1 31/8/1 30/8/1
f 37/9/1 30/9/1 36/9/1
f 38/8/1 35/8/1 34/8/1
f 39/8/1 35/8/1 38/8/1
f 40/8/1 37/8/1 36/8/1
f 41/8/1 31/8/1 37/8/1
f 41/8/1 37/8/1 40/8/1
f 42/8/1 31/8/1 41/8/1
f 45/8/1 33/8/1 32/8/1
f 46/8/1 33/8/1 45/8/1
f 49/6/1 39/6/1 38/6/1
f 50/6/1 39/6/1 49/6/1
f 51/9/1 41/9/1 40/9/1
f 52/8/1 43/8/1 42/8/1
f 52/9/1 41/9/1 51/9/1
f 52/8/1 42/8/1 41/8/1
f 53/8/1 43/8/1 52/8/1
f 54/8/1 43/8/1 53/8/1
f 55/8/1 47/8/1 46/8/1
f 55/8/1 45/8/1 44/8/1
f 55/8/1 46/8/1 45/8/1
f 56/8/1 47/8/1 55/8/1
f 57/8/1 49/8/1 48/8/1
f 58/9/1 53/9/1 52/9/1
f 59/8/1 54/8/1 53/8/1
f 59/9/1 53/9/1 58/9/1
f 59/8/1 57/8/1 56/8/1
f 59/8/1 56/8/1 55/8/1
f 59/8/1 55/8/1 54/8/1
f 60/8/1 57/8/1 59/8/1
f 61/8/1 57/8/1 60/8/1
f 62/8/1 49/8/1 57/8/1
f 62/8/1 57/8/1 61/8/1
f 63/10/1 50/10/1 49/10/1
f 63/8/1 49/8/1 62/8/1
f 64/10/1 50/10/1 63/10/1
f 65/7/1 62/7/1 61/7/1
f 66/7/1 62/7/1 65/7/1
f 67/7/1 62/7/1 66/7/1
f 68/8/1 63/8/1 62/8/1
f 68/7/1 62/7/1 67/7/1
f 69/8/1 63/8/1 68/8/1
f 70/8/1 66/8/1 65/8/1
f 71/7/1 67/7/1 66/7/1
f 71/8/1 66/8/1 70/8/1
f 72/8/1 68/8/1 67/8/1
f 72/7/1 67/7/1 71/7/1
f 73/8/1 68/8/1 72/8/1
f 74/8/1 72/8/1 71/8/1
f 75/8/1 72/8/1 74/8/1
f 80/7/1 77/7/1 76/7/1
f 81/7/1 77/7/1 80/7/1
f 82/7/1 79/7/1 78/7/1
f 83/7/1 79/7/1 82/7/1
f 84/7/2 85/7/2 88/7/2
f 88/7/2 85/7/2 89/7/2
f 86/7/2 87/7/2 90/7/2
f 90/7/2 87/7/2 91/7/2
f 92/9/2 93/9/2 99/9/2
f 93/8/2 94/8/2 100/8/2
f 99/9/2 93/9/2 100/9/2
f 97/8/2 98/8/2 101/8/2
f 101/8/2 98/8/2 102/8/2
f 99/8/2 100/8/2 103/8/2
f 100/8/2 94/8/2 104/8/2
f 103/8/2 100/8/2 104/8/2
f 104/8/2 94/8/2 105/8/2
f 95/8/2 96/8/2 108/8/2
f 108/8/2 96/8/2 109/8/2
f 101/6/2 102/6/2 112/6/2
f 112/6/2 102/6/2 113/6/2
f 103/9/2 104/9/2 114/9/2
f 105/8/2 106/8/2 115/8/2
f 114/9/2 104/9/2 115/9/2
f 104/8/2 105/8/2 115/8/2
f 115/8/2 106/8/2 116/8/2
f 116/8/2 106/8/2 117/8/2
f 109/8/2 110/8/2 118/8/2
f 107/8/2 108/8/2 118/8/2
f 108/8/2 109/8/2 118/8/2
f 118/8/2 110/8/2 119/8/2
f 111/8/2 112/8/2 120/8/2
f 115/9/2 116/9/2 121/9/2
f 116/8/2 117/8/2 122/8/2
f 121/9/2 116/9/2 122/9/2
f 119/8/2 120/8/2 122/8/2
f 118/8/2 119/8/2 122/8/2
f 117/8/2 118/8/2 122/8/2
f 122/8/2 120/8/2 123/8/2
f 123/8/2 120/8/2 124/8/2
f 120/8/2 112/8/2 125/8/2
f 124/8/2 120/8/2 125/8/2
f 112/10/2 113/10/2 126/10/2
f 125/8/2 112/8/2 126/8/2
f 126/10/2 113/10/2 127/10/2
f 124/7/2 125/7/2 128/7/2
f 128/7/2 125/7/2 129/7/2
f 129/7/2 125/7/2 130/7/2
f 125/8/2 126/8/2 131/8/2
f 130/7/2 125/7/2 131/7/2
f 131/8/2 126/8/2 132/8/2
f 128/8/2 129/8/2 133/8/2
f 129/7/2 130/7/2 134/7/2
f 133/8/2 129/8/2 134/8/2
f 130/8/2 131/8/2 135/8/2
f 134/7/2 130/7/2 135/7/2
f 135/8/2 131/8/2 136/8/2
f 134/8/2 135/8/2 137/8/2
f 137/8/2 135/8/2 138/8/2
f 139/7/2 140/7/2 144/7/2
f 144/7/2 140/7/2 145/7/2
f 141/7/2 142/7/2 148/7/2
f 148/7/2 142/7/2 149/7/2
f 143/7/2 144/7/2 151/7/2
f 144/5/2 145/5/2 152/5/2
f 151/7/2 144/7/2 152/7/2
f 145/7/2 146/7/2 153/7/2
f 152/5/2 145/5/2 153/5/2
f 153/7/2 146/7/2 154/7/2
f 147/7/2 148/7/2 155/7/2
f 148/5/2 149/5/2 156/5/2
f 155/7/2 148/7/2 156/7/2
f 149/7/2 150/7/2 157/7/2
f 156/5/2 149/5/2 157/5/2
f 157/7/2 150/7/2 158/7/2
f 152/7/2 153/7/2 159/7/2
f 159/7/2 153/7/2 160/7/2
f 156/7/2 157/7/2 161/7/2
f 161/7/2 157/7/2 162/7/2
f 163/8/2 164/8/2 165/8/2
f 165/8/2 164/8/2 166/8/2
f 171/9/3 168/9/3 167/9/3
f 172/8/3 169/8/3 168/8/3
f 172/9/3 168/9/3 171/9/3
f 173/8/3 172/8/3 171/8/3
f 174/8/3 169/8/3 172/8/3
f 174/8/3 172/8/3 173/8/3
f 175/9/3 170/9/3 169/9/3
f 175/8/3 169/8/3 174/8/3
f 176/9/3 170/9/3 175/9/3
f 177/8/3 175/8/3 174/8/3
f 177/6/3 176/6/3 175/6/3
f 178/6/3 176/6/3 177/6/3
f 179/8/3 177/8/3 174/8/3
f 179/8/3 178/8/3 177/8/3
f 180/8/3 178/8/3 179/8/3
f 181/7/3 174/7/3 173/7/3
f 182/8/3 179/8/3 174/8/3
f 182/7/3 174/7/3 181/7/3
f 183/6/3 180/6/3 179/6/3
f 183/8/3 179/8/3 182/8/3
f 184/6/3 180/6/3 183/6/3
f 185/8/3 182/8/3 181/8/3
f 185/8/3 183/8/3 182/8/3
f 186/8/3 183/8/3 185/8/3
f 187/9/3 186/9/3 185/9/3
f 188/8/3 183/8/3 186/8/3
f 188/9/3 186/9/3 187/9/3
f 189/9/3 184/9/3 183/9/3
f 189/8/3 183/8/3 188/8/3
f 190/9/3 184/9/3 189/9/3
f 193/9/3 192/9/3 191/9/3
f 194/9/3 192/9/3 193/9/3
f 195/8/3 194/8/3 193/8/3
f 196/8/3 194/8/3 195/8/3
f 197/8/3 194/8/3 196/8/3
f 198/8/3 194/8/3 197/8/3
f 199/8/3 194/8/3 198/8/3
f 200/8/3 194/8/3 199/8/3
f 201/9/3 200/9/3 199/9/3
f 202/9/3 200/9/3 201/9/3
f 205/7/3 204/7/3 203/7/3
f 206/7/3 204/7/3 205/7/3
f 209/7/3 208/7/3 207/7/3
f 210/7/3 208/7/3 209/7/3
f 215/7/3 212/7/3 211/7/3
f 216/7/3 212/7/3 215/7/3
f 217/7/3 214/7/3 213/7/3
f 218/7/3 214/7/3 217/7/3
f 223/7/3 220/7/3 219/7/3
f 224/7/3 220/7/3 223/7/3
f 225/7/3 222/7/3 221/7/3
f 226/7/3 222/7/3 225/7/3
f 229/8/3 228/8/3 227/8/3
f 230/8/3 228/8/3 229/8/3
f 231/8/3 228/8/3 230/8/3
f 232/7/3 231/7/3 230/7/3
f 233/7/3 231/7/3 232/7/3
f 234/8/3 233/8/3 232/8/3
f 235/8/3 233/8/3 234/8/3
f 236/8/3 233/8/3 235/8/3
f 239/8/3 238/8/3 237/8/3
f 240/8/3 238/8/3 239/8/3
f 241/7/3 240/7/3 239/7/3
f 242/7/3 240/7/3 241/7/3
f 243/8/3 242/8/3 241/8/3
f 244/8/3 242/8/3 243/8/3
f 247/8/3 246/8/3 245/8/3
f 248/8/3 246/8/3 247/8/3
f 249/8/3 246/8/3 248/8/3
f 250/8/3 246/8/3 249/8/3
f 253/7/3 252/7/3 251/7/3
f 254/7/3 252/7/3 253/7/3
f 257/7/3 256/7/3 255/7/3
f 258/7/3 256/7/3 257/7/3
f 263/7/3 260/7/3 259/7/3
f 264/7/3 260/7/3 263/7/3
f 265/7/3 262/7/3 261/7/3
f 266/7/3 262/7/3 265/7/3
f 271/7/3 268/7/3 267/7/3
f 272/7/3 268/7/3 271/7/3
f 273/7/3 270/7/3 269/7/3
f 274/7/3 270/7/3 273/7/3
f 275/7/4 276/7/4 281/7/4
f 281/7/4 276/7/4 282/7/4
f 277/7/4 278/7/4 283/7/4
f 283/7/4 278/7/4 284/7/4
f 279/8/4 280/8/4 285/8/4
f 285/8/4 280/8/4 286/8/4
f 287/7/4 288/7/4 293/7/4
f 293/7/4 288/7/4 294/7/4
f 289/7/4 290/7/4 295/7/4
f 295/7/4 290/7/4 296/7/4
f 291/8/4 292/8/4 297/8/4
f 297/8/4 292/8/4 298/8/4
f 299/7/4 300/7/4 301/7/4
f 301/7/4 300/7/4 302/7/4
f 303/7/4 304/7/4 305/7/4
f 305/7/4 304/7/4 306/7/4
f 307/8/4 308/8/4 309/8/4
f 309/8/4 308/8/4 310/8/4
f 310/8/4 308/8/4 311/8/4
f 311/8/4 308/8/4 312/8/4
f 313/7/4 314/7/4 317/7/4
f 317/7/4 314/7/4 318/7/4
f 315/7/4 316/7/4 319/7/4
f 319/7/4 316/7/4 320/7/4
f 321/8/4 322/8/4 323/8/4
f 323/8/4 322/8/4 324/8/4
f 323/7/4 324/7/4 325/7/4
f 325/7/4 324/7/4 326/7/4
f 325/8/4 326/8/4 331/8/4
f 331/8/4 326/8/4 332/8/4
f 327/7/4 328/7/4 333/7/4
f 333/7/4 328/7/4 334/7/4
f 329/7/4 330/7/4 335/7/4
f 335/7/4 330/7/4 336/7/4
f 337/7/4 338/7/4 339/7/4
f 339/7/4 338/7/4 340/7/4
f 340/7/4 338/7/4 341/7/4
f 342/8/4 343/8/4 344/8/4
f 344/8/4 343/8/4 345/8/4
f 344/7/4 345/7/4 346/7/4
f 346/7/4 345/7/4 347/7/4
f 346/8/4 347/8/4 351/8/4
f 351/8/4 347/8/4 352/8/4
f 349/7/4 350/7/4 353/7/4
f 348/7/4 349/7/4 353/7/4
f 353/7/4 350/7/4 354/7/4
f 355/8/4 356/8/4 359/8/4
f 356/6/4 357/6/4 359/6/4
f 357/10/4 358/10/4 360/10/4
f 359/6/4 357/6/4 360/6/4
f 360/10/4 358/10/4 361/10/4
f 355/8/4 359/8/4 362/8/4
f 359/8/4 360/8/4 362/8/4
f 360/8/4 361/8/4 362/8/4
f 362/8/4 361/8/4 363/8/4
f 355/8/4 362/8/4 364/8/4
f 362/9/4 363/9/4 364/9/4
f 363/8/4 361/8/4 365/8/4
f 364/9/4 363/9/4 365/9/4
f 355/8/4 364/8/4 366/8/4
f 364/2/4 365/2/4 366/2/4
f 365/8/4 361/8/4 367/8/4
f 366/2/4 365/2/4 367/2/4
f 355/8/4 366/8/4 368/8/4
f 366/3/4 367/3/4 368/3/4
f 367/8/4 361/8/4 369/8/4
f 368/3/4 367/3/4 369/3/4
f 355/8/4 368/8/4 370/8/4
f 368/8/4 369/8/4 370/8/4
f 370/8/4 369/8/4 371/8/4
f 369/8/4 361/8/4 372/8/4
f 371/8/4 369/8/4 372/8/4
f 355/8/4 370/8/4 373/8/4
f 370/6/4 371/6/4 374/6/4
f 373/8/4 370/8/4 374/8/4
f 371/10/4 372/10/4 375/10/4
f 374/6/4 371/6/4 375/6/4
f 375/10/4 372/10/4 376/10/4
f 381/7/5 378/7/5 377/7/5
f 382/7/5 378/7/5 381/7/5
f 383/7/5 380/7/5 379/7/5
f 384/7/5 380/7/5 383/7/5
f 389/7/5 386/7/5 385/7/5
f 390/7/5 386/7/5 389/7/5
f 391/7/5 388/7/5 387/7/5
f 392/7/5 388/7/5 391/7/5
f 399/9/5 394/9/5 393/9/5
f 400/8/5 395/8/5 394/8/5
f 400/9/5 394/9/5 399/9/5
f 401/7/5 396/7/5 395/7/5
f 401/8/5 395/8/5 400/8/5
f 402/8/5 397/8/5 396/8/5
f 402/7/5 396/7/5 401/7/5
f 403/9/5 398/9/5 397/9/5
f 403/8/5 397/8/5 402/8/5
f 404/9/5 398/9/5 403/9/5
f 406/8/5 400/8/5 399/8/5
f 407/1/5 402/1/5 401/1/5
f 407/1/5 401/1/5 400/1/5
f 407/8/5 400/8/5 406/8/5
f 407/1/5 403/1/5 402/1/5
f 408/8/5 404/8/5 403/8/5
f 408/1/5 403/1/5 407/1/5
f 409/8/5 404/8/5 408/8/5
f 411/7/5 406/7/5 405/7/5
f 412/1/5 409/1/5 408/1/5
f 412/7/5 406/7/5 411/7/5
f 412/1/5 407/1/5 406/1/5
f 412/1/5 408/1/5 407/1/5
f 413/7/5 410/7/5 409/7/5
f 413/1/5 409/1/5 412/1/5
f 414/7/5 410/7/5 413/7/5
f 416/1/5 413/1/5 412/1/5
f 417/1/5 413/1/5 416/1/5
f 419/7/5 416/7/5 415/7/5
f 420/1/5 417/1/5 416/1/5
f 420/7/5 416/7/5 419/7/5
f 421/1/5 417/1/5 420/1/5
f 422/1/5 417/1/5 421/1/5
f 423/7/5 418/7/5 417/7/5
f 423/1/5 417/1/5 422/1/5
f 424/7/5 418/7/5 423/7/5
f 426/8/5 421/8/5 420/8/5
f 427/1/5 422/1/5 421/1/5
f 427/8/5 421/8/5 426/8/5
f 428/8/5 423/8/5 422/8/5
f 428/1/5 422/1/5 427/1/5
f 429/8/5 423/8/5 428/8/5
f 431/7/5 426/7/5 425/7/5
f 432/1/5 427/1/5 426/1/5
f 432/7/5 426/7/5 431/7/5
f 432/1/5 428/1/5 427/1/5
f 432/1/5 429/1/5 428/1/5
f 433/7/5 430/7/5 429/7/5
f 433/1/5 429/1/5 432/1/5
f 434/7/5 430/7/5 433/7/5
f 436/1/5 433/1/5 432/1/5
f 437/1/5 433/1/5 436/1/5
f 439/7/5 436/7/5 435/7/5
f 440/1/5 437/1/5 436/1/5
f 440/7/5 436/7/5 439/7/5
f 441/7/5 438/7/5 437/7/5
f 441/1/5 437/1/5 440/1/5
f 442/7/5 438/7/5 441/7/5
f 443/8/5 441/8/5 440/8/5
f 444/8/5 441/8/5 443/8/5
f 449/8/5 446/8/5 445/8/5
f 450/8/5 446/8/5 449/8/5
f 451/8/5 448/8/5 447/8/5
f 452/8/5 448/8/5 451/8/5
f 453/7/6 454/7/6 457/7/6
f 457/7/6 454/7/6 458/7/6
f 455/7/6 456/7/6 459/7/6
f 459/7/6 456/7/6 460/7/6
f 461/7/6 462/7/6 465/7/6
f 465/7/6 462/7/6 466/7/6
f 463/7/6 464/7/6 467/7/6
f 467/7/6 464/7/6 468/7/6
f 469/7/6 470/7/6 473/7/6
f 473/7/6 470/7/6 474/7/6
f 471/7/6 472/7/6 475/7/6
f 475/7/6 472/7/6 476/7/6
f 477/7/6 478/7/6 481/7/6
f 481/7/6 478/7/6 482/7/6
f 479/7/6 480/7/6 483/7/6
f 483/7/6 480/7/6 484/7/6
f 485/9/6 486/9/6 491/9/6
f 491/9/6 486/9/6 492/9/6
f 486/6/6 487/6/6 493/6/6
f 492/9/6 486/9/6 493/9/6
f 487/8/6 488/8/6 494/8/6
f 493/6/6 487/6/6 494/6/6
f 488/6/6 489/6/6 495/6/6
f 494/8/6 488/8/6 495/8/6
f 489/9/6 490/9/6 496/9/6
f 495/6/6 489/6/6 496/6/6
f 496/9/6 490/9/6 497/9/6
f 497/9/6 490/9/6 498/9/6
f 499/7/6 500/7/6 503/7/6
f 503/7/6 500/7/6 504/7/6
f 501/7/6 502/7/6 505/7/6
f 505/7/6 502/7/6 506/7/6
f 507/7/6 508/7/6 511/7/6
f 511/7/6 508/7/6 512/7/6
f 509/7/6 510/7/6 513/7/6
f 513/7/6 510/7/6 514/7/6
f 515/9/6 516/9/6 519/9/6
f 516/8/6 517/8/6 520/8/6
f 519/9/6 516/9/6 520/9/6
f 517/9/6 518/9/6 521/9/6
f 520/8/6 517/8/6 521/8/6
f 521/9/6 518/9/6 522/9/6
f 519/8/6 520/8/6 523/8/6
f 520/8/6 521/8/6 523/8/6
f 521/8/6 522/8/6 523/8/6
f 523/8/6 522/8/6 524/8/6
f 524/8/6 522/8/6 525/8/6
f 525/8/6 522/8/6 526/8/6
f 527/10/6 528/10/6 531/10/6
f 528/8/6 529/8/6 532/8/6
f 531/10/6 528/10/6 532/10/6
f 529/10/6 530/10/6 533/10/6
f 532/8/6 529/8/6 533/8/6
f 533/10/6 530/10/6 534/10/6
f 535/8/6 536/8/6 539/8/6
f 539/8/6 536/8/6 540/8/6
f 536/7/6 537/7/6 541/7/6
f 540/8/6 536/8/6 541/8/6
f 537/8/6 538/8/6 542/8/6
f 541/7/6 537/7/6 542/7/6
f 542/8/6 538/8/6 543/8/6
f 543/8/6 538/8/6 544/8/6
f 545/8/6 546/8/6 549/8/6
f 546/7/6 547/7/6 550/7/6
f 549/8/6 546/8/6 550/8/6
f 547/8/6 548/8/6 551/8/6
f 550/7/6 547/7/6 551/7/6
f 551/8/6 548/8/6 552/8/6
f 553/8/6 554/8/6 557/8/6
f 554/7/6 555/7/6 558/7/6
f 557/8/6 554/8/6 558/8/6
f 555/8/6 556/8/6 559/8/6
f 558/7/6 555/7/6 559/7/6
f 559/8/6 556/8/6 560/8/6
f 561/8/6 562/8/6 565/8/6
f 562/7/6 563/7/6 566/7/6
f 565/8/6 562/8/6 566/8/6
f 563/8/6 564/8/6 567/8/6
f 566/7/6 563/7/6 567/7/6
f 567/8/6 564/8/6 568/8/6
f 569/8/6 570/8/6 571/8/6
f 571/8/6 570/8/6 572/8/6
