# MagicaVoxel @ Ephtracy

# group
o 

# material
mtllib partediario.1.mtl
usemtl palette

# normals
vn -1 0 0
vn 1 0 0
vn 0 0 1
vn 0 0 -1
vn 0 -1 0
vn 0 1 0

# texcoords
vt 0.0957031 0.5
vt 0.0996094 0.5
vt 0.103516 0.5

# verts
v 0 2 0
v 0 2 -0.2
v 0 2.1 0
v 0 2.1 -0.1
v 0 2.1 -0.2
v 0 2.1 -0.3
v 0 2.2 0
v 0 2.2 -0.1
v 0 2.2 -0.2
v 0 2.2 -0.3
v 0 2.4 0
v 0 2.4 -0.1
v 0 2.4 -0.2
v 0 2.4 -0.3
v 0 2.5 0
v 0 2.5 -0.1
v 0 2.5 -0.2
v 0 2.5 -0.3
v 0 2.6 0
v 0 2.6 -0.2
v 0.4 2 0
v 0.4 2 -0.2
v 0.4 2.1 0
v 0.4 2.1 -0.1
v 0.4 2.1 -0.2
v 0.4 2.1 -0.3
v 0.4 2.2 0
v 0.4 2.2 -0.1
v 0.4 2.2 -0.2
v 0.4 2.2 -0.3
v 0.4 2.4 0
v 0.4 2.4 -0.1
v 0.4 2.4 -0.2
v 0.4 2.4 -0.3
v 0.4 2.5 0
v 0.4 2.5 -0.1
v 0.4 2.5 -0.2
v 0.4 2.5 -0.3
v 0.4 2.6 0
v 0.4 2.6 -0.2
v 0 2 0
v 0 2.1 0
v 0 2.2 0
v 0 2.4 0
v 0 2.5 0
v 0 2.6 0
v 0.1 2 0
v 0.1 2.1 0
v 0.1 2.2 0
v 0.1 2.4 0
v 0.1 2.5 0
v 0.1 2.6 0
v 0.3 2 0
v 0.3 2.1 0
v 0.3 2.2 0
v 0.3 2.4 0
v 0.3 2.5 0
v 0.3 2.6 0
v 0.4 2 0
v 0.4 2.1 0
v 0.4 2.2 0
v 0.4 2.4 0
v 0.4 2.5 0
v 0.4 2.6 0
v 0 2.1 -0.2
v 0 2.2 -0.2
v 0 2.4 -0.2
v 0 2.5 -0.2
v 0.1 2.1 -0.2
v 0.1 2.2 -0.2
v 0.1 2.4 -0.2
v 0.1 2.5 -0.2
v 0.3 2.1 -0.2
v 0.3 2.2 -0.2
v 0.3 2.4 -0.2
v 0.3 2.5 -0.2
v 0.4 2.1 -0.2
v 0.4 2.2 -0.2
v 0.4 2.4 -0.2
v 0.4 2.5 -0.2
v 0 2.1 -0.1
v 0 2.2 -0.1
v 0 2.4 -0.1
v 0 2.5 -0.1
v 0.1 2.1 -0.1
v 0.1 2.2 -0.1
v 0.1 2.4 -0.1
v 0.1 2.5 -0.1
v 0.3 2.1 -0.1
v 0.3 2.2 -0.1
v 0.3 2.4 -0.1
v 0.3 2.5 -0.1
v 0.4 2.1 -0.1
v 0.4 2.2 -0.1
v 0.4 2.4 -0.1
v 0.4 2.5 -0.1
v 0 2 -0.2
v 0 2.1 -0.2
v 0 2.5 -0.2
v 0 2.6 -0.2
v 0.1 2 -0.2
v 0.1 2.1 -0.2
v 0.1 2.5 -0.2
v 0.1 2.6 -0.2
v 0.3 2 -0.2
v 0.3 2.1 -0.2
v 0.3 2.5 -0.2
v 0.3 2.6 -0.2
v 0.4 2 -0.2
v 0.4 2.1 -0.2
v 0.4 2.5 -0.2
v 0.4 2.6 -0.2
v 0 2.1 -0.3
v 0 2.2 -0.3
v 0 2.4 -0.3
v 0 2.5 -0.3
v 0.1 2.1 -0.3
v 0.1 2.2 -0.3
v 0.1 2.4 -0.3
v 0.1 2.5 -0.3
v 0.3 2.1 -0.3
v 0.3 2.2 -0.3
v 0.3 2.4 -0.3
v 0.3 2.5 -0.3
v 0.4 2.1 -0.3
v 0.4 2.2 -0.3
v 0.4 2.4 -0.3
v 0.4 2.5 -0.3
v 0 2 0
v 0.1 2 0
v 0.3 2 0
v 0.4 2 0
v 0 2 -0.2
v 0.1 2 -0.2
v 0.3 2 -0.2
v 0.4 2 -0.2
v 0 2.1 -0.2
v 0.1 2.1 -0.2
v 0.3 2.1 -0.2
v 0.4 2.1 -0.2
v 0 2.1 -0.3
v 0.1 2.1 -0.3
v 0.3 2.1 -0.3
v 0.4 2.1 -0.3
v 0 2.4 -0.2
v 0.1 2.4 -0.2
v 0.3 2.4 -0.2
v 0.4 2.4 -0.2
v 0 2.4 -0.3
v 0.1 2.4 -0.3
v 0.3 2.4 -0.3
v 0.4 2.4 -0.3
v 0 2.5 -0.1
v 0.1 2.5 -0.1
v 0.3 2.5 -0.1
v 0.4 2.5 -0.1
v 0 2.5 -0.2
v 0.1 2.5 -0.2
v 0.3 2.5 -0.2
v 0.4 2.5 -0.2
v 0 2.1 -0.1
v 0.1 2.1 -0.1
v 0.3 2.1 -0.1
v 0.4 2.1 -0.1
v 0 2.1 -0.2
v 0.1 2.1 -0.2
v 0.3 2.1 -0.2
v 0.4 2.1 -0.2
v 0 2.2 -0.2
v 0.1 2.2 -0.2
v 0.3 2.2 -0.2
v 0.4 2.2 -0.2
v 0 2.2 -0.3
v 0.1 2.2 -0.3
v 0.3 2.2 -0.3
v 0.4 2.2 -0.3
v 0 2.5 -0.2
v 0.1 2.5 -0.2
v 0.3 2.5 -0.2
v 0.4 2.5 -0.2
v 0 2.5 -0.3
v 0.1 2.5 -0.3
v 0.3 2.5 -0.3
v 0.4 2.5 -0.3
v 0 2.6 0
v 0.1 2.6 0
v 0.3 2.6 0
v 0.4 2.6 0
v 0 2.6 -0.2
v 0.1 2.6 -0.2
v 0.3 2.6 -0.2
v 0.4 2.6 -0.2

# faces
f 3/3/1 2/3/1 1/3/1
f 4/3/1 2/3/1 3/3/1
f 5/3/1 2/3/1 4/3/1
f 7/1/1 4/1/1 3/1/1
f 8/1/1 4/1/1 7/1/1
f 9/3/1 6/3/1 5/3/1
f 10/3/1 6/3/1 9/3/1
f 11/3/1 8/3/1 7/3/1
f 12/3/1 8/3/1 11/3/1
f 15/1/1 12/1/1 11/1/1
f 16/1/1 12/1/1 15/1/1
f 17/3/1 14/3/1 13/3/1
f 18/3/1 14/3/1 17/3/1
f 19/3/1 16/3/1 15/3/1
f 19/3/1 17/3/1 16/3/1
f 20/3/1 17/3/1 19/3/1
f 21/3/2 22/3/2 23/3/2
f 23/3/2 22/3/2 24/3/2
f 24/3/2 22/3/2 25/3/2
f 23/1/2 24/1/2 27/1/2
f 27/1/2 24/1/2 28/1/2
f 25/3/2 26/3/2 29/3/2
f 29/3/2 26/3/2 30/3/2
f 27/3/2 28/3/2 31/3/2
f 31/3/2 28/3/2 32/3/2
f 31/1/2 32/1/2 35/1/2
f 35/1/2 32/1/2 36/1/2
f 33/3/2 34/3/2 37/3/2
f 37/3/2 34/3/2 38/3/2
f 35/3/2 36/3/2 39/3/2
f 36/3/2 37/3/2 39/3/2
f 39/3/2 37/3/2 40/3/2
f 47/3/3 42/3/3 41/3/3
f 48/1/3 43/1/3 42/1/3
f 48/3/3 42/3/3 47/3/3
f 49/3/3 44/3/3 43/3/3
f 49/1/3 43/1/3 48/1/3
f 50/1/3 45/1/3 44/1/3
f 50/3/3 44/3/3 49/3/3
f 51/3/3 46/3/3 45/3/3
f 51/1/3 45/1/3 50/1/3
f 52/3/3 46/3/3 51/3/3
f 53/1/3 48/1/3 47/1/3
f 54/2/3 50/2/3 49/2/3
f 54/1/3 48/1/3 53/1/3
f 54/2/3 49/2/3 48/2/3
f 54/2/3 51/2/3 50/2/3
f 55/2/3 51/2/3 54/2/3
f 56/2/3 51/2/3 55/2/3
f 57/1/3 52/1/3 51/1/3
f 57/2/3 51/2/3 56/2/3
f 58/1/3 52/1/3 57/1/3
f 59/3/3 54/3/3 53/3/3
f 60/1/3 55/1/3 54/1/3
f 60/3/3 54/3/3 59/3/3
f 61/3/3 56/3/3 55/3/3
f 61/1/3 55/1/3 60/1/3
f 62/1/3 57/1/3 56/1/3
f 62/3/3 56/3/3 61/3/3
f 63/3/3 58/3/3 57/3/3
f 63/1/3 57/1/3 62/1/3
f 64/3/3 58/3/3 63/3/3
f 69/3/3 66/3/3 65/3/3
f 70/3/3 66/3/3 69/3/3
f 71/3/3 68/3/3 67/3/3
f 72/3/3 68/3/3 71/3/3
f 73/1/3 70/1/3 69/1/3
f 74/1/3 70/1/3 73/1/3
f 75/1/3 72/1/3 71/1/3
f 76/1/3 72/1/3 75/1/3
f 77/3/3 74/3/3 73/3/3
f 78/3/3 74/3/3 77/3/3
f 79/3/3 76/3/3 75/3/3
f 80/3/3 76/3/3 79/3/3
f 81/1/4 82/1/4 85/1/4
f 82/3/4 83/3/4 86/3/4
f 85/1/4 82/1/4 86/1/4
f 83/1/4 84/1/4 87/1/4
f 86/3/4 83/3/4 87/3/4
f 87/1/4 84/1/4 88/1/4
f 85/2/4 86/2/4 89/2/4
f 86/2/4 87/2/4 89/2/4
f 87/2/4 88/2/4 89/2/4
f 89/2/4 88/2/4 90/2/4
f 90/2/4 88/2/4 91/2/4
f 91/2/4 88/2/4 92/2/4
f 89/1/4 90/1/4 93/1/4
f 90/3/4 91/3/4 94/3/4
f 93/1/4 90/1/4 94/1/4
f 91/1/4 92/1/4 95/1/4
f 94/3/4 91/3/4 95/3/4
f 95/1/4 92/1/4 96/1/4
f 97/3/4 98/3/4 101/3/4
f 101/3/4 98/3/4 102/3/4
f 99/3/4 100/3/4 103/3/4
f 103/3/4 100/3/4 104/3/4
f 101/1/4 102/1/4 105/1/4
f 105/1/4 102/1/4 106/1/4
f 103/1/4 104/1/4 107/1/4
f 107/1/4 104/1/4 108/1/4
f 105/3/4 106/3/4 109/3/4
f 109/3/4 106/3/4 110/3/4
f 107/3/4 108/3/4 111/3/4
f 111/3/4 108/3/4 112/3/4
f 113/3/4 114/3/4 117/3/4
f 117/3/4 114/3/4 118/3/4
f 115/3/4 116/3/4 119/3/4
f 119/3/4 116/3/4 120/3/4
f 117/1/4 118/1/4 121/1/4
f 121/1/4 118/1/4 122/1/4
f 119/1/4 120/1/4 123/1/4
f 123/1/4 120/1/4 124/1/4
f 121/3/4 122/3/4 125/3/4
f 125/3/4 122/3/4 126/3/4
f 123/3/4 124/3/4 127/3/4
f 127/3/4 124/3/4 128/3/4
f 133/3/5 130/3/5 129/3/5
f 134/1/5 131/1/5 130/1/5
f 134/3/5 130/3/5 133/3/5
f 135/3/5 132/3/5 131/3/5
f 135/1/5 131/1/5 134/1/5
f 136/3/5 132/3/5 135/3/5
f 141/3/5 138/3/5 137/3/5
f 142/1/5 139/1/5 138/1/5
f 142/3/5 138/3/5 141/3/5
f 143/3/5 140/3/5 139/3/5
f 143/1/5 139/1/5 142/1/5
f 144/3/5 140/3/5 143/3/5
f 149/3/5 146/3/5 145/3/5
f 150/1/5 147/1/5 146/1/5
f 150/3/5 146/3/5 149/3/5
f 151/3/5 148/3/5 147/3/5
f 151/1/5 147/1/5 150/1/5
f 152/3/5 148/3/5 151/3/5
f 157/3/5 154/3/5 153/3/5
f 158/1/5 155/1/5 154/1/5
f 158/3/5 154/3/5 157/3/5
f 159/3/5 156/3/5 155/3/5
f 159/1/5 155/1/5 158/1/5
f 160/3/5 156/3/5 159/3/5
f 161/3/6 162/3/6 165/3/6
f 162/1/6 163/1/6 166/1/6
f 165/3/6 162/3/6 166/3/6
f 163/3/6 164/3/6 167/3/6
f 166/1/6 163/1/6 167/1/6
f 167/3/6 164/3/6 168/3/6
f 169/3/6 170/3/6 173/3/6
f 170/1/6 171/1/6 174/1/6
f 173/3/6 170/3/6 174/3/6
f 171/3/6 172/3/6 175/3/6
f 174/1/6 171/1/6 175/1/6
f 175/3/6 172/3/6 176/3/6
f 177/3/6 178/3/6 181/3/6
f 178/1/6 179/1/6 182/1/6
f 181/3/6 178/3/6 182/3/6
f 179/3/6 180/3/6 183/3/6
f 182/1/6 179/1/6 183/1/6
f 183/3/6 180/3/6 184/3/6
f 185/3/6 186/3/6 189/3/6
f 186/1/6 187/1/6 190/1/6
f 189/3/6 186/3/6 190/3/6
f 187/3/6 188/3/6 191/3/6
f 190/1/6 187/1/6 191/1/6
f 191/3/6 188/3/6 192/3/6
