# MagicaVoxel @ Ephtracy

# group
o navedelantera

# material
mtllib escena nave interior-3-navedelantera.mtl
usemtl palette

# normals
vn 1 0 0
vn -1 0 0
vn 0 0 -1
vn 0 0 1
vn 0 -1 0
vn 0 1 0

# texcoords
vt 0.826172 0.5
vt 0.884766 0.5
vt 0.955078 0.5

# verts
v 7 0 -5.8
v 7 0 -4.7
v 7 0 -4.6
v 7 0.1 -5.9
v 7 0.1 -5.8
v 7 0.2 -6
v 7 0.2 -5.9
v 7 0.8 -6
v 7 0.8 -5.9
v 7 1.2 -6
v 7 1.2 -5.9
v 7 1.5 -6
v 7 1.5 -5.9
v 7 1.6 -5.9
v 7 1.6 -5.8
v 7 1.7 -5.8
v 7 1.7 -5.7
v 7 1.8 -5.7
v 7 1.8 -5.6
v 7 1.9 -5.6
v 7 1.9 -5.5
v 7 2 -5.5
v 7 2 -5.4
v 7 2.1 -5.4
v 7 2.1 -5.3
v 7 2.2 -5.3
v 7 2.2 -4.7
v 7 2.2 -4.6
v -4.2 0 -5.8
v -4.2 0 -4.6
v -4.2 0.1 -5.9
v -4.2 0.1 -5.8
v -4.2 0.2 -6
v -4.2 0.2 -5.9
v -4.2 0.4 -4.7
v -4.2 0.4 -4.6
v -4.2 0.8 -6
v -4.2 0.8 -5.9
v -4.2 1.2 -6
v -4.2 1.2 -5.9
v -4.2 1.5 -6
v -4.2 1.5 -5.9
v -4.2 1.6 -5.9
v -4.2 1.6 -5.8
v -4.2 1.7 -5.8
v -4.2 1.7 -5.7
v -4.2 1.8 -5.7
v -4.2 1.8 -5.6
v -4.2 1.9 -5.6
v -4.2 1.9 -5.5
v -4.2 2 -5.5
v -4.2 2 -5.4
v -4.2 2.1 -5.4
v -4.2 2.1 -5.3
v -4.2 2.2 -5.3
v -4.2 2.2 -4.7
v -4.2 2.2 -4.6
v 7 0.2 -6
v 7 0.8 -6
v 7 1.2 -6
v 7 1.5 -6
v -4.2 0.2 -6
v -4.2 0.8 -6
v -4.2 1.2 -6
v -4.2 1.5 -6
v 7 0.1 -5.9
v 7 0.2 -5.9
v 7 1.5 -5.9
v 7 1.6 -5.9
v -4.2 0.1 -5.9
v -4.2 0.2 -5.9
v -4.2 1.5 -5.9
v -4.2 1.6 -5.9
v 7 0 -5.8
v 7 0.1 -5.8
v 7 1.6 -5.8
v 7 1.7 -5.8
v -4.2 0 -5.8
v -4.2 0.1 -5.8
v -4.2 1.6 -5.8
v -4.2 1.7 -5.8
v 7 1.7 -5.7
v 7 1.8 -5.7
v -4.2 1.7 -5.7
v -4.2 1.8 -5.7
v 7 1.8 -5.6
v 7 1.9 -5.6
v -4.2 1.8 -5.6
v -4.2 1.9 -5.6
v 7 1.9 -5.5
v 7 2 -5.5
v -4.2 1.9 -5.5
v -4.2 2 -5.5
v 7 2 -5.4
v 7 2.1 -5.4
v -4.2 2 -5.4
v -4.2 2.1 -5.4
v 7 2.1 -5.3
v 7 2.2 -5.3
v -4.2 2.1 -5.3
v -4.2 2.2 -5.3
v 7 0 -4.6
v 7 2.2 -4.6
v -4.1 0 -4.6
v -4.1 0.4 -4.6
v -4.2 0 -4.6
v -4.2 0.4 -4.6
v -4.2 2.2 -4.6
v 7 0 -5.8
v -4.2 0 -5.8
v 7 0 -4.7
v -4.1 0 -4.7
v 7 0 -4.6
v -4.1 0 -4.6
v -4.2 0 -4.6
v 7 0.1 -5.9
v -4.2 0.1 -5.9
v 7 0.1 -5.8
v -4.2 0.1 -5.8
v 7 0.2 -6
v -4.2 0.2 -6
v 7 0.2 -5.9
v -4.2 0.2 -5.9
v 7 1.5 -6
v -4.2 1.5 -6
v 7 1.5 -5.9
v -4.2 1.5 -5.9
v 7 1.6 -5.9
v -4.2 1.6 -5.9
v 7 1.6 -5.8
v -4.2 1.6 -5.8
v 7 1.7 -5.8
v -4.2 1.7 -5.8
v 7 1.7 -5.7
v -4.2 1.7 -5.7
v 7 1.8 -5.7
v -4.2 1.8 -5.7
v 7 1.8 -5.6
v -4.2 1.8 -5.6
v 7 1.9 -5.6
v -4.2 1.9 -5.6
v 7 1.9 -5.5
v -4.2 1.9 -5.5
v 7 2 -5.5
v -4.2 2 -5.5
v 7 2 -5.4
v -4.2 2 -5.4
v 7 2.1 -5.4
v -4.2 2.1 -5.4
v 7 2.1 -5.3
v -4.2 2.1 -5.3
v 7 2.2 -5.3
v -4.2 2.2 -5.3
v 7 2.2 -4.7
v -4.2 2.2 -4.7
v 7 2.2 -4.6
v -4.2 2.2 -4.6

# faces
f 5/2/1 2/2/1 1/2/1
f 7/2/1 5/2/1 4/2/1
f 8/2/1 7/2/1 6/2/1
f 9/2/1 5/2/1 7/2/1
f 9/2/1 7/2/1 8/2/1
f 10/3/1 9/3/1 8/3/1
f 11/2/1 5/2/1 9/2/1
f 11/3/1 9/3/1 10/3/1
f 12/2/1 11/2/1 10/2/1
f 13/2/1 5/2/1 11/2/1
f 13/2/1 11/2/1 12/2/1
f 14/2/1 5/2/1 13/2/1
f 15/2/1 2/2/1 5/2/1
f 15/2/1 5/2/1 14/2/1
f 16/2/1 2/2/1 15/2/1
f 17/2/1 2/2/1 16/2/1
f 18/2/1 2/2/1 17/2/1
f 19/2/1 2/2/1 18/2/1
f 20/2/1 2/2/1 19/2/1
f 21/2/1 2/2/1 20/2/1
f 22/2/1 2/2/1 21/2/1
f 23/2/1 2/2/1 22/2/1
f 24/2/1 2/2/1 23/2/1
f 25/2/1 2/2/1 24/2/1
f 26/2/1 2/2/1 25/2/1
f 27/1/1 3/1/1 2/1/1
f 27/2/1 2/2/1 26/2/1
f 28/1/1 3/1/1 27/1/1
f 29/2/2 30/2/2 32/2/2
f 31/2/2 32/2/2 34/2/2
f 32/2/2 30/2/2 35/2/2
f 33/2/2 34/2/2 35/2/2
f 34/2/2 32/2/2 35/2/2
f 35/2/2 30/2/2 36/2/2
f 33/2/2 35/2/2 37/2/2
f 37/2/2 35/2/2 38/2/2
f 37/3/2 38/3/2 39/3/2
f 38/2/2 35/2/2 40/2/2
f 39/3/2 38/3/2 40/3/2
f 39/2/2 40/2/2 41/2/2
f 40/2/2 35/2/2 42/2/2
f 41/2/2 40/2/2 42/2/2
f 42/2/2 35/2/2 43/2/2
f 43/2/2 35/2/2 44/2/2
f 44/2/2 35/2/2 45/2/2
f 45/2/2 35/2/2 46/2/2
f 46/2/2 35/2/2 47/2/2
f 47/2/2 35/2/2 48/2/2
f 48/2/2 35/2/2 49/2/2
f 49/2/2 35/2/2 50/2/2
f 50/2/2 35/2/2 51/2/2
f 51/2/2 35/2/2 52/2/2
f 52/2/2 35/2/2 53/2/2
f 53/2/2 35/2/2 54/2/2
f 54/2/2 35/2/2 55/2/2
f 35/1/2 36/1/2 56/1/2
f 55/2/2 35/2/2 56/2/2
f 56/1/2 36/1/2 57/1/2
f 62/2/3 59/2/3 58/2/3
f 63/3/3 60/3/3 59/3/3
f 63/2/3 59/2/3 62/2/3
f 64/2/3 61/2/3 60/2/3
f 64/3/3 60/3/3 63/3/3
f 65/2/3 61/2/3 64/2/3
f 70/2/3 67/2/3 66/2/3
f 71/2/3 67/2/3 70/2/3
f 72/2/3 69/2/3 68/2/3
f 73/2/3 69/2/3 72/2/3
f 78/2/3 75/2/3 74/2/3
f 79/2/3 75/2/3 78/2/3
f 80/2/3 77/2/3 76/2/3
f 81/2/3 77/2/3 80/2/3
f 84/2/3 83/2/3 82/2/3
f 85/2/3 83/2/3 84/2/3
f 88/2/3 87/2/3 86/2/3
f 89/2/3 87/2/3 88/2/3
f 92/2/3 91/2/3 90/2/3
f 93/2/3 91/2/3 92/2/3
f 96/2/3 95/2/3 94/2/3
f 97/2/3 95/2/3 96/2/3
f 100/2/3 99/2/3 98/2/3
f 101/2/3 99/2/3 100/2/3
f 102/1/4 103/1/4 104/1/4
f 104/1/4 103/1/4 105/1/4
f 104/2/4 105/2/4 106/2/4
f 105/1/4 103/1/4 107/1/4
f 106/2/4 105/2/4 107/2/4
f 107/1/4 103/1/4 108/1/4
f 111/2/5 110/2/5 109/2/5
f 112/2/5 110/2/5 111/2/5
f 113/1/5 112/1/5 111/1/5
f 114/2/5 110/2/5 112/2/5
f 114/1/5 112/1/5 113/1/5
f 115/2/5 110/2/5 114/2/5
f 118/2/5 117/2/5 116/2/5
f 119/2/5 117/2/5 118/2/5
f 122/2/5 121/2/5 120/2/5
f 123/2/5 121/2/5 122/2/5
f 124/2/6 125/2/6 126/2/6
f 126/2/6 125/2/6 127/2/6
f 128/2/6 129/2/6 130/2/6
f 130/2/6 129/2/6 131/2/6
f 132/2/6 133/2/6 134/2/6
f 134/2/6 133/2/6 135/2/6
f 136/2/6 137/2/6 138/2/6
f 138/2/6 137/2/6 139/2/6
f 140/2/6 141/2/6 142/2/6
f 142/2/6 141/2/6 143/2/6
f 144/2/6 145/2/6 146/2/6
f 146/2/6 145/2/6 147/2/6
f 148/2/6 149/2/6 150/2/6
f 150/2/6 149/2/6 151/2/6
f 152/2/6 153/2/6 154/2/6
f 154/2/6 153/2/6 155/2/6
f 154/1/6 155/1/6 156/1/6
f 156/1/6 155/1/6 157/1/6
