# MagicaVoxel @ Ephtracy

# group
o navedelantera

# material
mtllib escena nave interior-5-navedelantera.mtl
usemtl palette

# normals
vn 1 0 0
vn -1 0 0
vn 0 0 -1
vn 0 0 1
vn 0 -1 0
vn 0 1 0

# texcoords
vt 0.306641 0.5
vt 0.826172 0.5
vt 0.884766 0.5
vt 0.955078 0.5

# verts
v 18.6 1.1 -4
v 18.6 1.1 4
v 18.6 1.4 -4
v 18.6 1.4 4
v 18.5 1 -4.1
v 18.5 1 4.1
v 18.5 1.1 -4
v 18.5 1.1 4
v 18.5 1.4 -4
v 18.5 1.4 4
v 18.5 1.5 -4.1
v 18.5 1.5 4.1
v 18.4 1 -4.2
v 18.4 1 -4.1
v 18.4 1 4.1
v 18.4 1 4.2
v 18.4 1.5 -4.2
v 18.4 1.5 -4.1
v 18.4 1.5 4.1
v 18.4 1.5 4.2
v 18.3 1 -4.3
v 18.3 1 -4.2
v 18.3 1 4.2
v 18.3 1 4.3
v 18.3 1.5 -4.3
v 18.3 1.5 -4.2
v 18.3 1.5 4.2
v 18.3 1.5 4.3
v 18.2 0.8 -4.4
v 18.2 0.8 4.4
v 18.2 1 -4.3
v 18.2 1 4.3
v 18.2 1.5 -4.3
v 18.2 1.5 4.3
v 18.2 1.6 -4.4
v 18.2 1.6 4.4
v 18.1 0.8 -4.5
v 18.1 0.8 -4.4
v 18.1 0.8 4.4
v 18.1 0.8 4.5
v 18.1 1.6 -4.5
v 18.1 1.6 -4.4
v 18.1 1.6 4.4
v 18.1 1.6 4.5
v 18 0.8 -4.6
v 18 0.8 -4.5
v 18 0.8 4.5
v 18 0.8 4.6
v 18 1.6 -4.6
v 18 1.6 -4.5
v 18 1.6 4.5
v 18 1.6 4.6
v 17.9 0.7 -4.7
v 17.9 0.7 4.7
v 17.9 0.8 -4.6
v 17.9 0.8 4.6
v 17.9 1.6 -4.6
v 17.9 1.6 4.6
v 17.9 1.7 -4.7
v 17.9 1.7 4.7
v 17.8 0.7 -4.8
v 17.8 0.7 -4.7
v 17.8 0.7 4.7
v 17.8 0.7 4.8
v 17.8 1.7 -4.8
v 17.8 1.7 -4.7
v 17.8 1.7 4.7
v 17.8 1.7 4.8
v 17.7 0.7 -4.9
v 17.7 0.7 -4.8
v 17.7 0.7 4.8
v 17.7 0.7 4.9
v 17.7 1.7 -4.9
v 17.7 1.7 -4.8
v 17.7 1.7 4.8
v 17.7 1.7 4.9
v 17.6 0.6 -5
v 17.6 0.6 5
v 17.6 0.7 -4.9
v 17.6 0.7 4.9
v 17.6 1.7 -4.9
v 17.6 1.7 4.9
v 17.6 1.8 -5
v 17.6 1.8 5
v 17.5 0.6 -5.1
v 17.5 0.6 -5
v 17.5 0.6 5
v 17.5 0.6 5.1
v 17.5 1.8 -5.1
v 17.5 1.8 -5
v 17.5 1.8 5
v 17.5 1.8 5.1
v 17.4 0.6 -5.2
v 17.4 0.6 -5.1
v 17.4 0.6 5.1
v 17.4 0.6 5.2
v 17.4 1.8 -5.2
v 17.4 1.8 -5.1
v 17.4 1.8 5.1
v 17.4 1.8 5.2
v 17.3 0.5 -5.3
v 17.3 0.5 5.3
v 17.3 0.6 -5.2
v 17.3 0.6 5.2
v 17.3 1.8 -5.2
v 17.3 1.8 5.2
v 17.3 1.9 -5.3
v 17.3 1.9 5.3
v 17.2 0.5 -5.4
v 17.2 0.5 -5.3
v 17.2 0.5 5.3
v 17.2 0.5 5.4
v 17.2 1.9 -5.4
v 17.2 1.9 -5.3
v 17.2 1.9 5.3
v 17.2 1.9 5.4
v 17.1 0.5 -5.5
v 17.1 0.5 -5.4
v 17.1 0.5 5.4
v 17.1 0.5 5.5
v 17.1 1.9 -5.5
v 17.1 1.9 -5.4
v 17.1 1.9 5.4
v 17.1 1.9 5.5
v 17 0.4 -5.6
v 17 0.4 5.6
v 17 0.5 -5.5
v 17 0.5 5.5
v 17 1.9 -5.6
v 17 1.9 -5.5
v 17 1.9 5.5
v 17 1.9 5.6
v 17 2 -5.5
v 17 2 5.5
v 16.9 0.4 -5.7
v 16.9 0.4 -5.6
v 16.9 0.4 5.6
v 16.9 0.4 5.7
v 16.9 1.8 -5.7
v 16.9 1.8 -5.6
v 16.9 1.8 5.6
v 16.9 1.8 5.7
v 16.8 0.4 -5.8
v 16.8 0.4 -5.7
v 16.8 0.4 5.7
v 16.8 0.4 5.8
v 16.8 1.7 -5.8
v 16.8 1.7 -5.7
v 16.8 1.7 5.7
v 16.8 1.7 5.8
v 16.7 0.3 -5.9
v 16.7 0.3 5.9
v 16.7 0.4 -5.8
v 16.7 0.4 5.8
v 16.7 1.6 -5.9
v 16.7 1.6 -5.8
v 16.7 1.6 5.8
v 16.7 1.6 5.9
v 16.7 2 -5.4
v 16.7 2 5.4
v 16.7 2.1 -5.4
v 16.7 2.1 5.4
v 16.6 0.2 -6
v 16.6 0.2 5.9
v 16.6 0.3 -5.9
v 16.6 0.3 5.9
v 16.6 0.3 6
v 16.6 0.8 -6
v 16.6 0.8 -5.9
v 16.6 0.8 5.9
v 16.6 0.8 6
v 16.6 1.2 -6
v 16.6 1.2 -5.9
v 16.6 1.2 5.9
v 16.6 1.2 6
v 16.6 1.5 -6
v 16.6 1.5 -5.9
v 16.6 1.5 5.9
v 16.6 1.5 6
v 16.5 0.2 5.9
v 16.5 0.2 6
v 16.5 0.3 5.9
v 16.5 0.3 6
v 16.4 0.1 -5.9
v 16.4 0.1 5.9
v 16.4 0.2 -5.9
v 16.4 0.2 5.9
v 16.4 2.1 -5.3
v 16.4 2.1 5.3
v 16.4 2.2 -5.3
v 16.4 2.2 5.3
v 16.3 0 -5.8
v 16.3 0 5.8
v 16.3 0.1 -5.8
v 16.3 0.1 5.8
v 15.5 0 -5.8
v 15.5 0 5.8
v 15.5 0.1 -5.9
v 15.5 0.1 -5.8
v 15.5 0.1 5.8
v 15.5 0.1 5.9
v 15.5 0.2 -6
v 15.5 0.2 -5.9
v 15.5 0.2 -5.8
v 15.5 0.2 5.8
v 15.5 0.2 5.9
v 15.5 0.2 6
v 15.5 0.8 -6
v 15.5 0.8 -5.9
v 15.5 0.8 5.9
v 15.5 0.8 6
v 15.5 1.2 -6
v 15.5 1.2 -5.9
v 15.5 1.2 5.9
v 15.5 1.2 6
v 15.5 1.5 -6
v 15.5 1.5 -5.9
v 15.5 1.5 -5.8
v 15.5 1.5 5.8
v 15.5 1.5 5.9
v 15.5 1.5 6
v 15.5 1.6 -5.9
v 15.5 1.6 -5.8
v 15.5 1.6 -5.7
v 15.5 1.6 5.7
v 15.5 1.6 5.8
v 15.5 1.6 5.9
v 15.5 1.7 -5.8
v 15.5 1.7 -5.7
v 15.5 1.7 -5.6
v 15.5 1.7 5.6
v 15.5 1.7 5.7
v 15.5 1.7 5.8
v 15.5 1.8 -5.7
v 15.5 1.8 -5.6
v 15.5 1.8 -5.5
v 15.5 1.8 5.5
v 15.5 1.8 5.6
v 15.5 1.8 5.7
v 15.5 1.9 -5.6
v 15.5 1.9 -5.5
v 15.5 1.9 -5.4
v 15.5 1.9 5.4
v 15.5 1.9 5.5
v 15.5 1.9 5.6
v 15.5 2 -5.5
v 15.5 2 -5.4
v 15.5 2 -5.3
v 15.5 2 5.3
v 15.5 2 5.4
v 15.5 2 5.5
v 15.5 2.1 -5.4
v 15.5 2.1 -5.3
v 15.5 2.1 5.3
v 15.5 2.1 5.4
v 15.5 2.2 -5.3
v 15.5 2.2 5.3
v 16.6 0.2 -6
v 16.6 0.8 -6
v 16.6 1.2 -6
v 16.6 1.5 -6
v 15.5 0.2 -6
v 15.5 0.8 -6
v 15.5 1.2 -6
v 15.5 1.5 -6
v 16.7 0.3 -5.9
v 16.7 1.6 -5.9
v 16.6 0.3 -5.9
v 16.6 0.8 -5.9
v 16.6 1.2 -5.9
v 16.6 1.5 -5.9
v 16.4 0.1 -5.9
v 16.4 0.2 -5.9
v 15.5 0.1 -5.9
v 15.5 0.2 -5.9
v 15.5 1.5 -5.9
v 15.5 1.6 -5.9
v 16.8 0.4 -5.8
v 16.8 1.7 -5.8
v 16.7 0.4 -5.8
v 16.7 1.6 -5.8
v 16.3 0 -5.8
v 16.3 0.1 -5.8
v 15.5 0 -5.8
v 15.5 0.1 -5.8
v 15.5 1.6 -5.8
v 15.5 1.7 -5.8
v 16.9 0.4 -5.7
v 16.9 1.8 -5.7
v 16.8 0.4 -5.7
v 16.8 1.7 -5.7
v 15.5 1.7 -5.7
v 15.5 1.8 -5.7
v 17 0.4 -5.6
v 17 1.9 -5.6
v 16.9 0.4 -5.6
v 16.9 1.8 -5.6
v 15.5 1.8 -5.6
v 15.5 1.9 -5.6
v 17.1 0.5 -5.5
v 17.1 1.9 -5.5
v 17 0.5 -5.5
v 17 1.9 -5.5
v 17 2 -5.5
v 15.5 1.9 -5.5
v 15.5 2 -5.5
v 17.2 0.5 -5.4
v 17.2 1.9 -5.4
v 17.1 0.5 -5.4
v 17.1 1.9 -5.4
v 16.7 2 -5.4
v 16.7 2.1 -5.4
v 15.5 2 -5.4
v 15.5 2.1 -5.4
v 17.3 0.5 -5.3
v 17.3 1.9 -5.3
v 17.2 0.5 -5.3
v 17.2 1.9 -5.3
v 16.4 2.1 -5.3
v 16.4 2.2 -5.3
v 15.5 2.1 -5.3
v 15.5 2.2 -5.3
v 17.4 0.6 -5.2
v 17.4 1.8 -5.2
v 17.3 0.6 -5.2
v 17.3 1.8 -5.2
v 17.5 0.6 -5.1
v 17.5 1.8 -5.1
v 17.4 0.6 -5.1
v 17.4 1.8 -5.1
v 17.6 0.6 -5
v 17.6 1.8 -5
v 17.5 0.6 -5
v 17.5 1.8 -5
v 17.7 0.7 -4.9
v 17.7 1.7 -4.9
v 17.6 0.7 -4.9
v 17.6 1.7 -4.9
v 17.8 0.7 -4.8
v 17.8 1.7 -4.8
v 17.7 0.7 -4.8
v 17.7 1.7 -4.8
v 17.9 0.7 -4.7
v 17.9 1.7 -4.7
v 17.8 0.7 -4.7
v 17.8 1.7 -4.7
v 18 0.8 -4.6
v 18 1.6 -4.6
v 17.9 0.8 -4.6
v 17.9 1.6 -4.6
v 18.1 0.8 -4.5
v 18.1 1.6 -4.5
v 18 0.8 -4.5
v 18 1.6 -4.5
v 18.2 0.8 -4.4
v 18.2 1.6 -4.4
v 18.1 0.8 -4.4
v 18.1 1.6 -4.4
v 18.3 1 -4.3
v 18.3 1.5 -4.3
v 18.2 1 -4.3
v 18.2 1.5 -4.3
v 18.4 1 -4.2
v 18.4 1.5 -4.2
v 18.3 1 -4.2
v 18.3 1.5 -4.2
v 18.5 1 -4.1
v 18.5 1.5 -4.1
v 18.4 1 -4.1
v 18.4 1.5 -4.1
v 18.6 1.1 -4
v 18.6 1.4 -4
v 18.5 1.1 -4
v 18.5 1.4 -4
v 18.6 1.1 4
v 18.6 1.4 4
v 18.5 1.1 4
v 18.5 1.4 4
v 18.5 1 4.1
v 18.5 1.5 4.1
v 18.4 1 4.1
v 18.4 1.5 4.1
v 18.4 1 4.2
v 18.4 1.5 4.2
v 18.3 1 4.2
v 18.3 1.5 4.2
v 18.3 1 4.3
v 18.3 1.5 4.3
v 18.2 1 4.3
v 18.2 1.5 4.3
v 18.2 0.8 4.4
v 18.2 1.6 4.4
v 18.1 0.8 4.4
v 18.1 1.6 4.4
v 18.1 0.8 4.5
v 18.1 1.6 4.5
v 18 0.8 4.5
v 18 1.6 4.5
v 18 0.8 4.6
v 18 1.6 4.6
v 17.9 0.8 4.6
v 17.9 1.6 4.6
v 17.9 0.7 4.7
v 17.9 1.7 4.7
v 17.8 0.7 4.7
v 17.8 1.7 4.7
v 17.8 0.7 4.8
v 17.8 1.7 4.8
v 17.7 0.7 4.8
v 17.7 1.7 4.8
v 17.7 0.7 4.9
v 17.7 1.7 4.9
v 17.6 0.7 4.9
v 17.6 1.7 4.9
v 17.6 0.6 5
v 17.6 1.8 5
v 17.5 0.6 5
v 17.5 1.8 5
v 17.5 0.6 5.1
v 17.5 1.8 5.1
v 17.4 0.6 5.1
v 17.4 1.8 5.1
v 17.4 0.6 5.2
v 17.4 1.8 5.2
v 17.3 0.6 5.2
v 17.3 1.8 5.2
v 17.3 0.5 5.3
v 17.3 1.9 5.3
v 17.2 0.5 5.3
v 17.2 1.9 5.3
v 16.4 2.1 5.3
v 16.4 2.2 5.3
v 15.5 2.1 5.3
v 15.5 2.2 5.3
v 17.2 0.5 5.4
v 17.2 1.9 5.4
v 17.1 0.5 5.4
v 17.1 1.9 5.4
v 16.7 2 5.4
v 16.7 2.1 5.4
v 15.5 2 5.4
v 15.5 2.1 5.4
v 17.1 0.5 5.5
v 17.1 1.9 5.5
v 17 0.5 5.5
v 17 1.9 5.5
v 17 2 5.5
v 15.5 1.9 5.5
v 15.5 2 5.5
v 17 0.4 5.6
v 17 1.9 5.6
v 16.9 0.4 5.6
v 16.9 1.8 5.6
v 15.5 1.8 5.6
v 15.5 1.9 5.6
v 16.9 0.4 5.7
v 16.9 1.8 5.7
v 16.8 0.4 5.7
v 16.8 1.7 5.7
v 15.5 1.7 5.7
v 15.5 1.8 5.7
v 16.8 0.4 5.8
v 16.8 1.7 5.8
v 16.7 0.4 5.8
v 16.7 1.6 5.8
v 16.3 0 5.8
v 16.3 0.1 5.8
v 15.5 0 5.8
v 15.5 0.1 5.8
v 15.5 1.6 5.8
v 15.5 1.7 5.8
v 16.7 0.3 5.9
v 16.7 1.6 5.9
v 16.6 0.2 5.9
v 16.6 0.3 5.9
v 16.6 0.8 5.9
v 16.6 1.2 5.9
v 16.6 1.5 5.9
v 16.5 0.2 5.9
v 16.5 0.3 5.9
v 16.4 0.1 5.9
v 16.4 0.2 5.9
v 15.5 0.1 5.9
v 15.5 0.2 5.9
v 15.5 1.5 5.9
v 15.5 1.6 5.9
v 16.6 0.3 6
v 16.6 0.8 6
v 16.6 1.2 6
v 16.6 1.5 6
v 16.5 0.2 6
v 16.5 0.3 6
v 15.5 0.2 6
v 15.5 0.8 6
v 15.5 1.2 6
v 15.5 1.5 6
v 16.3 0 -5.8
v 15.5 0 -5.8
v 16.3 0 5.8
v 15.5 0 5.8
v 16.4 0.1 -5.9
v 15.5 0.1 -5.9
v 16.3 0.1 -5.8
v 15.5 0.1 -5.8
v 16.3 0.1 5.8
v 15.5 0.1 5.8
v 16.4 0.1 5.9
v 15.5 0.1 5.9
v 16.6 0.2 -6
v 15.5 0.2 -6
v 16.4 0.2 -5.9
v 15.5 0.2 -5.9
v 16.6 0.2 5.9
v 16.5 0.2 5.9
v 16.4 0.2 5.9
v 15.5 0.2 5.9
v 16.5 0.2 6
v 15.5 0.2 6
v 16.7 0.3 -5.9
v 16.6 0.3 -5.9
v 16.7 0.3 5.9
v 16.6 0.3 5.9
v 16.5 0.3 5.9
v 16.6 0.3 6
v 16.5 0.3 6
v 16.8 0.4 -5.8
v 16.7 0.4 -5.8
v 16.9 0.4 -5.7
v 16.8 0.4 -5.7
v 17 0.4 -5.6
v 16.9 0.4 -5.6
v 17 0.4 5.6
v 16.9 0.4 5.6
v 16.9 0.4 5.7
v 16.8 0.4 5.7
v 16.8 0.4 5.8
v 16.7 0.4 5.8
v 17.1 0.5 -5.5
v 17 0.5 -5.5
v 17.2 0.5 -5.4
v 17.1 0.5 -5.4
v 17.3 0.5 -5.3
v 17.2 0.5 -5.3
v 17.3 0.5 5.3
v 17.2 0.5 5.3
v 17.2 0.5 5.4
v 17.1 0.5 5.4
v 17.1 0.5 5.5
v 17 0.5 5.5
v 17.4 0.6 -5.2
v 17.3 0.6 -5.2
v 17.5 0.6 -5.1
v 17.4 0.6 -5.1
v 17.6 0.6 -5
v 17.5 0.6 -5
v 17.6 0.6 5
v 17.5 0.6 5
v 17.5 0.6 5.1
v 17.4 0.6 5.1
v 17.4 0.6 5.2
v 17.3 0.6 5.2
v 17.7 0.7 -4.9
v 17.6 0.7 -4.9
v 17.8 0.7 -4.8
v 17.7 0.7 -4.8
v 17.9 0.7 -4.7
v 17.8 0.7 -4.7
v 17.9 0.7 4.7
v 17.8 0.7 4.7
v 17.8 0.7 4.8
v 17.7 0.7 4.8
v 17.7 0.7 4.9
v 17.6 0.7 4.9
v 18 0.8 -4.6
v 17.9 0.8 -4.6
v 18.1 0.8 -4.5
v 18 0.8 -4.5
v 18.2 0.8 -4.4
v 18.1 0.8 -4.4
v 18.2 0.8 4.4
v 18.1 0.8 4.4
v 18.1 0.8 4.5
v 18 0.8 4.5
v 18 0.8 4.6
v 17.9 0.8 4.6
v 18.3 1 -4.3
v 18.2 1 -4.3
v 18.4 1 -4.2
v 18.3 1 -4.2
v 18.5 1 -4.1
v 18.4 1 -4.1
v 18.5 1 4.1
v 18.4 1 4.1
v 18.4 1 4.2
v 18.3 1 4.2
v 18.3 1 4.3
v 18.2 1 4.3
v 18.6 1.1 -4
v 18.5 1.1 -4
v 18.6 1.1 4
v 18.5 1.1 4
v 18.6 1.4 -4
v 18.5 1.4 -4
v 18.6 1.4 4
v 18.5 1.4 4
v 16.6 1.5 -6
v 15.5 1.5 -6
v 16.6 1.5 -5.9
v 15.5 1.5 -5.9
v 18.3 1.5 -4.3
v 18.2 1.5 -4.3
v 18.4 1.5 -4.2
v 18.3 1.5 -4.2
v 18.5 1.5 -4.1
v 18.4 1.5 -4.1
v 18.5 1.5 4.1
v 18.4 1.5 4.1
v 18.4 1.5 4.2
v 18.3 1.5 4.2
v 18.3 1.5 4.3
v 18.2 1.5 4.3
v 16.6 1.5 5.9
v 15.5 1.5 5.9
v 16.6 1.5 6
v 15.5 1.5 6
v 16.7 1.6 -5.9
v 15.5 1.6 -5.9
v 16.7 1.6 -5.8
v 15.5 1.6 -5.8
v 18 1.6 -4.6
v 17.9 1.6 -4.6
v 18.1 1.6 -4.5
v 18 1.6 -4.5
v 18.2 1.6 -4.4
v 18.1 1.6 -4.4
v 18.2 1.6 4.4
v 18.1 1.6 4.4
v 18.1 1.6 4.5
v 18 1.6 4.5
v 18 1.6 4.6
v 17.9 1.6 4.6
v 16.7 1.6 5.8
v 15.5 1.6 5.8
v 16.7 1.6 5.9
v 15.5 1.6 5.9
v 16.8 1.7 -5.8
v 15.5 1.7 -5.8
v 16.8 1.7 -5.7
v 15.5 1.7 -5.7
v 17.7 1.7 -4.9
v 17.6 1.7 -4.9
v 17.8 1.7 -4.8
v 17.7 1.7 -4.8
v 17.9 1.7 -4.7
v 17.8 1.7 -4.7
v 17.9 1.7 4.7
v 17.8 1.7 4.7
v 17.8 1.7 4.8
v 17.7 1.7 4.8
v 17.7 1.7 4.9
v 17.6 1.7 4.9
v 16.8 1.7 5.7
v 15.5 1.7 5.7
v 16.8 1.7 5.8
v 15.5 1.7 5.8
v 16.9 1.8 -5.7
v 15.5 1.8 -5.7
v 16.9 1.8 -5.6
v 15.5 1.8 -5.6
v 17.4 1.8 -5.2
v 17.3 1.8 -5.2
v 17.5 1.8 -5.1
v 17.4 1.8 -5.1
v 17.6 1.8 -5
v 17.5 1.8 -5
v 17.6 1.8 5
v 17.5 1.8 5
v 17.5 1.8 5.1
v 17.4 1.8 5.1
v 17.4 1.8 5.2
v 17.3 1.8 5.2
v 16.9 1.8 5.6
v 15.5 1.8 5.6
v 16.9 1.8 5.7
v 15.5 1.8 5.7
v 17 1.9 -5.6
v 15.5 1.9 -5.6
v 17.1 1.9 -5.5
v 17 1.9 -5.5
v 15.5 1.9 -5.5
v 17.2 1.9 -5.4
v 17.1 1.9 -5.4
v 17.3 1.9 -5.3
v 17.2 1.9 -5.3
v 17.3 1.9 5.3
v 17.2 1.9 5.3
v 17.2 1.9 5.4
v 17.1 1.9 5.4
v 17.1 1.9 5.5
v 17 1.9 5.5
v 15.5 1.9 5.5
v 17 1.9 5.6
v 15.5 1.9 5.6
v 17 2 -5.5
v 15.5 2 -5.5
v 16.7 2 -5.4
v 15.5 2 -5.4
v 16.7 2 5.4
v 15.5 2 5.4
v 17 2 5.5
v 15.5 2 5.5
v 16.7 2.1 -5.4
v 15.5 2.1 -5.4
v 16.4 2.1 -5.3
v 15.5 2.1 -5.3
v 16.4 2.1 5.3
v 15.5 2.1 5.3
v 16.7 2.1 5.4
v 15.5 2.1 5.4
v 16.4 2.2 -5.3
v 15.5 2.2 -5.3
v 16.4 2.2 5.3
v 15.5 2.2 5.3

# faces
f 3/3/1 2/3/1 1/3/1
f 4/3/1 2/3/1 3/3/1
f 7/3/1 6/3/1 5/3/1
f 8/3/1 6/3/1 7/3/1
f 9/3/1 7/3/1 5/3/1
f 10/3/1 6/3/1 8/3/1
f 11/3/1 9/3/1 5/3/1
f 11/3/1 10/3/1 9/3/1
f 12/3/1 6/3/1 10/3/1
f 12/3/1 10/3/1 11/3/1
f 17/3/1 14/3/1 13/3/1
f 18/3/1 14/3/1 17/3/1
f 19/3/1 16/3/1 15/3/1
f 20/3/1 16/3/1 19/3/1
f 25/3/1 22/3/1 21/3/1
f 26/3/1 22/3/1 25/3/1
f 27/3/1 24/3/1 23/3/1
f 28/3/1 24/3/1 27/3/1
f 31/3/1 30/3/1 29/3/1
f 32/3/1 30/3/1 31/3/1
f 33/3/1 31/3/1 29/3/1
f 34/3/1 30/3/1 32/3/1
f 35/3/1 33/3/1 29/3/1
f 35/3/1 34/3/1 33/3/1
f 36/3/1 30/3/1 34/3/1
f 36/3/1 34/3/1 35/3/1
f 41/3/1 38/3/1 37/3/1
f 42/3/1 38/3/1 41/3/1
f 43/3/1 40/3/1 39/3/1
f 44/3/1 40/3/1 43/3/1
f 49/3/1 46/3/1 45/3/1
f 50/3/1 46/3/1 49/3/1
f 51/3/1 48/3/1 47/3/1
f 52/3/1 48/3/1 51/3/1
f 55/3/1 54/3/1 53/3/1
f 56/3/1 54/3/1 55/3/1
f 57/3/1 55/3/1 53/3/1
f 58/3/1 54/3/1 56/3/1
f 59/3/1 57/3/1 53/3/1
f 59/3/1 58/3/1 57/3/1
f 60/3/1 54/3/1 58/3/1
f 60/3/1 58/3/1 59/3/1
f 65/3/1 62/3/1 61/3/1
f 66/3/1 62/3/1 65/3/1
f 67/3/1 64/3/1 63/3/1
f 68/3/1 64/3/1 67/3/1
f 73/3/1 70/3/1 69/3/1
f 74/3/1 70/3/1 73/3/1
f 75/3/1 72/3/1 71/3/1
f 76/3/1 72/3/1 75/3/1
f 79/3/1 78/3/1 77/3/1
f 80/3/1 78/3/1 79/3/1
f 81/3/1 79/3/1 77/3/1
f 82/3/1 78/3/1 80/3/1
f 83/3/1 81/3/1 77/3/1
f 83/3/1 82/3/1 81/3/1
f 84/3/1 78/3/1 82/3/1
f 84/3/1 82/3/1 83/3/1
f 89/3/1 86/3/1 85/3/1
f 90/3/1 86/3/1 89/3/1
f 91/3/1 88/3/1 87/3/1
f 92/3/1 88/3/1 91/3/1
f 97/3/1 94/3/1 93/3/1
f 98/3/1 94/3/1 97/3/1
f 99/3/1 96/3/1 95/3/1
f 100/3/1 96/3/1 99/3/1
f 103/3/1 102/3/1 101/3/1
f 104/3/1 102/3/1 103/3/1
f 105/3/1 103/3/1 101/3/1
f 106/3/1 102/3/1 104/3/1
f 107/3/1 105/3/1 101/3/1
f 107/3/1 106/3/1 105/3/1
f 108/3/1 102/3/1 106/3/1
f 108/3/1 106/3/1 107/3/1
f 113/3/1 110/3/1 109/3/1
f 114/3/1 110/3/1 113/3/1
f 115/3/1 112/3/1 111/3/1
f 116/3/1 112/3/1 115/3/1
f 121/3/1 118/3/1 117/3/1
f 122/3/1 118/3/1 121/3/1
f 123/3/1 120/3/1 119/3/1
f 124/3/1 120/3/1 123/3/1
f 127/3/1 126/3/1 125/3/1
f 128/3/1 126/3/1 127/3/1
f 129/3/1 127/3/1 125/3/1
f 130/3/1 127/3/1 129/3/1
f 131/3/1 126/3/1 128/3/1
f 132/3/1 126/3/1 131/3/1
f 133/3/1 131/3/1 130/3/1
f 134/3/1 131/3/1 133/3/1
f 139/3/1 136/3/1 135/3/1
f 140/3/1 136/3/1 139/3/1
f 141/3/1 138/3/1 137/3/1
f 142/3/1 138/3/1 141/3/1
f 147/3/1 144/3/1 143/3/1
f 148/3/1 144/3/1 147/3/1
f 149/3/1 146/3/1 145/3/1
f 150/3/1 146/3/1 149/3/1
f 153/3/1 152/3/1 151/3/1
f 154/3/1 152/3/1 153/3/1
f 155/3/1 153/3/1 151/3/1
f 156/3/1 153/3/1 155/3/1
f 157/3/1 152/3/1 154/3/1
f 158/3/1 152/3/1 157/3/1
f 161/3/1 160/3/1 159/3/1
f 162/3/1 160/3/1 161/3/1
f 165/3/1 164/3/1 163/3/1
f 166/3/1 164/3/1 165/3/1
f 168/3/1 165/3/1 163/3/1
f 169/3/1 165/3/1 168/3/1
f 170/3/1 167/3/1 166/3/1
f 171/3/1 167/3/1 170/3/1
f 172/4/1 169/4/1 168/4/1
f 173/4/1 169/4/1 172/4/1
f 174/4/1 171/4/1 170/4/1
f 175/4/1 171/4/1 174/4/1
f 176/3/1 173/3/1 172/3/1
f 177/3/1 173/3/1 176/3/1
f 178/3/1 175/3/1 174/3/1
f 179/3/1 175/3/1 178/3/1
f 182/3/1 181/3/1 180/3/1
f 183/3/1 181/3/1 182/3/1
f 186/3/1 185/3/1 184/3/1
f 187/3/1 185/3/1 186/3/1
f 190/3/1 189/3/1 188/3/1
f 191/3/1 189/3/1 190/3/1
f 194/3/1 193/3/1 192/3/1
f 195/3/1 193/3/1 194/3/1
f 196/3/2 197/3/2 199/3/2
f 199/3/2 197/3/2 200/3/2
f 198/3/2 199/3/2 203/3/2
f 199/2/2 200/2/2 204/2/2
f 203/3/2 199/3/2 204/3/2
f 200/3/2 201/3/2 205/3/2
f 204/2/2 200/2/2 205/2/2
f 205/3/2 201/3/2 206/3/2
f 202/3/2 203/3/2 208/3/2
f 203/2/2 204/2/2 209/2/2
f 208/3/2 203/3/2 209/3/2
f 204/2/2 205/2/2 209/2/2
f 205/2/2 206/2/2 209/2/2
f 206/3/2 207/3/2 210/3/2
f 209/2/2 206/2/2 210/2/2
f 210/3/2 207/3/2 211/3/2
f 208/4/2 209/4/2 212/4/2
f 209/2/2 210/2/2 213/2/2
f 212/4/2 209/4/2 213/4/2
f 210/4/2 211/4/2 214/4/2
f 213/2/2 210/2/2 214/2/2
f 214/4/2 211/4/2 215/4/2
f 212/3/2 213/3/2 216/3/2
f 213/2/2 214/2/2 217/2/2
f 216/3/2 213/3/2 217/3/2
f 217/2/2 214/2/2 218/2/2
f 218/2/2 214/2/2 219/2/2
f 214/3/2 215/3/2 220/3/2
f 219/2/2 214/2/2 220/2/2
f 220/3/2 215/3/2 221/3/2
f 217/3/2 218/3/2 222/3/2
f 218/2/2 219/2/2 223/2/2
f 222/3/2 218/3/2 223/3/2
f 223/2/2 219/2/2 224/2/2
f 224/2/2 219/2/2 225/2/2
f 219/3/2 220/3/2 226/3/2
f 225/2/2 219/2/2 226/2/2
f 226/3/2 220/3/2 227/3/2
f 223/3/2 224/3/2 228/3/2
f 224/2/2 225/2/2 229/2/2
f 228/3/2 224/3/2 229/3/2
f 229/2/2 225/2/2 230/2/2
f 230/2/2 225/2/2 231/2/2
f 225/3/2 226/3/2 232/3/2
f 231/2/2 225/2/2 232/2/2
f 232/3/2 226/3/2 233/3/2
f 229/3/2 230/3/2 234/3/2
f 230/2/2 231/2/2 235/2/2
f 234/3/2 230/3/2 235/3/2
f 235/2/2 231/2/2 236/2/2
f 236/2/2 231/2/2 237/2/2
f 231/3/2 232/3/2 238/3/2
f 237/2/2 231/2/2 238/2/2
f 238/3/2 232/3/2 239/3/2
f 235/3/2 236/3/2 240/3/2
f 236/2/2 237/2/2 241/2/2
f 240/3/2 236/3/2 241/3/2
f 241/2/2 237/2/2 242/2/2
f 242/2/2 237/2/2 243/2/2
f 237/3/2 238/3/2 244/3/2
f 243/2/2 237/2/2 244/2/2
f 244/3/2 238/3/2 245/3/2
f 241/3/2 242/3/2 246/3/2
f 242/2/2 243/2/2 247/2/2
f 246/3/2 242/3/2 247/3/2
f 247/2/2 243/2/2 248/2/2
f 248/2/2 243/2/2 249/2/2
f 243/3/2 244/3/2 250/3/2
f 249/2/2 243/2/2 250/2/2
f 250/3/2 244/3/2 251/3/2
f 247/3/2 248/3/2 252/3/2
f 248/2/2 249/2/2 253/2/2
f 252/3/2 248/3/2 253/3/2
f 249/3/2 250/3/2 254/3/2
f 253/2/2 249/2/2 254/2/2
f 254/3/2 250/3/2 255/3/2
f 253/3/2 254/3/2 256/3/2
f 256/3/2 254/3/2 257/3/2
f 262/3/3 259/3/3 258/3/3
f 263/4/3 260/4/3 259/4/3
f 263/3/3 259/3/3 262/3/3
f 264/3/3 261/3/3 260/3/3
f 264/4/3 260/4/3 263/4/3
f 265/3/3 261/3/3 264/3/3
f 268/3/3 267/3/3 266/3/3
f 269/3/3 267/3/3 268/3/3
f 270/3/3 267/3/3 269/3/3
f 271/3/3 267/3/3 270/3/3
f 274/3/3 273/3/3 272/3/3
f 275/3/3 273/3/3 274/3/3
f 276/3/3 267/3/3 271/3/3
f 277/3/3 267/3/3 276/3/3
f 280/3/3 279/3/3 278/3/3
f 281/3/3 279/3/3 280/3/3
f 284/3/3 283/3/3 282/3/3
f 285/3/3 283/3/3 284/3/3
f 286/3/3 279/3/3 281/3/3
f 287/3/3 279/3/3 286/3/3
f 290/3/3 289/3/3 288/3/3
f 291/3/3 289/3/3 290/3/3
f 292/3/3 289/3/3 291/3/3
f 293/3/3 289/3/3 292/3/3
f 296/3/3 295/3/3 294/3/3
f 297/3/3 295/3/3 296/3/3
f 298/3/3 295/3/3 297/3/3
f 299/3/3 295/3/3 298/3/3
f 302/3/3 301/3/3 300/3/3
f 303/3/3 301/3/3 302/3/3
f 305/3/3 304/3/3 303/3/3
f 306/3/3 304/3/3 305/3/3
f 309/3/3 308/3/3 307/3/3
f 310/3/3 308/3/3 309/3/3
f 313/3/3 312/3/3 311/3/3
f 314/3/3 312/3/3 313/3/3
f 317/3/3 316/3/3 315/3/3
f 318/3/3 316/3/3 317/3/3
f 321/3/3 320/3/3 319/3/3
f 322/3/3 320/3/3 321/3/3
f 325/3/3 324/3/3 323/3/3
f 326/3/3 324/3/3 325/3/3
f 329/3/3 328/3/3 327/3/3
f 330/3/3 328/3/3 329/3/3
f 333/3/3 332/3/3 331/3/3
f 334/3/3 332/3/3 333/3/3
f 337/3/3 336/3/3 335/3/3
f 338/3/3 336/3/3 337/3/3
f 341/3/3 340/3/3 339/3/3
f 342/3/3 340/3/3 341/3/3
f 345/3/3 344/3/3 343/3/3
f 346/3/3 344/3/3 345/3/3
f 349/3/3 348/3/3 347/3/3
f 350/3/3 348/3/3 349/3/3
f 353/3/3 352/3/3 351/3/3
f 354/3/3 352/3/3 353/3/3
f 357/3/3 356/3/3 355/3/3
f 358/3/3 356/3/3 357/3/3
f 361/3/3 360/3/3 359/3/3
f 362/3/3 360/3/3 361/3/3
f 365/3/3 364/3/3 363/3/3
f 366/3/3 364/3/3 365/3/3
f 369/3/3 368/3/3 367/3/3
f 370/3/3 368/3/3 369/3/3
f 373/3/3 372/3/3 371/3/3
f 374/3/3 372/3/3 373/3/3
f 375/3/4 376/3/4 377/3/4
f 377/3/4 376/3/4 378/3/4
f 379/3/4 380/3/4 381/3/4
f 381/3/4 380/3/4 382/3/4
f 383/3/4 384/3/4 385/3/4
f 385/3/4 384/3/4 386/3/4
f 387/3/4 388/3/4 389/3/4
f 389/3/4 388/3/4 390/3/4
f 391/3/4 392/3/4 393/3/4
f 393/3/4 392/3/4 394/3/4
f 395/3/4 396/3/4 397/3/4
f 397/3/4 396/3/4 398/3/4
f 399/3/4 400/3/4 401/3/4
f 401/3/4 400/3/4 402/3/4
f 403/3/4 404/3/4 405/3/4
f 405/3/4 404/3/4 406/3/4
f 407/3/4 408/3/4 409/3/4
f 409/3/4 408/3/4 410/3/4
f 411/3/4 412/3/4 413/3/4
f 413/3/4 412/3/4 414/3/4
f 415/3/4 416/3/4 417/3/4
f 417/3/4 416/3/4 418/3/4
f 419/3/4 420/3/4 421/3/4
f 421/3/4 420/3/4 422/3/4
f 423/3/4 424/3/4 425/3/4
f 425/3/4 424/3/4 426/3/4
f 427/3/4 428/3/4 429/3/4
f 429/3/4 428/3/4 430/3/4
f 431/3/4 432/3/4 433/3/4
f 433/3/4 432/3/4 434/3/4
f 435/3/4 436/3/4 437/3/4
f 437/3/4 436/3/4 438/3/4
f 439/3/4 440/3/4 441/3/4
f 441/3/4 440/3/4 442/3/4
f 443/3/4 444/3/4 445/3/4
f 445/3/4 444/3/4 446/3/4
f 446/3/4 447/3/4 448/3/4
f 448/3/4 447/3/4 449/3/4
f 450/3/4 451/3/4 452/3/4
f 452/3/4 451/3/4 453/3/4
f 453/3/4 451/3/4 454/3/4
f 454/3/4 451/3/4 455/3/4
f 456/3/4 457/3/4 458/3/4
f 458/3/4 457/3/4 459/3/4
f 459/3/4 457/3/4 460/3/4
f 460/3/4 457/3/4 461/3/4
f 462/3/4 463/3/4 464/3/4
f 464/3/4 463/3/4 465/3/4
f 466/3/4 467/3/4 468/3/4
f 468/3/4 467/3/4 469/3/4
f 465/3/4 463/3/4 470/3/4
f 470/3/4 463/3/4 471/3/4
f 472/3/4 473/3/4 475/3/4
f 475/3/4 473/3/4 476/3/4
f 476/3/4 473/3/4 477/3/4
f 477/3/4 473/3/4 478/3/4
f 474/3/4 475/3/4 479/3/4
f 479/3/4 475/3/4 480/3/4
f 481/3/4 482/3/4 483/3/4
f 483/3/4 482/3/4 484/3/4
f 478/3/4 473/3/4 485/3/4
f 485/3/4 473/3/4 486/3/4
f 487/3/4 488/3/4 492/3/4
f 491/3/4 492/3/4 493/3/4
f 488/4/4 489/4/4 494/4/4
f 493/3/4 492/3/4 494/3/4
f 492/3/4 488/3/4 494/3/4
f 489/3/4 490/3/4 495/3/4
f 494/4/4 489/4/4 495/4/4
f 495/3/4 490/3/4 496/3/4
f 499/3/5 498/3/5 497/3/5
f 500/3/5 498/3/5 499/3/5
f 503/3/5 502/3/5 501/3/5
f 504/3/5 502/3/5 503/3/5
f 505/3/5 503/3/5 501/3/5
f 507/3/5 505/3/5 501/3/5
f 507/3/5 506/3/5 505/3/5
f 508/3/5 506/3/5 507/3/5
f 511/3/5 510/3/5 509/3/5
f 512/3/5 510/3/5 511/3/5
f 513/3/5 511/3/5 509/3/5
f 514/3/5 511/3/5 513/3/5
f 515/3/5 511/3/5 514/3/5
f 517/3/5 516/3/5 515/3/5
f 517/3/5 515/3/5 514/3/5
f 518/3/5 516/3/5 517/3/5
f 521/3/5 520/3/5 519/3/5
f 522/3/5 520/3/5 521/3/5
f 524/3/5 523/3/5 522/3/5
f 525/3/5 523/3/5 524/3/5
f 529/3/5 527/3/5 526/3/5
f 531/3/5 529/3/5 528/3/5
f 532/3/5 531/3/5 530/3/5
f 533/3/5 529/3/5 531/3/5
f 533/3/5 531/3/5 532/3/5
f 534/3/5 529/3/5 533/3/5
f 535/3/5 527/3/5 529/3/5
f 535/3/5 529/3/5 534/3/5
f 536/3/5 527/3/5 535/3/5
f 537/3/5 527/3/5 536/3/5
f 541/3/5 539/3/5 538/3/5
f 543/3/5 541/3/5 540/3/5
f 544/3/5 543/3/5 542/3/5
f 545/3/5 541/3/5 543/3/5
f 545/3/5 543/3/5 544/3/5
f 546/3/5 541/3/5 545/3/5
f 547/3/5 539/3/5 541/3/5
f 547/3/5 541/3/5 546/3/5
f 548/3/5 539/3/5 547/3/5
f 549/3/5 539/3/5 548/3/5
f 553/3/5 551/3/5 550/3/5
f 555/3/5 553/3/5 552/3/5
f 556/3/5 555/3/5 554/3/5
f 557/3/5 553/3/5 555/3/5
f 557/3/5 555/3/5 556/3/5
f 558/3/5 553/3/5 557/3/5
f 559/3/5 551/3/5 553/3/5
f 559/3/5 553/3/5 558/3/5
f 560/3/5 551/3/5 559/3/5
f 561/3/5 551/3/5 560/3/5
f 565/3/5 563/3/5 562/3/5
f 567/3/5 565/3/5 564/3/5
f 568/3/5 567/3/5 566/3/5
f 569/3/5 565/3/5 567/3/5
f 569/3/5 567/3/5 568/3/5
f 570/3/5 565/3/5 569/3/5
f 571/3/5 563/3/5 565/3/5
f 571/3/5 565/3/5 570/3/5
f 572/3/5 563/3/5 571/3/5
f 573/3/5 563/3/5 572/3/5
f 577/3/5 575/3/5 574/3/5
f 579/3/5 577/3/5 576/3/5
f 580/3/5 579/3/5 578/3/5
f 581/3/5 577/3/5 579/3/5
f 581/3/5 579/3/5 580/3/5
f 582/3/5 577/3/5 581/3/5
f 583/3/5 575/3/5 577/3/5
f 583/3/5 577/3/5 582/3/5
f 584/3/5 575/3/5 583/3/5
f 585/3/5 575/3/5 584/3/5
f 589/3/5 587/3/5 586/3/5
f 591/3/5 589/3/5 588/3/5
f 592/3/5 591/3/5 590/3/5
f 593/3/5 589/3/5 591/3/5
f 593/3/5 591/3/5 592/3/5
f 594/3/5 589/3/5 593/3/5
f 595/3/5 587/3/5 589/3/5
f 595/3/5 589/3/5 594/3/5
f 596/3/5 587/3/5 595/3/5
f 597/3/5 587/3/5 596/3/5
f 600/3/5 599/3/5 598/3/5
f 601/3/5 599/3/5 600/3/5
f 602/3/6 603/3/6 604/3/6
f 604/3/6 603/3/6 605/3/6
f 606/3/6 607/3/6 608/3/6
f 608/3/6 607/3/6 609/3/6
f 610/3/6 611/3/6 613/3/6
f 612/3/6 613/3/6 615/3/6
f 614/3/6 615/3/6 616/3/6
f 615/3/6 613/3/6 617/3/6
f 616/3/6 615/3/6 617/3/6
f 617/3/6 613/3/6 618/3/6
f 613/3/6 611/3/6 619/3/6
f 618/3/6 613/3/6 619/3/6
f 619/3/6 611/3/6 620/3/6
f 620/3/6 611/3/6 621/3/6
f 622/3/6 623/3/6 624/3/6
f 624/3/6 623/3/6 625/3/6
f 626/3/6 627/3/6 628/3/6
f 628/3/6 627/3/6 629/3/6
f 630/3/6 631/3/6 633/3/6
f 632/3/6 633/3/6 635/3/6
f 634/3/6 635/3/6 636/3/6
f 635/3/6 633/3/6 637/3/6
f 636/3/6 635/3/6 637/3/6
f 637/3/6 633/3/6 638/3/6
f 633/3/6 631/3/6 639/3/6
f 638/3/6 633/3/6 639/3/6
f 639/3/6 631/3/6 640/3/6
f 640/3/6 631/3/6 641/3/6
f 642/3/6 643/3/6 644/3/6
f 644/3/6 643/3/6 645/3/6
f 646/3/6 647/3/6 648/3/6
f 648/3/6 647/3/6 649/3/6
f 650/3/6 651/3/6 653/3/6
f 652/3/6 653/3/6 655/3/6
f 654/3/6 655/3/6 656/3/6
f 655/3/6 653/3/6 657/3/6
f 656/3/6 655/3/6 657/3/6
f 657/3/6 653/3/6 658/3/6
f 653/3/6 651/3/6 659/3/6
f 658/3/6 653/3/6 659/3/6
f 659/3/6 651/3/6 660/3/6
f 660/3/6 651/3/6 661/3/6
f 662/3/6 663/3/6 664/3/6
f 664/3/6 663/3/6 665/3/6
f 666/3/6 667/3/6 668/3/6
f 668/3/6 667/3/6 669/3/6
f 670/3/6 671/3/6 673/3/6
f 672/3/6 673/3/6 675/3/6
f 674/3/6 675/3/6 676/3/6
f 675/3/6 673/3/6 677/3/6
f 676/3/6 675/3/6 677/3/6
f 677/3/6 673/3/6 678/3/6
f 673/3/6 671/3/6 679/3/6
f 678/3/6 673/3/6 679/3/6
f 679/3/6 671/3/6 680/3/6
f 680/3/6 671/3/6 681/3/6
f 682/3/6 683/3/6 684/3/6
f 684/3/6 683/3/6 685/3/6
f 686/3/6 687/3/6 689/3/6
f 689/3/6 687/3/6 690/3/6
f 688/3/6 689/3/6 692/3/6
f 691/3/6 692/3/6 694/3/6
f 693/3/6 694/3/6 695/3/6
f 694/3/6 692/3/6 696/3/6
f 695/3/6 694/3/6 696/3/6
f 696/3/6 692/3/6 697/3/6
f 692/3/6 689/3/6 698/3/6
f 697/3/6 692/3/6 698/3/6
f 698/3/6 689/3/6 699/3/6
f 699/3/6 689/3/6 700/3/6
f 700/3/6 701/3/6 702/3/6
f 702/3/6 701/3/6 703/3/6
f 704/3/6 705/3/6 706/3/6
f 706/3/6 705/3/6 707/3/6
f 704/3/6 706/3/6 708/3/6
f 704/3/6 708/3/6 710/3/6
f 708/3/6 709/3/6 710/3/6
f 710/3/6 709/3/6 711/3/6
f 712/3/6 713/3/6 714/3/6
f 714/3/6 713/3/6 715/3/6
f 712/3/6 714/3/6 716/3/6
f 712/3/6 716/3/6 718/3/6
f 716/3/6 717/3/6 718/3/6
f 718/3/6 717/3/6 719/3/6
f 720/3/6 721/3/6 722/3/6
f 722/3/6 721/3/6 723/3/6
