# MagicaVoxel @ Ephtracy

# group
o navedelantera

# material
mtllib escena nave interior-7-navedelantera.mtl
usemtl palette

# normals
vn 1 0 0
vn -1 0 0
vn 0 0 -1
vn 0 0 1
vn 0 -1 0
vn 0 1 0

# texcoords
vt 0.826172 0.5
vt 0.884766 0.5

# verts
v 16.3 0 -5.8
v 16.3 0 5.8
v 16.3 0.1 -5.9
v 16.3 0.1 -5.8
v 16.3 0.1 5.8
v 16.3 0.1 5.9
v 16.3 0.2 -5.9
v 16.3 0.2 5.9
v 4.3 0 -5.8
v 4.3 0 5.8
v 4.3 0.1 -5.9
v 4.3 0.1 -5.8
v 4.3 0.1 -5
v 4.3 0.1 5
v 4.3 0.1 5.8
v 4.3 0.1 5.9
v 4.3 0.2 -5.9
v 4.3 0.2 -5
v 4.3 0.2 5
v 4.3 0.2 5.9
v 16.3 0.1 -5.9
v 16.3 0.2 -5.9
v 4.3 0.1 -5.9
v 4.3 0.2 -5.9
v 16.3 0 -5.8
v 16.3 0.1 -5.8
v 4.3 0 -5.8
v 4.3 0.1 -5.8
v 16.3 0 5.8
v 16.3 0.1 5.8
v 4.3 0 5.8
v 4.3 0.1 5.8
v 16.3 0.1 5.9
v 16.3 0.2 5.9
v 4.3 0.1 5.9
v 4.3 0.2 5.9
v 16.3 0 -5.8
v 4.3 0 -5.8
v 16.3 0 5.8
v 4.3 0 5.8
v 16.3 0.1 -5.9
v 4.3 0.1 -5.9
v 16.3 0.1 -5.8
v 4.3 0.1 -5.8
v 16.3 0.1 5.8
v 4.3 0.1 5.8
v 16.3 0.1 5.9
v 4.3 0.1 5.9
v 16.3 0.2 -5.9
v 4.3 0.2 -5.9
v 15.7 0.2 -5.1
v 14.8 0.2 -5.1
v 14.8 0.2 -5
v 4.3 0.2 -5
v 15.7 0.2 5
v 4.3 0.2 5
v 16.3 0.2 5.9
v 4.3 0.2 5.9

# faces
f 4/2/1 2/2/1 1/2/1
f 5/2/1 2/2/1 4/2/1
f 7/2/1 4/2/1 3/2/1
f 7/2/1 6/2/1 5/2/1
f 7/2/1 5/2/1 4/2/1
f 8/2/1 6/2/1 7/2/1
f 9/2/2 10/2/2 12/2/2
f 12/2/2 10/2/2 13/2/2
f 13/2/2 10/2/2 14/2/2
f 14/2/2 10/2/2 15/2/2
f 11/2/2 12/2/2 17/2/2
f 12/2/2 13/2/2 17/2/2
f 13/1/2 14/1/2 18/1/2
f 17/2/2 13/2/2 18/2/2
f 15/2/2 16/2/2 19/2/2
f 18/1/2 14/1/2 19/1/2
f 14/2/2 15/2/2 19/2/2
f 19/2/2 16/2/2 20/2/2
f 23/2/3 22/2/3 21/2/3
f 24/2/3 22/2/3 23/2/3
f 27/2/3 26/2/3 25/2/3
f 28/2/3 26/2/3 27/2/3
f 29/2/4 30/2/4 31/2/4
f 31/2/4 30/2/4 32/2/4
f 33/2/4 34/2/4 35/2/4
f 35/2/4 34/2/4 36/2/4
f 39/2/5 38/2/5 37/2/5
f 40/2/5 38/2/5 39/2/5
f 43/2/5 42/2/5 41/2/5
f 44/2/5 42/2/5 43/2/5
f 47/2/5 46/2/5 45/2/5
f 48/2/5 46/2/5 47/2/5
f 49/2/6 50/2/6 51/2/6
f 51/2/6 50/2/6 52/2/6
f 51/1/6 52/1/6 53/1/6
f 52/2/6 50/2/6 53/2/6
f 53/2/6 50/2/6 54/2/6
f 49/2/6 51/2/6 55/2/6
f 51/1/6 53/1/6 55/1/6
f 53/1/6 54/1/6 55/1/6
f 55/1/6 54/1/6 56/1/6
f 49/2/6 55/2/6 57/2/6
f 55/2/6 56/2/6 57/2/6
f 57/2/6 56/2/6 58/2/6
