# MagicaVoxel @ Ephtracy

# group
o 

# material
mtllib antorcha.mtl
usemtl palette

# normals
vn -1 0 0
vn 1 0 0
vn 0 0 1
vn 0 0 -1
vn 0 -1 0
vn 0 1 0

# texcoords
vt 0.611328 0.5
vt 0.888672 0.5
vt 0.896484 0.5
vt 0.923828 0.5

# verts
v 0 3.3 0
v 0 3.3 -0.1
v 0 3.3 -0.2
v 0 3.3 -0.3
v 0 3.4 0
v 0 3.4 -0.1
v 0 3.4 -0.2
v 0 3.4 -0.3
v 0 3.4 -0.4
v 0 3.5 -0.1
v 0 3.5 -0.2
v 0 3.5 -0.3
v 0 3.5 -0.4
v 0 3.6 0
v 0 3.6 -0.1
v 0 3.6 -0.2
v 0 3.6 -0.3
v 0 3.7 0
v 0 3.7 -0.1
v 0 3.7 -0.2
v 0.1 3.3 -0.1
v 0.1 3.3 -0.2
v 0.1 3.3 -0.3
v 0.1 3.3 -0.4
v 0.1 3.4 -0.1
v 0.1 3.4 -0.2
v 0.1 3.4 -0.3
v 0.1 3.4 -0.4
v 0.1 3.5 0
v 0.1 3.5 -0.1
v 0.1 3.5 -0.2
v 0.1 3.5 -0.3
v 0.1 3.6 0
v 0.1 3.6 -0.1
v 0.2 2 -0.2
v 0.2 2 -0.3
v 0.2 3.3 -0.2
v 0.2 3.3 -0.3
v 0.2 3.4 0
v 0.2 3.4 -0.1
v 0.2 3.4 -0.3
v 0.2 3.4 -0.4
v 0.2 3.5 0
v 0.2 3.5 -0.1
v 0.2 3.5 -0.2
v 0.2 3.5 -0.3
v 0.2 3.5 -0.4
v 0.2 3.6 -0.1
v 0.2 3.6 -0.2
v 0.2 3.6 -0.3
v 0.2 3.7 -0.1
v 0.2 3.7 -0.2
v 0.3 3.3 0
v 0.3 3.3 -0.1
v 0.3 3.4 0
v 0.3 3.4 -0.1
v 0.1 3.3 0
v 0.1 3.3 -0.1
v 0.1 3.4 0
v 0.1 3.4 -0.1
v 0.1 3.4 -0.3
v 0.1 3.4 -0.4
v 0.1 3.5 -0.2
v 0.1 3.5 -0.3
v 0.1 3.5 -0.4
v 0.1 3.6 0
v 0.1 3.6 -0.1
v 0.1 3.6 -0.2
v 0.1 3.6 -0.3
v 0.1 3.7 0
v 0.1 3.7 -0.1
v 0.1 3.7 -0.2
v 0.2 3.4 -0.1
v 0.2 3.4 -0.2
v 0.2 3.4 -0.3
v 0.2 3.5 0
v 0.2 3.5 -0.1
v 0.2 3.5 -0.2
v 0.2 3.5 -0.3
v 0.2 3.6 0
v 0.2 3.6 -0.1
v 0.2 3.6 -0.2
v 0.3 2 -0.2
v 0.3 2 -0.3
v 0.3 3.3 -0.1
v 0.3 3.3 -0.2
v 0.3 3.3 -0.3
v 0.3 3.3 -0.4
v 0.3 3.4 0
v 0.3 3.4 -0.1
v 0.3 3.4 -0.2
v 0.3 3.4 -0.3
v 0.3 3.4 -0.4
v 0.3 3.5 0
v 0.3 3.5 -0.1
v 0.3 3.5 -0.2
v 0.3 3.5 -0.3
v 0.3 3.5 -0.4
v 0.3 3.6 -0.1
v 0.3 3.6 -0.2
v 0.3 3.6 -0.3
v 0.3 3.7 -0.1
v 0.3 3.7 -0.2
v 0.4 3.3 0
v 0.4 3.3 -0.1
v 0.4 3.3 -0.2
v 0.4 3.3 -0.3
v 0.4 3.4 0
v 0.4 3.4 -0.1
v 0.4 3.4 -0.2
v 0.4 3.4 -0.3
v 0 3.3 0
v 0 3.4 0
v 0 3.6 0
v 0 3.7 0
v 0.1 3.3 0
v 0.1 3.4 0
v 0.1 3.5 0
v 0.1 3.6 0
v 0.1 3.7 0
v 0.2 3.4 0
v 0.2 3.5 0
v 0.2 3.6 0
v 0.3 3.3 0
v 0.3 3.4 0
v 0.3 3.5 0
v 0.4 3.3 0
v 0.4 3.4 0
v 0 3.5 -0.1
v 0 3.6 -0.1
v 0.1 3.3 -0.1
v 0.1 3.4 -0.1
v 0.1 3.5 -0.1
v 0.1 3.6 -0.1
v 0.2 3.3 -0.1
v 0.2 3.4 -0.1
v 0.2 3.5 -0.1
v 0.2 3.6 -0.1
v 0.2 3.7 -0.1
v 0.3 3.3 -0.1
v 0.3 3.4 -0.1
v 0.3 3.6 -0.1
v 0.3 3.7 -0.1
v 0 3.3 -0.2
v 0 3.4 -0.2
v 0.1 3.3 -0.2
v 0.1 3.4 -0.2
v 0.2 2 -0.2
v 0.2 3.3 -0.2
v 0.2 3.5 -0.2
v 0.2 3.6 -0.2
v 0.3 2 -0.2
v 0.3 3.3 -0.2
v 0.3 3.4 -0.2
v 0.3 3.5 -0.2
v 0.3 3.6 -0.2
v 0.4 3.3 -0.2
v 0.4 3.4 -0.2
v 0 3.4 -0.3
v 0 3.5 -0.3
v 0.1 3.4 -0.3
v 0.1 3.5 -0.3
v 0.2 3.4 -0.3
v 0.2 3.5 -0.3
v 0.3 3.4 -0.3
v 0.3 3.5 -0.3
v 0 3.3 -0.1
v 0 3.4 -0.1
v 0.1 3.3 -0.1
v 0.1 3.4 -0.1
v 0.2 3.4 -0.1
v 0.2 3.5 -0.1
v 0.3 3.3 -0.1
v 0.3 3.4 -0.1
v 0.3 3.5 -0.1
v 0.4 3.3 -0.1
v 0.4 3.4 -0.1
v 0 3.6 -0.2
v 0 3.7 -0.2
v 0.1 3.5 -0.2
v 0.1 3.6 -0.2
v 0.1 3.7 -0.2
v 0.2 3.5 -0.2
v 0.2 3.6 -0.2
v 0.2 3.7 -0.2
v 0.3 3.6 -0.2
v 0.3 3.7 -0.2
v 0 3.3 -0.3
v 0 3.4 -0.3
v 0 3.5 -0.3
v 0 3.6 -0.3
v 0.1 3.3 -0.3
v 0.1 3.4 -0.3
v 0.1 3.5 -0.3
v 0.1 3.6 -0.3
v 0.2 2 -0.3
v 0.2 3.3 -0.3
v 0.2 3.4 -0.3
v 0.2 3.5 -0.3
v 0.2 3.6 -0.3
v 0.3 2 -0.3
v 0.3 3.3 -0.3
v 0.3 3.4 -0.3
v 0.3 3.5 -0.3
v 0.3 3.6 -0.3
v 0.4 3.3 -0.3
v 0.4 3.4 -0.3
v 0 3.4 -0.4
v 0 3.5 -0.4
v 0.1 3.3 -0.4
v 0.1 3.4 -0.4
v 0.1 3.5 -0.4
v 0.2 3.3 -0.4
v 0.2 3.4 -0.4
v 0.2 3.5 -0.4
v 0.3 3.3 -0.4
v 0.3 3.4 -0.4
v 0.3 3.5 -0.4
v 0.2 2 -0.2
v 0.3 2 -0.2
v 0.2 2 -0.3
v 0.3 2 -0.3
v 0 3.3 0
v 0.1 3.3 0
v 0.3 3.3 0
v 0.4 3.3 0
v 0 3.3 -0.1
v 0.1 3.3 -0.1
v 0.2 3.3 -0.1
v 0.3 3.3 -0.1
v 0.4 3.3 -0.1
v 0 3.3 -0.2
v 0.1 3.3 -0.2
v 0.2 3.3 -0.2
v 0.3 3.3 -0.2
v 0.4 3.3 -0.2
v 0 3.3 -0.3
v 0.1 3.3 -0.3
v 0.2 3.3 -0.3
v 0.3 3.3 -0.3
v 0.4 3.3 -0.3
v 0.1 3.3 -0.4
v 0.2 3.3 -0.4
v 0.3 3.3 -0.4
v 0.2 3.4 0
v 0.3 3.4 0
v 0.2 3.4 -0.1
v 0.3 3.4 -0.1
v 0 3.4 -0.3
v 0.1 3.4 -0.3
v 0 3.4 -0.4
v 0.1 3.4 -0.4
v 0.1 3.5 0
v 0.2 3.5 0
v 0 3.5 -0.1
v 0.1 3.5 -0.1
v 0.2 3.5 -0.1
v 0 3.5 -0.2
v 0.1 3.5 -0.2
v 0.2 3.5 -0.2
v 0.3 3.5 -0.2
v 0 3.5 -0.3
v 0.1 3.5 -0.3
v 0.2 3.5 -0.3
v 0.3 3.5 -0.3
v 0 3.6 0
v 0.1 3.6 0
v 0 3.6 -0.1
v 0.1 3.6 -0.1
v 0.2 3.6 -0.1
v 0.3 3.6 -0.1
v 0.2 3.6 -0.2
v 0.3 3.6 -0.2
v 0 3.4 0
v 0.1 3.4 0
v 0.3 3.4 0
v 0.4 3.4 0
v 0 3.4 -0.1
v 0.1 3.4 -0.1
v 0.2 3.4 -0.1
v 0.3 3.4 -0.1
v 0.4 3.4 -0.1
v 0 3.4 -0.2
v 0.1 3.4 -0.2
v 0.2 3.4 -0.2
v 0.3 3.4 -0.2
v 0.4 3.4 -0.2
v 0 3.4 -0.3
v 0.1 3.4 -0.3
v 0.2 3.4 -0.3
v 0.3 3.4 -0.3
v 0.4 3.4 -0.3
v 0.1 3.4 -0.4
v 0.2 3.4 -0.4
v 0.2 3.5 0
v 0.3 3.5 0
v 0.2 3.5 -0.1
v 0.3 3.5 -0.1
v 0.1 3.5 -0.2
v 0.2 3.5 -0.2
v 0 3.5 -0.3
v 0.1 3.5 -0.3
v 0.2 3.5 -0.3
v 0.3 3.5 -0.3
v 0 3.5 -0.4
v 0.1 3.5 -0.4
v 0.2 3.5 -0.4
v 0.3 3.5 -0.4
v 0.1 3.6 0
v 0.2 3.6 0
v 0.1 3.6 -0.1
v 0.2 3.6 -0.1
v 0 3.6 -0.2
v 0.1 3.6 -0.2
v 0.2 3.6 -0.2
v 0.3 3.6 -0.2
v 0 3.6 -0.3
v 0.1 3.6 -0.3
v 0.2 3.6 -0.3
v 0.3 3.6 -0.3
v 0 3.7 0
v 0.1 3.7 0
v 0 3.7 -0.1
v 0.1 3.7 -0.1
v 0.2 3.7 -0.1
v 0.3 3.7 -0.1
v 0 3.7 -0.2
v 0.1 3.7 -0.2
v 0.2 3.7 -0.2
v 0.3 3.7 -0.2

# faces
f 5/2/1 2/2/1 1/2/1
f 6/2/1 2/2/1 5/2/1
f 7/4/1 4/4/1 3/4/1
f 8/4/1 4/4/1 7/4/1
f 12/2/1 9/2/1 8/2/1
f 13/2/1 9/2/1 12/2/1
f 15/3/1 11/3/1 10/3/1
f 16/2/1 12/2/1 11/2/1
f 16/3/1 11/3/1 15/3/1
f 17/2/1 12/2/1 16/2/1
f 18/2/1 15/2/1 14/2/1
f 19/4/1 16/4/1 15/4/1
f 19/2/1 15/2/1 18/2/1
f 20/4/1 16/4/1 19/4/1
f 25/3/1 22/3/1 21/3/1
f 26/3/1 22/3/1 25/3/1
f 27/4/1 24/4/1 23/4/1
f 28/4/1 24/4/1 27/4/1
f 30/4/1 26/4/1 25/4/1
f 31/3/1 27/3/1 26/3/1
f 31/4/1 26/4/1 30/4/1
f 32/3/1 27/3/1 31/3/1
f 33/3/1 30/3/1 29/3/1
f 34/3/1 30/3/1 33/3/1
f 37/1/1 36/1/1 35/1/1
f 38/1/1 36/1/1 37/1/1
f 43/4/1 40/4/1 39/4/1
f 44/4/1 40/4/1 43/4/1
f 46/2/1 42/2/1 41/2/1
f 47/2/1 42/2/1 46/2/1
f 49/4/1 46/4/1 45/4/1
f 50/4/1 46/4/1 49/4/1
f 51/3/1 49/3/1 48/3/1
f 52/3/1 49/3/1 51/3/1
f 55/2/1 54/2/1 53/2/1
f 56/2/1 54/2/1 55/2/1
f 57/2/2 58/2/2 59/2/2
f 59/2/2 58/2/2 60/2/2
f 61/2/2 62/2/2 64/2/2
f 64/2/2 62/2/2 65/2/2
f 63/2/2 64/2/2 68/2/2
f 68/2/2 64/2/2 69/2/2
f 66/2/2 67/2/2 70/2/2
f 67/4/2 68/4/2 71/4/2
f 70/2/2 67/2/2 71/2/2
f 71/4/2 68/4/2 72/4/2
f 73/4/2 74/4/2 77/4/2
f 74/3/2 75/3/2 78/3/2
f 77/4/2 74/4/2 78/4/2
f 78/3/2 75/3/2 79/3/2
f 76/3/2 77/3/2 80/3/2
f 77/4/2 78/4/2 81/4/2
f 80/3/2 77/3/2 81/3/2
f 81/4/2 78/4/2 82/4/2
f 83/1/2 84/1/2 86/1/2
f 86/1/2 84/1/2 87/1/2
f 85/2/2 86/2/2 90/2/2
f 90/2/2 86/2/2 91/2/2
f 87/3/2 88/3/2 92/3/2
f 92/3/2 88/3/2 93/3/2
f 89/4/2 90/4/2 94/4/2
f 94/4/2 90/4/2 95/4/2
f 92/2/2 93/2/2 97/2/2
f 97/2/2 93/2/2 98/2/2
f 96/4/2 97/4/2 100/4/2
f 100/4/2 97/4/2 101/4/2
f 99/3/2 100/3/2 102/3/2
f 102/3/2 100/3/2 103/3/2
f 104/2/2 105/2/2 108/2/2
f 108/2/2 105/2/2 109/2/2
f 106/4/2 107/4/2 110/4/2
f 110/4/2 107/4/2 111/4/2
f 116/2/3 113/2/3 112/2/3
f 117/2/3 113/2/3 116/2/3
f 119/2/3 115/2/3 114/2/3
f 120/2/3 115/2/3 119/2/3
f 122/3/3 119/3/3 118/3/3
f 123/3/3 119/3/3 122/3/3
f 125/4/3 122/4/3 121/4/3
f 126/4/3 122/4/3 125/4/3
f 127/2/3 125/2/3 124/2/3
f 128/2/3 125/2/3 127/2/3
f 133/3/3 130/3/3 129/3/3
f 134/3/3 130/3/3 133/3/3
f 135/3/3 132/3/3 131/3/3
f 136/4/3 133/4/3 132/4/3
f 136/3/3 132/3/3 135/3/3
f 137/4/3 133/4/3 136/4/3
f 140/2/3 136/2/3 135/2/3
f 141/2/3 136/2/3 140/2/3
f 142/3/3 139/3/3 138/3/3
f 143/3/3 139/3/3 142/3/3
f 146/4/3 145/4/3 144/4/3
f 147/4/3 145/4/3 146/4/3
f 152/1/3 149/1/3 148/1/3
f 153/1/3 149/1/3 152/1/3
f 155/4/3 151/4/3 150/4/3
f 156/4/3 151/4/3 155/4/3
f 157/4/3 154/4/3 153/4/3
f 158/4/3 154/4/3 157/4/3
f 161/2/3 160/2/3 159/2/3
f 162/2/3 160/2/3 161/2/3
f 165/2/3 164/2/3 163/2/3
f 166/2/3 164/2/3 165/2/3
f 167/2/4 168/2/4 169/2/4
f 169/2/4 168/2/4 170/2/4
f 171/4/4 172/4/4 174/4/4
f 174/4/4 172/4/4 175/4/4
f 173/2/4 174/2/4 176/2/4
f 176/2/4 174/2/4 177/2/4
f 178/4/4 179/4/4 181/4/4
f 181/4/4 179/4/4 182/4/4
f 180/4/4 181/4/4 183/4/4
f 183/4/4 181/4/4 184/4/4
f 184/3/4 185/3/4 186/3/4
f 186/3/4 185/3/4 187/3/4
f 188/4/4 189/4/4 192/4/4
f 192/4/4 189/4/4 193/4/4
f 190/2/4 191/2/4 194/2/4
f 194/2/4 191/2/4 195/2/4
f 193/3/4 194/3/4 198/3/4
f 198/3/4 194/3/4 199/3/4
f 196/1/4 197/1/4 201/1/4
f 201/1/4 197/1/4 202/1/4
f 199/4/4 200/4/4 204/4/4
f 204/4/4 200/4/4 205/4/4
f 202/4/4 203/4/4 206/4/4
f 206/4/4 203/4/4 207/4/4
f 208/2/4 209/2/4 211/2/4
f 211/2/4 209/2/4 212/2/4
f 210/4/4 211/4/4 213/4/4
f 213/4/4 211/4/4 214/4/4
f 213/3/4 214/3/4 216/3/4
f 214/2/4 215/2/4 217/2/4
f 216/3/4 214/3/4 217/3/4
f 217/2/4 215/2/4 218/2/4
f 221/1/5 220/1/5 219/1/5
f 222/1/5 220/1/5 221/1/5
f 227/2/5 224/2/5 223/2/5
f 228/2/5 224/2/5 227/2/5
f 230/2/5 226/2/5 225/2/5
f 231/2/5 226/2/5 230/2/5
f 233/3/5 229/3/5 228/3/5
f 234/2/5 230/2/5 229/2/5
f 234/3/5 229/3/5 233/3/5
f 235/2/5 230/2/5 234/2/5
f 237/4/5 233/4/5 232/4/5
f 238/1/5 234/1/5 233/1/5
f 238/4/5 233/4/5 237/4/5
f 239/1/5 234/1/5 238/1/5
f 240/4/5 236/4/5 235/4/5
f 241/4/5 236/4/5 240/4/5
f 242/4/5 239/4/5 238/4/5
f 243/3/5 240/3/5 239/3/5
f 243/4/5 239/4/5 242/4/5
f 244/3/5 240/3/5 243/3/5
f 247/4/5 246/4/5 245/4/5
f 248/4/5 246/4/5 247/4/5
f 251/2/5 250/2/5 249/2/5
f 252/2/5 250/2/5 251/2/5
f 256/3/5 254/3/5 253/3/5
f 257/3/5 254/3/5 256/3/5
f 258/3/5 256/3/5 255/3/5
f 259/3/5 256/3/5 258/3/5
f 262/2/5 259/2/5 258/2/5
f 263/2/5 259/2/5 262/2/5
f 264/4/5 261/4/5 260/4/5
f 265/4/5 261/4/5 264/4/5
f 268/2/5 267/2/5 266/2/5
f 269/2/5 267/2/5 268/2/5
f 272/3/5 271/3/5 270/3/5
f 273/3/5 271/3/5 272/3/5
f 274/2/6 275/2/6 278/2/6
f 278/2/6 275/2/6 279/2/6
f 276/2/6 277/2/6 281/2/6
f 281/2/6 277/2/6 282/2/6
f 280/2/6 281/2/6 285/2/6
f 285/2/6 281/2/6 286/2/6
f 283/4/6 284/4/6 288/4/6
f 288/4/6 284/4/6 289/4/6
f 286/4/6 287/4/6 290/4/6
f 285/4/6 286/4/6 290/4/6
f 290/4/6 287/4/6 291/4/6
f 291/4/6 287/4/6 292/4/6
f 289/4/6 290/4/6 293/4/6
f 293/4/6 290/4/6 294/4/6
f 295/4/6 296/4/6 297/4/6
f 297/4/6 296/4/6 298/4/6
f 299/3/6 300/3/6 302/3/6
f 302/3/6 300/3/6 303/3/6
f 301/2/6 302/2/6 305/2/6
f 305/2/6 302/2/6 306/2/6
f 303/2/6 304/2/6 307/2/6
f 307/2/6 304/2/6 308/2/6
f 309/3/6 310/3/6 311/3/6
f 311/3/6 310/3/6 312/3/6
f 311/4/6 312/4/6 314/4/6
f 314/4/6 312/4/6 315/4/6
f 313/2/6 314/2/6 317/2/6
f 317/2/6 314/2/6 318/2/6
f 315/4/6 316/4/6 319/4/6
f 319/4/6 316/4/6 320/4/6
f 321/2/6 322/2/6 323/2/6
f 323/2/6 322/2/6 324/2/6
f 323/4/6 324/4/6 327/4/6
f 327/4/6 324/4/6 328/4/6
f 325/3/6 326/3/6 329/3/6
f 329/3/6 326/3/6 330/3/6
