# MagicaVoxel @ Ephtracy

# group
o pistola4

# material
mtllib nave espacial-1-pistola4.mtl
usemtl palette

# normals
vn 1 0 0
vn -1 0 0
vn 0 0 -1
vn 0 0 1
vn 0 -1 0
vn 0 1 0

# texcoords
vt 0.775391 0.5
vt 0.892578 0.5
vt 0.974609 0.5

# verts
v 6.7 2.3 -7.3
v 6.7 2.3 -7.1
v 6.7 2.4 -7.3
v 6.7 2.4 -7.1
v 6.6 2.2 -7.3
v 6.6 2.2 -7.1
v 6.6 2.3 -7.3
v 6.6 2.3 -7.1
v 6.6 2.4 -7.3
v 6.6 2.4 -7.1
v 6.6 2.5 -7.3
v 6.6 2.5 -7.1
v 6.4 2.1 -7.4
v 6.4 2.1 -7.1
v 6.4 2.2 -7.3
v 6.4 2.2 -7.1
v 6.4 2.2 -7
v 6.4 2.3 -7.4
v 6.4 2.3 -7.3
v 6.4 2.3 -7.1
v 6.4 2.3 -7
v 6.4 2.4 -7.3
v 6.4 2.4 -7.1
v 6.4 2.5 -7.3
v 6.4 2.5 -7.1
v 6.4 2.6 -7.4
v 6.4 2.6 -7.3
v 6.4 2.6 -7.1
v 6.4 2.6 -7
v 6.3 2.1 -7.1
v 6.3 2.1 -7
v 6.3 2.2 -7.1
v 6.3 2.2 -7
v 6.2 2.1 -7.5
v 6.2 2.1 -7.4
v 6.2 2.1 -7
v 6.2 2.1 -6.9
v 6.2 2.3 -7.5
v 6.2 2.3 -7.4
v 6.2 2.3 -7
v 6.2 2.3 -6.9
v 6.2 2.4 -7.5
v 6.2 2.4 -7.4
v 6.2 2.4 -7
v 6.2 2.4 -6.9
v 6.2 2.5 -7.5
v 6.2 2.5 -7.4
v 6.2 2.5 -7
v 6.2 2.5 -6.9
v 6.2 2.6 -7.5
v 6.2 2.6 -7.4
v 6.2 2.6 -7.3
v 6.2 2.6 -7.1
v 6.2 2.6 -7
v 6.2 2.6 -6.9
v 6.2 2.7 -7.5
v 6.2 2.7 -6.9
v 5.6 2.7 -7.4
v 5.6 2.7 -7
v 5.6 2.8 -7.4
v 5.6 2.8 -7
v 5.5 2.8 -7.4
v 5.5 2.8 -7
v 5.5 3.1 -7.4
v 5.5 3.1 -7
v 4.8 2.7 -7.4
v 4.8 2.7 -7
v 4.8 3.1 -7.4
v 4.8 3.1 -7
v 4.6 2.1 -7.5
v 4.6 2.1 -6.9
v 4.6 2.3 -7.5
v 4.6 2.3 -6.9
v 4.6 2.4 -7.5
v 4.6 2.4 -6.9
v 4.6 2.5 -7.5
v 4.6 2.5 -6.9
v 4.6 2.6 -7.5
v 4.6 2.6 -6.9
v 4.6 2.7 -7.5
v 4.6 2.7 -6.9
v 6.2 2.1 -7.5
v 6.2 2.3 -7.5
v 6.2 2.4 -7.5
v 6.2 2.5 -7.5
v 6.2 2.6 -7.5
v 6.2 2.7 -7.5
v 4.6 2.1 -7.5
v 4.6 2.3 -7.5
v 4.6 2.4 -7.5
v 4.6 2.5 -7.5
v 4.6 2.6 -7.5
v 4.6 2.7 -7.5
v 6.4 2.1 -7.4
v 6.4 2.3 -7.4
v 6.4 2.6 -7.4
v 6.3 2.1 -7.4
v 6.3 2.3 -7.4
v 6.2 2.1 -7.4
v 6.2 2.3 -7.4
v 6.2 2.4 -7.4
v 6.2 2.5 -7.4
v 6.2 2.6 -7.4
v 5.6 2.7 -7.4
v 5.6 2.8 -7.4
v 5.5 2.8 -7.4
v 5.5 3.1 -7.4
v 4.8 2.7 -7.4
v 4.8 3.1 -7.4
v 6.7 2.3 -7.3
v 6.7 2.4 -7.3
v 6.6 2.2 -7.3
v 6.6 2.3 -7.3
v 6.6 2.4 -7.3
v 6.6 2.5 -7.3
v 6.4 2.2 -7.3
v 6.4 2.3 -7.3
v 6.4 2.4 -7.3
v 6.4 2.5 -7.3
v 6.7 2.3 -7.1
v 6.7 2.4 -7.1
v 6.6 2.2 -7.1
v 6.6 2.3 -7.1
v 6.6 2.4 -7.1
v 6.6 2.5 -7.1
v 6.4 2.1 -7.1
v 6.4 2.2 -7.1
v 6.4 2.3 -7.1
v 6.4 2.4 -7.1
v 6.4 2.5 -7.1
v 6.3 2.1 -7.1
v 6.3 2.2 -7.1
v 6.4 2.2 -7
v 6.4 2.3 -7
v 6.4 2.6 -7
v 6.3 2.1 -7
v 6.3 2.2 -7
v 6.3 2.3 -7
v 6.2 2.1 -7
v 6.2 2.3 -7
v 6.2 2.4 -7
v 6.2 2.5 -7
v 6.2 2.6 -7
v 5.6 2.7 -7
v 5.6 2.8 -7
v 5.5 2.8 -7
v 5.5 3.1 -7
v 4.8 2.7 -7
v 4.8 3.1 -7
v 6.2 2.1 -6.9
v 6.2 2.3 -6.9
v 6.2 2.4 -6.9
v 6.2 2.5 -6.9
v 6.2 2.6 -6.9
v 6.2 2.7 -6.9
v 4.6 2.1 -6.9
v 4.6 2.3 -6.9
v 4.6 2.4 -6.9
v 4.6 2.5 -6.9
v 4.6 2.6 -6.9
v 4.6 2.7 -6.9
v 6.2 2.1 -7.5
v 4.6 2.1 -7.5
v 6.4 2.1 -7.4
v 6.3 2.1 -7.4
v 6.2 2.1 -7.4
v 6.3 2.1 -7.3
v 6.2 2.1 -7.3
v 6.4 2.1 -7.1
v 6.3 2.1 -7.1
v 6.2 2.1 -7.1
v 6.3 2.1 -7
v 6.2 2.1 -7
v 6.2 2.1 -6.9
v 4.6 2.1 -6.9
v 6.6 2.2 -7.3
v 6.4 2.2 -7.3
v 6.6 2.2 -7.1
v 6.4 2.2 -7.1
v 6.3 2.2 -7.1
v 6.4 2.2 -7
v 6.3 2.2 -7
v 6.7 2.3 -7.3
v 6.6 2.3 -7.3
v 6.7 2.3 -7.1
v 6.6 2.3 -7.1
v 6.7 2.4 -7.3
v 6.6 2.4 -7.3
v 6.7 2.4 -7.1
v 6.6 2.4 -7.1
v 6.6 2.5 -7.3
v 6.4 2.5 -7.3
v 6.6 2.5 -7.1
v 6.4 2.5 -7.1
v 6.4 2.6 -7.4
v 6.2 2.6 -7.4
v 6.4 2.6 -7.3
v 6.2 2.6 -7.3
v 6.4 2.6 -7.1
v 6.2 2.6 -7.1
v 6.4 2.6 -7
v 6.2 2.6 -7
v 6.2 2.7 -7.5
v 4.6 2.7 -7.5
v 5.6 2.7 -7.4
v 4.8 2.7 -7.4
v 5.6 2.7 -7
v 4.8 2.7 -7
v 6.2 2.7 -6.9
v 4.6 2.7 -6.9
v 5.6 2.8 -7.4
v 5.5 2.8 -7.4
v 5.6 2.8 -7
v 5.5 2.8 -7
v 5.5 3.1 -7.4
v 4.8 3.1 -7.4
v 5.5 3.1 -7
v 4.8 3.1 -7

# faces
f 3/3/1 2/3/1 1/3/1
f 4/3/1 2/3/1 3/3/1
f 7/3/1 6/3/1 5/3/1
f 8/3/1 6/3/1 7/3/1
f 11/3/1 10/3/1 9/3/1
f 12/3/1 10/3/1 11/3/1
f 15/3/1 14/3/1 13/3/1
f 16/3/1 14/3/1 15/3/1
f 18/3/1 15/3/1 13/3/1
f 19/3/1 15/3/1 18/3/1
f 20/3/1 17/3/1 16/3/1
f 21/3/1 17/3/1 20/3/1
f 22/2/1 19/2/1 18/2/1
f 23/2/1 21/2/1 20/2/1
f 24/2/1 22/2/1 18/2/1
f 25/2/1 21/2/1 23/2/1
f 26/2/1 24/2/1 18/2/1
f 27/3/1 25/3/1 24/3/1
f 27/2/1 24/2/1 26/2/1
f 28/2/1 21/2/1 25/2/1
f 28/3/1 25/3/1 27/3/1
f 29/2/1 21/2/1 28/2/1
f 32/2/1 31/2/1 30/2/1
f 33/2/1 31/2/1 32/2/1
f 38/3/1 35/3/1 34/3/1
f 39/3/1 35/3/1 38/3/1
f 40/3/1 37/3/1 36/3/1
f 41/3/1 37/3/1 40/3/1
f 42/2/1 39/2/1 38/2/1
f 43/2/1 39/2/1 42/2/1
f 44/2/1 41/2/1 40/2/1
f 45/2/1 41/2/1 44/2/1
f 46/3/1 43/3/1 42/3/1
f 47/3/1 43/3/1 46/3/1
f 48/3/1 45/3/1 44/3/1
f 49/3/1 45/3/1 48/3/1
f 50/2/1 47/2/1 46/2/1
f 51/2/1 47/2/1 50/2/1
f 54/2/1 49/2/1 48/2/1
f 55/2/1 49/2/1 54/2/1
f 56/3/1 53/3/1 52/3/1
f 56/3/1 51/3/1 50/3/1
f 56/3/1 55/3/1 54/3/1
f 56/3/1 54/3/1 53/3/1
f 56/3/1 52/3/1 51/3/1
f 57/3/1 55/3/1 56/3/1
f 60/3/1 59/3/1 58/3/1
f 61/3/1 59/3/1 60/3/1
f 64/3/1 63/3/1 62/3/1
f 65/3/1 63/3/1 64/3/1
f 66/3/2 67/3/2 68/3/2
f 68/3/2 67/3/2 69/3/2
f 70/3/2 71/3/2 72/3/2
f 72/3/2 71/3/2 73/3/2
f 72/2/2 73/2/2 74/2/2
f 74/2/2 73/2/2 75/2/2
f 74/3/2 75/3/2 76/3/2
f 76/3/2 75/3/2 77/3/2
f 76/2/2 77/2/2 78/2/2
f 78/2/2 77/2/2 79/2/2
f 78/3/2 79/3/2 80/3/2
f 80/3/2 79/3/2 81/3/2
f 88/3/3 83/3/3 82/3/3
f 89/2/3 84/2/3 83/2/3
f 89/3/3 83/3/3 88/3/3
f 90/3/3 85/3/3 84/3/3
f 90/2/3 84/2/3 89/2/3
f 91/2/3 86/2/3 85/2/3
f 91/3/3 85/3/3 90/3/3
f 92/3/3 87/3/3 86/3/3
f 92/2/3 86/2/3 91/2/3
f 93/3/3 87/3/3 92/3/3
f 97/3/3 95/3/3 94/3/3
f 98/2/3 96/2/3 95/2/3
f 98/3/3 95/3/3 97/3/3
f 99/2/3 98/2/3 97/2/3
f 100/2/3 96/2/3 98/2/3
f 100/2/3 98/2/3 99/2/3
f 101/2/3 96/2/3 100/2/3
f 102/2/3 96/2/3 101/2/3
f 103/2/3 96/2/3 102/2/3
f 106/3/3 105/3/3 104/3/3
f 108/3/3 106/3/3 104/3/3
f 108/3/3 107/3/3 106/3/3
f 109/3/3 107/3/3 108/3/3
f 113/3/3 111/3/3 110/3/3
f 114/3/3 111/3/3 113/3/3
f 116/3/3 113/3/3 112/3/3
f 117/2/3 114/2/3 113/2/3
f 117/3/3 113/3/3 116/3/3
f 118/3/3 115/3/3 114/3/3
f 118/2/3 114/2/3 117/2/3
f 119/3/3 115/3/3 118/3/3
f 120/3/4 121/3/4 123/3/4
f 123/3/4 121/3/4 124/3/4
f 122/3/4 123/3/4 127/3/4
f 123/2/4 124/2/4 128/2/4
f 127/3/4 123/3/4 128/3/4
f 124/3/4 125/3/4 129/3/4
f 128/2/4 124/2/4 129/2/4
f 129/3/4 125/3/4 130/3/4
f 126/3/4 127/3/4 131/3/4
f 131/3/4 127/3/4 132/3/4
f 133/3/4 134/3/4 137/3/4
f 134/2/4 135/2/4 138/2/4
f 137/3/4 134/3/4 138/3/4
f 136/2/4 137/2/4 139/2/4
f 137/2/4 138/2/4 139/2/4
f 138/2/4 135/2/4 140/2/4
f 139/2/4 138/2/4 140/2/4
f 140/2/4 135/2/4 141/2/4
f 141/2/4 135/2/4 142/2/4
f 142/2/4 135/2/4 143/2/4
f 144/3/4 145/3/4 146/3/4
f 144/3/4 146/3/4 148/3/4
f 146/3/4 147/3/4 148/3/4
f 148/3/4 147/3/4 149/3/4
f 150/3/4 151/3/4 156/3/4
f 151/2/4 152/2/4 157/2/4
f 156/3/4 151/3/4 157/3/4
f 152/3/4 153/3/4 158/3/4
f 157/2/4 152/2/4 158/2/4
f 153/2/4 154/2/4 159/2/4
f 158/3/4 153/3/4 159/3/4
f 154/3/4 155/3/4 160/3/4
f 159/2/4 154/2/4 160/2/4
f 160/3/4 155/3/4 161/3/4
f 166/3/5 163/3/5 162/3/5
f 167/3/5 165/3/5 164/3/5
f 167/2/5 166/2/5 165/2/5
f 168/3/5 163/3/5 166/3/5
f 168/2/5 166/2/5 167/2/5
f 169/3/5 167/3/5 164/3/5
f 169/3/5 168/3/5 167/3/5
f 170/3/5 168/3/5 169/3/5
f 171/3/5 163/3/5 168/3/5
f 171/3/5 168/3/5 170/3/5
f 172/2/5 171/2/5 170/2/5
f 173/3/5 163/3/5 171/3/5
f 173/2/5 171/2/5 172/2/5
f 174/3/5 163/3/5 173/3/5
f 175/3/5 163/3/5 174/3/5
f 178/3/5 177/3/5 176/3/5
f 179/3/5 177/3/5 178/3/5
f 181/3/5 180/3/5 179/3/5
f 182/3/5 180/3/5 181/3/5
f 185/3/5 184/3/5 183/3/5
f 186/3/5 184/3/5 185/3/5
f 187/3/6 188/3/6 189/3/6
f 189/3/6 188/3/6 190/3/6
f 191/3/6 192/3/6 193/3/6
f 193/3/6 192/3/6 194/3/6
f 195/2/6 196/2/6 197/2/6
f 197/2/6 196/2/6 198/2/6
f 197/3/6 198/3/6 199/3/6
f 199/3/6 198/3/6 200/3/6
f 199/2/6 200/2/6 201/2/6
f 201/2/6 200/2/6 202/2/6
f 203/3/6 204/3/6 205/3/6
f 205/3/6 204/3/6 206/3/6
f 203/3/6 205/3/6 207/3/6
f 206/3/6 204/3/6 208/3/6
f 203/3/6 207/3/6 209/3/6
f 207/3/6 208/3/6 209/3/6
f 208/3/6 204/3/6 210/3/6
f 209/3/6 208/3/6 210/3/6
f 211/3/6 212/3/6 213/3/6
f 213/3/6 212/3/6 214/3/6
f 215/3/6 216/3/6 217/3/6
f 217/3/6 216/3/6 218/3/6
