# MagicaVoxel @ Ephtracy

# group
o flaps2

# material
mtllib nave espacial-9-flaps2.mtl
usemtl palette

# normals
vn 1 0 0
vn -1 0 0
vn 0 0 -1
vn 0 0 1
vn 0 -1 0
vn 0 1 0

# texcoords
vt 0.611328 0.5
vt 0.677734 0.5
vt 0.775391 0.5
vt 0.884766 0.5

# verts
v 1.7 3.1 -4.8
v 1.7 3.1 -3.7
v 1.7 4.3 -4.8
v 1.7 4.3 -3.7
v 1.5 3.1 -5
v 1.5 3.1 -4.8
v 1.5 4.2 -5
v 1.5 4.2 -4.8
v 1.3 3.1 -5.1
v 1.3 3.1 -5
v 1.3 4.2 -5.1
v 1.3 4.2 -5
v 1.1 3.1 -5.3
v 1.1 3.1 -5.1
v 1.1 4.2 -5.3
v 1.1 4.2 -5.1
v 0.9 3.1 -5.5
v 0.9 3.1 -5.3
v 0.9 4.2 -5.5
v 0.9 4.2 -5.3
v 0.7 3.1 -5.6
v 0.7 3.1 -5.5
v 0.7 4.2 -5.6
v 0.7 4.2 -5.5
v 0.5 3.1 -5.8
v 0.5 3.1 -5.6
v 0.5 4 -5.8
v 0.5 4 -5.6
v 0.4 4 -5.7
v 0.4 4 -5.6
v 0.4 4.1 -5.7
v 0.4 4.1 -5.6
v 0.3 3.1 -5.9
v 0.3 3.1 -5.8
v 0.3 3.9 -5.9
v 0.3 3.9 -5.8
v 0.1 3.1 -6.1
v 0.1 3.1 -5.9
v 0.1 3.7 -6.1
v 0.1 3.7 -6
v 0.1 3.8 -6
v 0.1 3.8 -5.9
v -0.0999999 3.1 -6.2
v -0.0999999 3.1 -6.1
v -0.0999999 3.7 -6.2
v -0.0999999 3.7 -6.1
v -0.3 3.1 -6.3
v -0.3 3.1 -6.2
v -0.3 3.6 -6.3
v -0.3 3.6 -6.2
v -0.5 3.1 -6.4
v -0.5 3.1 -6.3
v -0.5 3.6 -6.4
v -0.5 3.6 -6.3
v -1 3.1 -6.4
v -1 3.1 -3.7
v -1 3.6 -6.4
v -1 3.6 -6.2
v -1 3.7 -6.2
v -1 3.7 -6
v -1 3.8 -6
v -1 3.8 -5.9
v -1 3.9 -5.9
v -1 3.9 -5.8
v -1 4 -5.8
v -1 4 -5.7
v -1 4.1 -5.7
v -1 4.1 -5.6
v -1 4.2 -5.6
v -1 4.2 -4.8
v -1 4.3 -4.8
v -1 4.3 -3.7
v -0.5 3.1 -6.4
v -0.5 3.6 -6.4
v -1 3.1 -6.4
v -1 3.6 -6.4
v -0.3 3.1 -6.3
v -0.3 3.6 -6.3
v -0.5 3.1 -6.3
v -0.5 3.6 -6.3
v -0.0999999 3.1 -6.2
v -0.0999999 3.7 -6.2
v -0.3 3.1 -6.2
v -0.3 3.6 -6.2
v -1 3.6 -6.2
v -1 3.7 -6.2
v 0.1 3.1 -6.1
v 0.1 3.7 -6.1
v -0.0999999 3.1 -6.1
v -0.0999999 3.7 -6.1
v 0.1 3.7 -6
v 0.1 3.8 -6
v -1 3.7 -6
v -1 3.8 -6
v 0.3 3.1 -5.9
v 0.3 3.9 -5.9
v 0.1 3.1 -5.9
v 0.1 3.8 -5.9
v -1 3.8 -5.9
v -1 3.9 -5.9
v 0.5 3.1 -5.8
v 0.5 4 -5.8
v 0.3 3.1 -5.8
v 0.3 3.9 -5.8
v -1 3.9 -5.8
v -1 4 -5.8
v 0.4 4 -5.7
v 0.4 4.1 -5.7
v -1 4 -5.7
v -1 4.1 -5.7
v 0.7 3.1 -5.6
v 0.7 4.2 -5.6
v 0.5 3.1 -5.6
v 0.5 4 -5.6
v 0.4 4 -5.6
v 0.4 4.1 -5.6
v -1 4.1 -5.6
v -1 4.2 -5.6
v 0.9 3.1 -5.5
v 0.9 4.2 -5.5
v 0.7 3.1 -5.5
v 0.7 4.2 -5.5
v 1.1 3.1 -5.3
v 1.1 4.2 -5.3
v 0.9 3.1 -5.3
v 0.9 4.2 -5.3
v 1.3 3.1 -5.1
v 1.3 4.2 -5.1
v 1.1 3.1 -5.1
v 1.1 4.2 -5.1
v 1.5 3.1 -5
v 1.5 4.2 -5
v 1.3 3.1 -5
v 1.3 4.2 -5
v 1.7 3.1 -4.8
v 1.7 4.3 -4.8
v 1.5 3.1 -4.8
v 1.5 4.2 -4.8
v -1 4.2 -4.8
v -1 4.3 -4.8
v 1.7 3.1 -3.7
v 1.7 4.3 -3.7
v -1 3.1 -3.7
v -1 4.3 -3.7
v -0.5 3.1 -6.4
v -1 3.1 -6.4
v -0.3 3.1 -6.3
v -0.5 3.1 -6.3
v -0.0999999 3.1 -6.2
v -0.3 3.1 -6.2
v 0.1 3.1 -6.1
v -0.0999999 3.1 -6.1
v 0.3 3.1 -5.9
v 0.1 3.1 -5.9
v 0.5 3.1 -5.8
v 0.3 3.1 -5.8
v 0.7 3.1 -5.6
v 0.5 3.1 -5.6
v 0.9 3.1 -5.5
v 0.7 3.1 -5.5
v 1.1 3.1 -5.3
v 0.9 3.1 -5.3
v 1.3 3.1 -5.1
v 1.1 3.1 -5.1
v 1.5 3.1 -5
v 1.3 3.1 -5
v 1.7 3.1 -4.8
v 1.5 3.1 -4.8
v 1.7 3.1 -3.7
v -1 3.1 -3.7
v -0.5 3.6 -6.4
v -1 3.6 -6.4
v -0.3 3.6 -6.3
v -0.5 3.6 -6.3
v -0.3 3.6 -6.2
v -1 3.6 -6.2
v -0.0999999 3.7 -6.2
v -1 3.7 -6.2
v 0.1 3.7 -6.1
v -0.0999999 3.7 -6.1
v 0.1 3.7 -6
v -1 3.7 -6
v 0.1 3.8 -6
v -1 3.8 -6
v 0.1 3.8 -5.9
v -1 3.8 -5.9
v 0.3 3.9 -5.9
v -1 3.9 -5.9
v 0.3 3.9 -5.8
v -1 3.9 -5.8
v 0.5 4 -5.8
v -1 4 -5.8
v 0.4 4 -5.7
v -1 4 -5.7
v 0.5 4 -5.6
v 0.4 4 -5.6
v 0.4 4.1 -5.7
v -1 4.1 -5.7
v 0.4 4.1 -5.6
v -1 4.1 -5.6
v 0.7 4.2 -5.6
v -1 4.2 -5.6
v 0.9 4.2 -5.5
v 0.7 4.2 -5.5
v 1.1 4.2 -5.3
v 0.9 4.2 -5.3
v 1.3 4.2 -5.1
v 1.1 4.2 -5.1
v 1.5 4.2 -5
v 1.3 4.2 -5
v 1.5 4.2 -4.8
v -1 4.2 -4.8
v 1.7 4.3 -4.8
v -1 4.3 -4.8
v 1.7 4.3 -3.7
v -1 4.3 -3.7

# faces
f 3/4/1 2/4/1 1/4/1
f 4/4/1 2/4/1 3/4/1
f 7/4/1 6/4/1 5/4/1
f 8/4/1 6/4/1 7/4/1
f 11/4/1 10/4/1 9/4/1
f 12/4/1 10/4/1 11/4/1
f 15/4/1 14/4/1 13/4/1
f 16/4/1 14/4/1 15/4/1
f 19/4/1 18/4/1 17/4/1
f 20/4/1 18/4/1 19/4/1
f 23/4/1 22/4/1 21/4/1
f 24/4/1 22/4/1 23/4/1
f 27/4/1 26/4/1 25/4/1
f 28/4/1 26/4/1 27/4/1
f 31/4/1 30/4/1 29/4/1
f 32/4/1 30/4/1 31/4/1
f 35/4/1 34/4/1 33/4/1
f 36/4/1 34/4/1 35/4/1
f 39/4/1 38/4/1 37/4/1
f 40/4/1 38/4/1 39/4/1
f 41/4/1 38/4/1 40/4/1
f 42/4/1 38/4/1 41/4/1
f 45/4/1 44/4/1 43/4/1
f 46/4/1 44/4/1 45/4/1
f 49/4/1 48/4/1 47/4/1
f 50/4/1 48/4/1 49/4/1
f 53/4/1 52/4/1 51/4/1
f 54/4/1 52/4/1 53/4/1
f 55/4/2 56/4/2 57/4/2
f 57/4/2 56/4/2 58/4/2
f 58/4/2 56/4/2 59/4/2
f 59/4/2 56/4/2 60/4/2
f 60/4/2 56/4/2 61/4/2
f 61/4/2 56/4/2 62/4/2
f 62/4/2 56/4/2 63/4/2
f 63/4/2 56/4/2 64/4/2
f 64/4/2 56/4/2 65/4/2
f 65/4/2 56/4/2 66/4/2
f 66/4/2 56/4/2 67/4/2
f 67/4/2 56/4/2 68/4/2
f 68/4/2 56/4/2 69/4/2
f 69/4/2 56/4/2 70/4/2
f 70/4/2 56/4/2 71/4/2
f 71/4/2 56/4/2 72/4/2
f 75/4/3 74/4/3 73/4/3
f 76/4/3 74/4/3 75/4/3
f 79/4/3 78/4/3 77/4/3
f 80/4/3 78/4/3 79/4/3
f 83/4/3 82/4/3 81/4/3
f 84/4/3 82/4/3 83/4/3
f 85/4/3 82/4/3 84/4/3
f 86/4/3 82/4/3 85/4/3
f 89/4/3 88/4/3 87/4/3
f 90/4/3 88/4/3 89/4/3
f 93/4/3 92/4/3 91/4/3
f 94/4/3 92/4/3 93/4/3
f 97/4/3 96/4/3 95/4/3
f 98/4/3 96/4/3 97/4/3
f 99/4/3 96/4/3 98/4/3
f 100/4/3 96/4/3 99/4/3
f 103/4/3 102/4/3 101/4/3
f 104/4/3 102/4/3 103/4/3
f 105/4/3 102/4/3 104/4/3
f 106/4/3 102/4/3 105/4/3
f 109/4/3 108/4/3 107/4/3
f 110/4/3 108/4/3 109/4/3
f 113/4/3 112/4/3 111/4/3
f 114/4/3 112/4/3 113/4/3
f 115/4/3 112/4/3 114/4/3
f 116/4/3 112/4/3 115/4/3
f 117/4/3 112/4/3 116/4/3
f 118/4/3 112/4/3 117/4/3
f 121/4/3 120/4/3 119/4/3
f 122/4/3 120/4/3 121/4/3
f 125/4/3 124/4/3 123/4/3
f 126/4/3 124/4/3 125/4/3
f 129/4/3 128/4/3 127/4/3
f 130/4/3 128/4/3 129/4/3
f 133/4/3 132/4/3 131/4/3
f 134/4/3 132/4/3 133/4/3
f 137/4/3 136/4/3 135/4/3
f 138/4/3 136/4/3 137/4/3
f 139/4/3 136/4/3 138/4/3
f 140/4/3 136/4/3 139/4/3
f 141/4/4 142/4/4 143/4/4
f 143/4/4 142/4/4 144/4/4
f 148/4/5 146/4/5 145/4/5
f 150/4/5 148/4/5 147/4/5
f 152/4/5 150/4/5 149/4/5
f 154/4/5 152/4/5 151/4/5
f 156/4/5 154/4/5 153/4/5
f 158/4/5 156/4/5 155/4/5
f 160/4/5 158/4/5 157/4/5
f 162/4/5 160/4/5 159/4/5
f 164/4/5 162/4/5 161/4/5
f 166/4/5 164/4/5 163/4/5
f 168/4/5 166/4/5 165/4/5
f 169/4/5 168/4/5 167/4/5
f 170/4/5 146/4/5 148/4/5
f 170/4/5 168/4/5 169/4/5
f 170/4/5 148/4/5 150/4/5
f 170/4/5 166/4/5 168/4/5
f 170/4/5 150/4/5 152/4/5
f 170/4/5 164/4/5 166/4/5
f 170/4/5 152/4/5 154/4/5
f 170/4/5 162/4/5 164/4/5
f 170/4/5 154/4/5 156/4/5
f 170/4/5 160/4/5 162/4/5
f 170/4/5 156/4/5 158/4/5
f 170/4/5 158/4/5 160/4/5
f 171/4/6 172/4/6 174/4/6
f 173/4/6 174/4/6 175/4/6
f 174/4/6 172/4/6 176/4/6
f 175/4/6 174/4/6 176/4/6
f 177/4/6 178/4/6 180/4/6
f 179/4/6 180/4/6 181/4/6
f 180/4/6 178/4/6 182/4/6
f 181/4/6 180/4/6 182/4/6
f 183/4/6 184/4/6 185/4/6
f 185/4/6 184/4/6 186/4/6
f 187/4/6 188/4/6 189/4/6
f 189/4/6 188/4/6 190/4/6
f 191/4/6 192/4/6 193/4/6
f 193/4/6 192/4/6 194/4/6
f 191/4/6 193/4/6 195/4/6
f 195/4/6 193/4/6 196/4/6
f 197/4/6 198/4/6 199/4/6
f 199/4/6 198/4/6 200/4/6
f 201/4/6 202/4/6 204/4/6
f 203/4/6 204/4/6 206/4/6
f 205/4/6 206/4/6 208/4/6
f 207/4/6 208/4/6 210/4/6
f 209/4/6 210/4/6 211/4/6
f 204/4/6 202/4/6 212/4/6
f 211/4/6 210/4/6 212/4/6
f 206/4/6 204/4/6 212/4/6
f 210/4/6 208/4/6 212/4/6
f 208/4/6 206/4/6 212/4/6
f 213/4/6 214/4/6 215/4/6
f 215/4/6 214/4/6 216/4/6
