# MagicaVoxel @ Ephtracy

# group
o rampa

# material
mtllib nave espacial-14-rampa.mtl
usemtl palette

# normals
vn 1 0 0
vn -1 0 0
vn 0 0 -1
vn 0 0 1
vn 0 -1 0
vn 0 1 0

# texcoords
vt 0.447266 0.5
vt 0.611328 0.5
vt 0.634766 0.5
vt 0.775391 0.5
vt 0.884766 0.5
vt 0.947266 0.5

# verts
v 13.6 0 3.7
v 13.6 0 7.6
v 13.6 0 7.7
v 13.6 0.2 7.6
v 13.6 0.2 7.7
v 13.6 0.3 7.4
v 13.6 0.3 7.5
v 13.6 0.3 7.6
v 13.6 0.4 7.4
v 13.6 0.4 7.5
v 13.6 0.5 7.2
v 13.6 0.5 7.3
v 13.6 0.5 7.4
v 13.6 0.6 7.2
v 13.6 0.6 7.3
v 13.6 0.7 7
v 13.6 0.7 7.1
v 13.6 0.7 7.2
v 13.6 0.8 7
v 13.6 0.8 7.1
v 13.6 0.9 6.8
v 13.6 0.9 6.9
v 13.6 0.9 7
v 13.6 1 6.8
v 13.6 1 6.9
v 13.6 1.1 6.6
v 13.6 1.1 6.7
v 13.6 1.1 6.8
v 13.6 1.2 6.6
v 13.6 1.2 6.7
v 13.6 1.3 6.4
v 13.6 1.3 6.5
v 13.6 1.3 6.6
v 13.6 1.4 6.4
v 13.6 1.4 6.5
v 13.6 1.5 6.2
v 13.6 1.5 6.3
v 13.6 1.5 6.4
v 13.6 1.6 6.2
v 13.6 1.6 6.3
v 13.6 1.7 6
v 13.6 1.7 6.1
v 13.6 1.7 6.2
v 13.6 1.8 6
v 13.6 1.8 6.1
v 13.6 1.9 5.6
v 13.6 1.9 5.9
v 13.6 1.9 6
v 13.6 2 5.6
v 13.6 2 5.9
v 13.6 2.1 5.4
v 13.6 2.1 5.5
v 13.6 2.1 5.6
v 13.6 2.2 5.4
v 13.6 2.2 5.5
v 13.6 2.3 5.2
v 13.6 2.3 5.3
v 13.6 2.3 5.4
v 13.6 2.4 5.2
v 13.6 2.4 5.3
v 13.6 2.5 5
v 13.6 2.5 5.1
v 13.6 2.5 5.2
v 13.6 2.6 5
v 13.6 2.6 5.1
v 13.6 2.7 4.8
v 13.6 2.7 4.9
v 13.6 2.7 5
v 13.6 2.8 4.8
v 13.6 2.8 4.9
v 13.6 2.9 4.6
v 13.6 2.9 4.7
v 13.6 2.9 4.8
v 13.6 3 4.6
v 13.6 3 4.7
v 13.6 3.1 3.8
v 13.6 3.1 4.6
v 13.6 3.2 3.7
v 13.6 3.2 3.8
v 10.9 0 3.7
v 10.9 0 7.6
v 10.9 0 7.7
v 10.9 0.2 7.6
v 10.9 0.2 7.7
v 10.9 0.3 7.4
v 10.9 0.3 7.5
v 10.9 0.3 7.6
v 10.9 0.4 7.4
v 10.9 0.4 7.5
v 10.9 0.5 7.2
v 10.9 0.5 7.3
v 10.9 0.5 7.4
v 10.9 0.6 7.2
v 10.9 0.6 7.3
v 10.9 0.7 7
v 10.9 0.7 7.1
v 10.9 0.7 7.2
v 10.9 0.8 7
v 10.9 0.8 7.1
v 10.9 0.9 6.8
v 10.9 0.9 6.9
v 10.9 0.9 7
v 10.9 1 6.8
v 10.9 1 6.9
v 10.9 1.1 6.6
v 10.9 1.1 6.7
v 10.9 1.1 6.8
v 10.9 1.2 6.6
v 10.9 1.2 6.7
v 10.9 1.3 6.4
v 10.9 1.3 6.5
v 10.9 1.3 6.6
v 10.9 1.4 6.4
v 10.9 1.4 6.5
v 10.9 1.5 6.2
v 10.9 1.5 6.3
v 10.9 1.5 6.4
v 10.9 1.6 6.2
v 10.9 1.6 6.3
v 10.9 1.7 6
v 10.9 1.7 6.1
v 10.9 1.7 6.2
v 10.9 1.8 6
v 10.9 1.8 6.1
v 10.9 1.9 5.6
v 10.9 1.9 5.9
v 10.9 1.9 6
v 10.9 2 5.6
v 10.9 2 5.9
v 10.9 2.1 5.4
v 10.9 2.1 5.5
v 10.9 2.1 5.6
v 10.9 2.2 5.4
v 10.9 2.2 5.5
v 10.9 2.3 5.2
v 10.9 2.3 5.3
v 10.9 2.3 5.4
v 10.9 2.4 5.2
v 10.9 2.4 5.3
v 10.9 2.5 5
v 10.9 2.5 5.1
v 10.9 2.5 5.2
v 10.9 2.6 5
v 10.9 2.6 5.1
v 10.9 2.7 4.8
v 10.9 2.7 4.9
v 10.9 2.7 5
v 10.9 2.8 4.8
v 10.9 2.8 4.9
v 10.9 2.9 4.6
v 10.9 2.9 4.7
v 10.9 2.9 4.8
v 10.9 3 4.6
v 10.9 3 4.7
v 10.9 3.1 3.8
v 10.9 3.1 4.6
v 10.9 3.2 3.7
v 10.9 3.2 3.8
v 13.6 0 3.7
v 13.6 3.2 3.7
v 10.9 0 3.7
v 10.9 3.2 3.7
v 13.6 3.1 3.8
v 13.6 3.2 3.8
v 10.9 3.1 3.8
v 10.9 3.2 3.8
v 13.6 3 4.6
v 13.6 3.1 4.6
v 10.9 3 4.6
v 10.9 3.1 4.6
v 13.6 2.9 4.7
v 13.6 3 4.7
v 10.9 2.9 4.7
v 10.9 3 4.7
v 13.6 2.8 4.8
v 13.6 2.9 4.8
v 10.9 2.8 4.8
v 10.9 2.9 4.8
v 13.6 2.7 4.9
v 13.6 2.8 4.9
v 10.9 2.7 4.9
v 10.9 2.8 4.9
v 13.6 2.6 5
v 13.6 2.7 5
v 10.9 2.6 5
v 10.9 2.7 5
v 13.6 2.5 5.1
v 13.6 2.6 5.1
v 10.9 2.5 5.1
v 10.9 2.6 5.1
v 13.6 2.4 5.2
v 13.6 2.5 5.2
v 10.9 2.4 5.2
v 10.9 2.5 5.2
v 13.6 2.3 5.3
v 13.6 2.4 5.3
v 10.9 2.3 5.3
v 10.9 2.4 5.3
v 13.6 2.2 5.4
v 13.6 2.3 5.4
v 10.9 2.2 5.4
v 10.9 2.3 5.4
v 13.6 2.1 5.5
v 13.6 2.2 5.5
v 10.9 2.1 5.5
v 10.9 2.2 5.5
v 13.6 2 5.6
v 13.6 2.1 5.6
v 10.9 2 5.6
v 10.9 2.1 5.6
v 13.6 1.9 5.9
v 13.6 2 5.9
v 10.9 1.9 5.9
v 10.9 2 5.9
v 13.6 1.8 6
v 13.6 1.9 6
v 10.9 1.8 6
v 10.9 1.9 6
v 13.6 1.7 6.1
v 13.6 1.8 6.1
v 10.9 1.7 6.1
v 10.9 1.8 6.1
v 13.6 1.6 6.2
v 13.6 1.7 6.2
v 10.9 1.6 6.2
v 10.9 1.7 6.2
v 13.6 1.5 6.3
v 13.6 1.6 6.3
v 10.9 1.5 6.3
v 10.9 1.6 6.3
v 13.6 1.4 6.4
v 13.6 1.5 6.4
v 10.9 1.4 6.4
v 10.9 1.5 6.4
v 13.6 1.3 6.5
v 13.6 1.4 6.5
v 10.9 1.3 6.5
v 10.9 1.4 6.5
v 13.6 1.2 6.6
v 13.6 1.3 6.6
v 10.9 1.2 6.6
v 10.9 1.3 6.6
v 13.6 1.1 6.7
v 13.6 1.2 6.7
v 10.9 1.1 6.7
v 10.9 1.2 6.7
v 13.6 1 6.8
v 13.6 1.1 6.8
v 10.9 1 6.8
v 10.9 1.1 6.8
v 13.6 0.9 6.9
v 13.6 1 6.9
v 10.9 0.9 6.9
v 10.9 1 6.9
v 13.6 0.8 7
v 13.6 0.9 7
v 10.9 0.8 7
v 10.9 0.9 7
v 13.6 0.7 7.1
v 13.6 0.8 7.1
v 10.9 0.7 7.1
v 10.9 0.8 7.1
v 13.6 0.6 7.2
v 13.6 0.7 7.2
v 10.9 0.6 7.2
v 10.9 0.7 7.2
v 13.6 0.5 7.3
v 13.6 0.6 7.3
v 10.9 0.5 7.3
v 10.9 0.6 7.3
v 13.6 0.4 7.4
v 13.6 0.5 7.4
v 10.9 0.4 7.4
v 10.9 0.5 7.4
v 13.6 0.3 7.5
v 13.6 0.4 7.5
v 10.9 0.3 7.5
v 10.9 0.4 7.5
v 13.6 0.2 7.6
v 13.6 0.3 7.6
v 10.9 0.2 7.6
v 10.9 0.3 7.6
v 13.6 0 7.7
v 13.6 0.2 7.7
v 10.9 0 7.7
v 10.9 0.2 7.7
v 13.6 0 3.7
v 10.9 0 3.7
v 13.6 0 7.6
v 10.9 0 7.6
v 13.6 0 7.7
v 10.9 0 7.7
v 13.6 0.2 7.6
v 10.9 0.2 7.6
v 13.6 0.2 7.7
v 10.9 0.2 7.7
v 13.6 0.3 7.5
v 10.9 0.3 7.5
v 13.6 0.3 7.6
v 10.9 0.3 7.6
v 13.6 0.4 7.4
v 10.9 0.4 7.4
v 13.6 0.4 7.5
v 10.9 0.4 7.5
v 13.6 0.5 7.3
v 10.9 0.5 7.3
v 13.6 0.5 7.4
v 10.9 0.5 7.4
v 13.6 0.6 7.2
v 10.9 0.6 7.2
v 13.6 0.6 7.3
v 10.9 0.6 7.3
v 13.6 0.7 7.1
v 10.9 0.7 7.1
v 13.6 0.7 7.2
v 10.9 0.7 7.2
v 13.6 0.8 7
v 10.9 0.8 7
v 13.6 0.8 7.1
v 10.9 0.8 7.1
v 13.6 0.9 6.9
v 10.9 0.9 6.9
v 13.6 0.9 7
v 10.9 0.9 7
v 13.6 1 6.8
v 10.9 1 6.8
v 13.6 1 6.9
v 10.9 1 6.9
v 13.6 1.1 6.7
v 10.9 1.1 6.7
v 13.6 1.1 6.8
v 10.9 1.1 6.8
v 13.6 1.2 6.6
v 10.9 1.2 6.6
v 13.6 1.2 6.7
v 10.9 1.2 6.7
v 13.6 1.3 6.5
v 10.9 1.3 6.5
v 13.6 1.3 6.6
v 10.9 1.3 6.6
v 13.6 1.4 6.4
v 10.9 1.4 6.4
v 13.6 1.4 6.5
v 10.9 1.4 6.5
v 13.6 1.5 6.3
v 10.9 1.5 6.3
v 13.6 1.5 6.4
v 10.9 1.5 6.4
v 13.6 1.6 6.2
v 10.9 1.6 6.2
v 13.6 1.6 6.3
v 10.9 1.6 6.3
v 13.6 1.7 6.1
v 10.9 1.7 6.1
v 13.6 1.7 6.2
v 10.9 1.7 6.2
v 13.6 1.8 6
v 10.9 1.8 6
v 13.6 1.8 6.1
v 10.9 1.8 6.1
v 13.6 1.9 5.9
v 10.9 1.9 5.9
v 13.6 1.9 6
v 10.9 1.9 6
v 13.6 2 5.6
v 10.9 2 5.6
v 13.6 2 5.9
v 10.9 2 5.9
v 13.6 2.1 5.5
v 10.9 2.1 5.5
v 13.6 2.1 5.6
v 10.9 2.1 5.6
v 13.6 2.2 5.4
v 10.9 2.2 5.4
v 13.6 2.2 5.5
v 10.9 2.2 5.5
v 13.6 2.3 5.3
v 10.9 2.3 5.3
v 13.6 2.3 5.4
v 10.9 2.3 5.4
v 13.6 2.4 5.2
v 10.9 2.4 5.2
v 13.6 2.4 5.3
v 10.9 2.4 5.3
v 13.6 2.5 5.1
v 10.9 2.5 5.1
v 13.6 2.5 5.2
v 10.9 2.5 5.2
v 13.6 2.6 5
v 10.9 2.6 5
v 13.6 2.6 5.1
v 10.9 2.6 5.1
v 13.6 2.7 4.9
v 10.9 2.7 4.9
v 13.6 2.7 5
v 10.9 2.7 5
v 13.6 2.8 4.8
v 10.9 2.8 4.8
v 13.6 2.8 4.9
v 10.9 2.8 4.9
v 13.6 2.9 4.7
v 10.9 2.9 4.7
v 13.6 2.9 4.8
v 10.9 2.9 4.8
v 13.6 3 4.6
v 10.9 3 4.6
v 13.6 3 4.7
v 10.9 3 4.7
v 13.6 3.1 3.8
v 10.9 3.1 3.8
v 13.6 3.1 4.6
v 10.9 3.1 4.6
v 13.6 3.2 3.7
v 10.9 3.2 3.7
v 13.6 3.2 3.8
v 10.9 3.2 3.8

# faces
f 4/3/1 2/3/1 1/3/1
f 4/6/1 3/6/1 2/6/1
f 5/6/1 3/6/1 4/6/1
f 6/3/1 4/3/1 1/3/1
f 7/3/1 4/3/1 6/3/1
f 8/3/1 4/3/1 7/3/1
f 9/3/1 6/3/1 1/3/1
f 9/6/1 7/6/1 6/6/1
f 10/6/1 7/6/1 9/6/1
f 11/3/1 9/3/1 1/3/1
f 12/3/1 9/3/1 11/3/1
f 13/3/1 9/3/1 12/3/1
f 14/3/1 11/3/1 1/3/1
f 14/6/1 12/6/1 11/6/1
f 15/6/1 12/6/1 14/6/1
f 16/3/1 14/3/1 1/3/1
f 17/3/1 14/3/1 16/3/1
f 18/3/1 14/3/1 17/3/1
f 19/3/1 16/3/1 1/3/1
f 19/6/1 17/6/1 16/6/1
f 20/6/1 17/6/1 19/6/1
f 21/3/1 19/3/1 1/3/1
f 22/3/1 19/3/1 21/3/1
f 23/3/1 19/3/1 22/3/1
f 24/3/1 21/3/1 1/3/1
f 24/6/1 22/6/1 21/6/1
f 25/6/1 22/6/1 24/6/1
f 26/3/1 24/3/1 1/3/1
f 27/3/1 24/3/1 26/3/1
f 28/3/1 24/3/1 27/3/1
f 29/3/1 26/3/1 1/3/1
f 29/6/1 27/6/1 26/6/1
f 30/6/1 27/6/1 29/6/1
f 31/3/1 29/3/1 1/3/1
f 32/3/1 29/3/1 31/3/1
f 33/3/1 29/3/1 32/3/1
f 34/3/1 31/3/1 1/3/1
f 34/6/1 32/6/1 31/6/1
f 35/6/1 32/6/1 34/6/1
f 36/3/1 34/3/1 1/3/1
f 37/3/1 34/3/1 36/3/1
f 38/3/1 34/3/1 37/3/1
f 39/3/1 36/3/1 1/3/1
f 39/6/1 37/6/1 36/6/1
f 40/6/1 37/6/1 39/6/1
f 41/3/1 39/3/1 1/3/1
f 42/3/1 39/3/1 41/3/1
f 43/3/1 39/3/1 42/3/1
f 44/3/1 41/3/1 1/3/1
f 44/6/1 42/6/1 41/6/1
f 45/6/1 42/6/1 44/6/1
f 46/3/1 44/3/1 1/3/1
f 47/3/1 44/3/1 46/3/1
f 48/3/1 44/3/1 47/3/1
f 49/3/1 46/3/1 1/3/1
f 49/6/1 47/6/1 46/6/1
f 50/6/1 47/6/1 49/6/1
f 51/3/1 49/3/1 1/3/1
f 52/3/1 49/3/1 51/3/1
f 53/3/1 49/3/1 52/3/1
f 54/3/1 51/3/1 1/3/1
f 54/6/1 52/6/1 51/6/1
f 55/6/1 52/6/1 54/6/1
f 56/3/1 54/3/1 1/3/1
f 57/3/1 54/3/1 56/3/1
f 58/3/1 54/3/1 57/3/1
f 59/3/1 56/3/1 1/3/1
f 59/6/1 57/6/1 56/6/1
f 60/6/1 57/6/1 59/6/1
f 61/3/1 59/3/1 1/3/1
f 62/3/1 59/3/1 61/3/1
f 63/3/1 59/3/1 62/3/1
f 64/3/1 61/3/1 1/3/1
f 64/6/1 62/6/1 61/6/1
f 65/6/1 62/6/1 64/6/1
f 66/3/1 64/3/1 1/3/1
f 67/3/1 64/3/1 66/3/1
f 68/3/1 64/3/1 67/3/1
f 69/3/1 66/3/1 1/3/1
f 69/6/1 67/6/1 66/6/1
f 70/6/1 67/6/1 69/6/1
f 71/3/1 69/3/1 1/3/1
f 72/3/1 69/3/1 71/3/1
f 73/3/1 69/3/1 72/3/1
f 74/3/1 71/3/1 1/3/1
f 74/6/1 72/6/1 71/6/1
f 75/6/1 72/6/1 74/6/1
f 76/3/1 74/3/1 1/3/1
f 77/3/1 74/3/1 76/3/1
f 78/3/1 76/3/1 1/3/1
f 79/3/1 76/3/1 78/3/1
f 80/3/2 81/3/2 83/3/2
f 81/6/2 82/6/2 83/6/2
f 83/6/2 82/6/2 84/6/2
f 80/3/2 83/3/2 85/3/2
f 85/3/2 83/3/2 86/3/2
f 86/3/2 83/3/2 87/3/2
f 80/3/2 85/3/2 88/3/2
f 85/6/2 86/6/2 88/6/2
f 88/6/2 86/6/2 89/6/2
f 80/3/2 88/3/2 90/3/2
f 90/3/2 88/3/2 91/3/2
f 91/3/2 88/3/2 92/3/2
f 80/3/2 90/3/2 93/3/2
f 90/6/2 91/6/2 93/6/2
f 93/6/2 91/6/2 94/6/2
f 80/3/2 93/3/2 95/3/2
f 95/3/2 93/3/2 96/3/2
f 96/3/2 93/3/2 97/3/2
f 80/3/2 95/3/2 98/3/2
f 95/6/2 96/6/2 98/6/2
f 98/6/2 96/6/2 99/6/2
f 80/3/2 98/3/2 100/3/2
f 100/3/2 98/3/2 101/3/2
f 101/3/2 98/3/2 102/3/2
f 80/3/2 100/3/2 103/3/2
f 100/6/2 101/6/2 103/6/2
f 103/6/2 101/6/2 104/6/2
f 80/3/2 103/3/2 105/3/2
f 105/3/2 103/3/2 106/3/2
f 106/3/2 103/3/2 107/3/2
f 80/3/2 105/3/2 108/3/2
f 105/6/2 106/6/2 108/6/2
f 108/6/2 106/6/2 109/6/2
f 80/3/2 108/3/2 110/3/2
f 110/3/2 108/3/2 111/3/2
f 111/3/2 108/3/2 112/3/2
f 80/3/2 110/3/2 113/3/2
f 110/6/2 111/6/2 113/6/2
f 113/6/2 111/6/2 114/6/2
f 80/3/2 113/3/2 115/3/2
f 115/3/2 113/3/2 116/3/2
f 116/3/2 113/3/2 117/3/2
f 80/3/2 115/3/2 118/3/2
f 115/6/2 116/6/2 118/6/2
f 118/6/2 116/6/2 119/6/2
f 80/3/2 118/3/2 120/3/2
f 120/3/2 118/3/2 121/3/2
f 121/3/2 118/3/2 122/3/2
f 80/3/2 120/3/2 123/3/2
f 120/6/2 121/6/2 123/6/2
f 123/6/2 121/6/2 124/6/2
f 80/3/2 123/3/2 125/3/2
f 125/3/2 123/3/2 126/3/2
f 126/3/2 123/3/2 127/3/2
f 80/3/2 125/3/2 128/3/2
f 125/6/2 126/6/2 128/6/2
f 128/6/2 126/6/2 129/6/2
f 80/3/2 128/3/2 130/3/2
f 130/3/2 128/3/2 131/3/2
f 131/3/2 128/3/2 132/3/2
f 80/3/2 130/3/2 133/3/2
f 130/6/2 131/6/2 133/6/2
f 133/6/2 131/6/2 134/6/2
f 80/3/2 133/3/2 135/3/2
f 135/3/2 133/3/2 136/3/2
f 136/3/2 133/3/2 137/3/2
f 80/3/2 135/3/2 138/3/2
f 135/6/2 136/6/2 138/6/2
f 138/6/2 136/6/2 139/6/2
f 80/3/2 138/3/2 140/3/2
f 140/3/2 138/3/2 141/3/2
f 141/3/2 138/3/2 142/3/2
f 80/3/2 140/3/2 143/3/2
f 140/6/2 141/6/2 143/6/2
f 143/6/2 141/6/2 144/6/2
f 80/3/2 143/3/2 145/3/2
f 145/3/2 143/3/2 146/3/2
f 146/3/2 143/3/2 147/3/2
f 80/3/2 145/3/2 148/3/2
f 145/6/2 146/6/2 148/6/2
f 148/6/2 146/6/2 149/6/2
f 80/3/2 148/3/2 150/3/2
f 150/3/2 148/3/2 151/3/2
f 151/3/2 148/3/2 152/3/2
f 80/3/2 150/3/2 153/3/2
f 150/6/2 151/6/2 153/6/2
f 153/6/2 151/6/2 154/6/2
f 80/3/2 153/3/2 155/3/2
f 155/3/2 153/3/2 156/3/2
f 80/3/2 155/3/2 157/3/2
f 157/3/2 155/3/2 158/3/2
f 161/3/3 160/3/3 159/3/3
f 162/3/3 160/3/3 161/3/3
f 163/3/4 164/3/4 165/3/4
f 165/3/4 164/3/4 166/3/4
f 167/3/4 168/3/4 169/3/4
f 169/3/4 168/3/4 170/3/4
f 171/6/4 172/6/4 173/6/4
f 173/6/4 172/6/4 174/6/4
f 175/3/4 176/3/4 177/3/4
f 177/3/4 176/3/4 178/3/4
f 179/6/4 180/6/4 181/6/4
f 181/6/4 180/6/4 182/6/4
f 183/3/4 184/3/4 185/3/4
f 185/3/4 184/3/4 186/3/4
f 187/6/4 188/6/4 189/6/4
f 189/6/4 188/6/4 190/6/4
f 191/3/4 192/3/4 193/3/4
f 193/3/4 192/3/4 194/3/4
f 195/6/4 196/6/4 197/6/4
f 197/6/4 196/6/4 198/6/4
f 199/3/4 200/3/4 201/3/4
f 201/3/4 200/3/4 202/3/4
f 203/6/4 204/6/4 205/6/4
f 205/6/4 204/6/4 206/6/4
f 207/3/4 208/3/4 209/3/4
f 209/3/4 208/3/4 210/3/4
f 211/6/4 212/6/4 213/6/4
f 213/6/4 212/6/4 214/6/4
f 215/3/4 216/3/4 217/3/4
f 217/3/4 216/3/4 218/3/4
f 219/6/4 220/6/4 221/6/4
f 221/6/4 220/6/4 222/6/4
f 223/3/4 224/3/4 225/3/4
f 225/3/4 224/3/4 226/3/4
f 227/6/4 228/6/4 229/6/4
f 229/6/4 228/6/4 230/6/4
f 231/3/4 232/3/4 233/3/4
f 233/3/4 232/3/4 234/3/4
f 235/6/4 236/6/4 237/6/4
f 237/6/4 236/6/4 238/6/4
f 239/3/4 240/3/4 241/3/4
f 241/3/4 240/3/4 242/3/4
f 243/6/4 244/6/4 245/6/4
f 245/6/4 244/6/4 246/6/4
f 247/3/4 248/3/4 249/3/4
f 249/3/4 248/3/4 250/3/4
f 251/6/4 252/6/4 253/6/4
f 253/6/4 252/6/4 254/6/4
f 255/3/4 256/3/4 257/3/4
f 257/3/4 256/3/4 258/3/4
f 259/6/4 260/6/4 261/6/4
f 261/6/4 260/6/4 262/6/4
f 263/3/4 264/3/4 265/3/4
f 265/3/4 264/3/4 266/3/4
f 267/6/4 268/6/4 269/6/4
f 269/6/4 268/6/4 270/6/4
f 271/3/4 272/3/4 273/3/4
f 273/3/4 272/3/4 274/3/4
f 275/6/4 276/6/4 277/6/4
f 277/6/4 276/6/4 278/6/4
f 279/3/4 280/3/4 281/3/4
f 281/3/4 280/3/4 282/3/4
f 283/6/4 284/6/4 285/6/4
f 285/6/4 284/6/4 286/6/4
f 289/3/5 288/3/5 287/3/5
f 290/3/5 288/3/5 289/3/5
f 291/6/5 290/6/5 289/6/5
f 292/6/5 290/6/5 291/6/5
f 293/6/6 294/6/6 295/6/6
f 295/6/6 294/6/6 296/6/6
f 297/3/6 298/3/6 299/3/6
f 299/3/6 298/3/6 300/3/6
f 301/6/6 302/6/6 303/6/6
f 303/6/6 302/6/6 304/6/6
f 305/3/6 306/3/6 307/3/6
f 307/3/6 306/3/6 308/3/6
f 309/6/6 310/6/6 311/6/6
f 311/6/6 310/6/6 312/6/6
f 313/3/6 314/3/6 315/3/6
f 315/3/6 314/3/6 316/3/6
f 317/6/6 318/6/6 319/6/6
f 319/6/6 318/6/6 320/6/6
f 321/3/6 322/3/6 323/3/6
f 323/3/6 322/3/6 324/3/6
f 325/6/6 326/6/6 327/6/6
f 327/6/6 326/6/6 328/6/6
f 329/3/6 330/3/6 331/3/6
f 331/3/6 330/3/6 332/3/6
f 333/6/6 334/6/6 335/6/6
f 335/6/6 334/6/6 336/6/6
f 337/3/6 338/3/6 339/3/6
f 339/3/6 338/3/6 340/3/6
f 341/6/6 342/6/6 343/6/6
f 343/6/6 342/6/6 344/6/6
f 345/3/6 346/3/6 347/3/6
f 347/3/6 346/3/6 348/3/6
f 349/6/6 350/6/6 351/6/6
f 351/6/6 350/6/6 352/6/6
f 353/3/6 354/3/6 355/3/6
f 355/3/6 354/3/6 356/3/6
f 357/6/6 358/6/6 359/6/6
f 359/6/6 358/6/6 360/6/6
f 361/3/6 362/3/6 363/3/6
f 363/3/6 362/3/6 364/3/6
f 365/6/6 366/6/6 367/6/6
f 367/6/6 366/6/6 368/6/6
f 369/3/6 370/3/6 371/3/6
f 371/3/6 370/3/6 372/3/6
f 373/6/6 374/6/6 375/6/6
f 375/6/6 374/6/6 376/6/6
f 377/3/6 378/3/6 379/3/6
f 379/3/6 378/3/6 380/3/6
f 381/6/6 382/6/6 383/6/6
f 383/6/6 382/6/6 384/6/6
f 385/3/6 386/3/6 387/3/6
f 387/3/6 386/3/6 388/3/6
f 389/6/6 390/6/6 391/6/6
f 391/6/6 390/6/6 392/6/6
f 393/3/6 394/3/6 395/3/6
f 395/3/6 394/3/6 396/3/6
f 397/6/6 398/6/6 399/6/6
f 399/6/6 398/6/6 400/6/6
f 401/3/6 402/3/6 403/3/6
f 403/3/6 402/3/6 404/3/6
f 405/6/6 406/6/6 407/6/6
f 407/6/6 406/6/6 408/6/6
f 409/3/6 410/3/6 411/3/6
f 411/3/6 410/3/6 412/3/6
f 413/3/6 414/3/6 415/3/6
f 415/3/6 414/3/6 416/3/6
